<svg width="42" height="42" viewBox="0 0 42 42" fill="none" xmlns="http://www.w3.org/2000/svg">
<g clip-path="url(#clip0_22_999)">
<path d="M42.0001 24.5653C42.0001 35.9848 31.116 42 21.0294 42C10.9429 42 0.00012207 35.9848 0.00012207 24.5653C0.00012207 13.1457 10.9429 0 21.0294 0C31.116 0 42.0001 13.159 42.0001 24.5653Z" fill="#76C3EF"/>
<mask id="path-2-outside-1_22_999" maskUnits="userSpaceOnUse" x="20.4338" y="17.6179" width="12" height="16" fill="black">
<rect fill="white" x="20.4338" y="17.6179" width="12" height="16"/>
<path d="M30.4374 27.6247C30.5422 27.6249 30.6453 27.5991 30.7377 27.5497C30.83 27.5002 30.9086 27.4286 30.9665 27.3413C31.0533 27.1998 31.093 27.0344 31.0798 26.8689C31.0769 26.7876 31.093 26.7067 31.1271 26.6327C31.1738 26.5909 31.2284 26.5588 31.2877 26.5383C31.416 26.4753 31.5313 26.3888 31.6277 26.2832C31.6849 26.1739 31.7147 26.0523 31.7147 25.9289C31.7147 25.8056 31.6849 25.684 31.6277 25.5747C31.6128 25.4713 31.6128 25.3663 31.6277 25.2629C31.6759 25.1284 31.7571 25.0082 31.8639 24.9134C32.0434 24.7056 32.289 24.4411 32.1473 24.0821C32.1 23.9918 32.0395 23.909 31.9678 23.8364L31.8923 23.742C31.8356 23.6381 31.8923 23.4491 31.9584 23.2602C32.0174 23.1701 32.0573 23.0688 32.0755 22.9627C32.0937 22.8565 32.0898 22.7478 32.0641 22.6432C32.0384 22.5386 31.9914 22.4404 31.9261 22.3548C31.8608 22.2691 31.7785 22.1979 31.6844 22.1454L31.5711 22.0604C31.4684 21.9043 31.4249 21.7167 31.4483 21.5314C31.4689 21.3613 31.4428 21.1888 31.3729 21.0324C31.303 20.876 31.1919 20.7415 31.0515 20.6434C30.9184 20.5828 30.7722 20.5568 30.6264 20.5678H30.3996C30.343 20.5678 30.3335 20.3127 30.3335 20.2088C30.3335 20.1049 30.3335 19.7648 30.1351 19.6514C30.0937 19.6169 30.0449 19.5922 29.9926 19.5791C29.9403 19.5661 29.8857 19.5649 29.8328 19.5759C29.7826 19.5812 29.7319 19.5812 29.6817 19.5759C29.4575 19.6241 29.2256 19.6241 29.0015 19.5759C28.9836 19.552 28.9678 19.5268 28.9543 19.5003C28.832 19.2903 28.6963 19.0883 28.548 18.8957C28.1891 18.5273 27.9056 18.6028 27.7734 18.6879C27.69 18.7448 27.6111 18.808 27.5372 18.8768C27.4667 18.9585 27.3839 19.0286 27.2916 19.0846C27.2429 19.0454 27.1985 19.0011 27.1593 18.9524C27.1491 18.9404 27.1396 18.9278 27.131 18.9146C27.0686 18.8456 26.9906 18.7924 26.9035 18.7596C26.8164 18.7267 26.7228 18.7151 26.6303 18.7256C26.4326 18.7785 26.2473 18.87 26.0852 18.9948C25.923 19.1197 25.7872 19.2754 25.6856 19.4531C25.4944 19.2347 25.2345 19.0881 24.9487 19.0374C24.756 19.0181 24.5621 19.0585 24.3931 19.1531C24.2241 19.2478 24.0883 19.392 24.0041 19.5664C23.97 19.6836 23.9478 19.8038 23.9379 19.9254C23.9379 20.0671 23.9379 20.171 23.8435 20.2183C23.738 20.2443 23.6277 20.2443 23.5223 20.2183C23.3331 20.1974 23.1417 20.2234 22.9649 20.2938C22.8001 20.399 22.6781 20.5595 22.621 20.7465C22.5638 20.9335 22.5752 21.1348 22.6531 21.3141V21.3613C22.6611 21.4051 22.6611 21.4499 22.6531 21.4936C22.6531 21.5503 22.5398 21.607 22.4359 21.6825C22.245 21.7647 22.0929 21.9168 22.0107 22.1077C21.9335 22.2985 21.9335 22.5119 22.0107 22.7028C22.0563 22.7902 22.079 22.8877 22.0769 22.9862C22.042 23.061 21.9976 23.1308 21.9446 23.1941C21.8625 23.2834 21.7955 23.3855 21.7462 23.4964C21.6986 23.6567 21.6901 23.8261 21.7213 23.9905C21.7525 24.1548 21.8226 24.3093 21.9257 24.4411C22.0211 24.593 22.0824 24.7638 22.1052 24.9417C22.1 25.0303 22.0775 25.1169 22.0391 25.1968C21.9834 25.3083 21.9544 25.4312 21.9544 25.5558C21.9544 25.6804 21.9834 25.8033 22.0391 25.9148C22.1123 26.009 22.2073 26.084 22.3159 26.1333C22.4245 26.1827 22.5435 26.2049 22.6626 26.1982C22.7948 26.1982 22.9082 26.1982 22.9649 26.2927C23.0216 26.3871 23.031 26.4816 23.0405 26.6233C23.0351 26.8461 23.1088 27.0636 23.2483 27.2374L21.4628 31.2145C21.4438 31.251 21.4338 31.2915 21.4338 31.3326C21.4338 31.3737 21.4438 31.4142 21.4628 31.4507C21.4843 31.4871 21.5174 31.5153 21.5568 31.5308C21.5962 31.5462 21.6396 31.5479 21.6801 31.5357C22.2125 31.4491 22.7306 31.2902 23.22 31.0634C23.5115 31.6091 23.7095 32.1999 23.8057 32.8111C23.818 32.8594 23.8443 32.9031 23.8812 32.9367C23.9182 32.9703 23.9642 32.9923 24.0135 33C24.0617 32.9988 24.1086 32.984 24.1487 32.9572C24.1889 32.9305 24.2206 32.8929 24.2402 32.8488L25.6951 28.9284C25.6951 28.9284 25.6951 28.9284 25.6951 28.8811H25.8084C25.9877 28.8632 26.1582 28.7944 26.2997 28.6827C26.378 28.6168 26.4676 28.5656 26.5642 28.5316C26.7009 28.5354 26.8343 28.5744 26.9515 28.6449C27.0623 28.724 27.1899 28.7763 27.3244 28.7976C27.4588 28.8189 27.5963 28.8087 27.7262 28.7678C27.8483 28.7119 27.9528 28.6237 28.0285 28.5127L29.181 32.2915C29.1915 32.3365 29.2167 32.3767 29.2526 32.4058C29.2885 32.4349 29.3332 32.4512 29.3794 32.4521C29.4228 32.4513 29.4652 32.4385 29.5019 32.4152C29.5386 32.3919 29.5681 32.3589 29.5872 32.3198C29.8045 31.838 30.0029 31.3184 30.1729 30.8178C30.6369 31.1741 31.1619 31.443 31.7222 31.6113C31.7633 31.6283 31.8089 31.6311 31.8517 31.6191C31.8946 31.6071 31.9321 31.5811 31.9584 31.5452C31.9884 31.5108 32.0085 31.4689 32.0169 31.4241C32.0252 31.3792 32.0213 31.333 32.0056 31.2901C31.5427 30.062 30.9948 28.8339 30.4374 27.6247ZM25.3077 28.7583L24.1174 31.9608C23.9846 31.4994 23.7908 31.0578 23.5412 30.6477C23.5133 30.5979 23.4669 30.5611 23.4121 30.5452C23.3573 30.5293 23.2985 30.5356 23.2483 30.5627C22.8738 30.7528 22.4772 30.8956 22.0674 30.9878L23.6734 27.4452H23.7584C23.827 27.4309 23.8977 27.4309 23.9663 27.4452C24.0013 27.5063 24.0238 27.5737 24.0324 27.6436C24.0503 27.8037 24.1088 27.9565 24.2024 28.0876C24.2971 28.1728 24.4111 28.2337 24.5345 28.2649C24.658 28.2962 24.7872 28.2969 24.911 28.2671C24.9504 28.2416 24.9954 28.226 25.0421 28.2216C25.0889 28.2171 25.136 28.224 25.1795 28.2416C25.2231 28.2592 25.2617 28.287 25.2923 28.3227C25.3228 28.3584 25.3443 28.4008 25.355 28.4466C25.355 28.4466 25.4022 28.5316 25.4494 28.5883C25.4142 28.6035 25.383 28.6269 25.3583 28.6564C25.3337 28.686 25.3164 28.7209 25.3077 28.7583ZM30.2107 21.0024C30.3329 21.0195 30.4569 21.0195 30.5791 21.0024C30.657 20.9861 30.7374 20.9861 30.8153 21.0024C30.9192 21.0496 30.9476 21.2007 30.9665 21.4936C30.942 21.7858 31.0298 22.0763 31.2121 22.306C31.2723 22.3704 31.3425 22.4246 31.4199 22.4666L31.5522 22.5706C31.6277 22.6556 31.5522 22.8067 31.5522 23.0429C31.4826 23.1772 31.4463 23.3262 31.4463 23.4775C31.4463 23.6287 31.4826 23.7777 31.5522 23.912C31.5953 23.9776 31.6461 24.0378 31.7033 24.0915C31.7033 24.1387 31.7789 24.1671 31.7883 24.1954C31.7978 24.2238 31.7883 24.356 31.5994 24.5355C31.4267 24.6858 31.3074 24.888 31.2593 25.1118C31.2379 25.2839 31.2573 25.4587 31.316 25.6219C31.3632 25.792 31.3916 25.8959 31.316 25.9526C31.2701 25.9978 31.2155 26.0332 31.1554 26.0565C31.0308 26.108 30.9205 26.189 30.8342 26.2927C30.7406 26.4354 30.6943 26.6039 30.7019 26.7745C30.706 26.8559 30.6898 26.937 30.6547 27.0106C30.6075 27.0862 30.4752 27.0862 30.2674 27.1051C30.1407 27.0917 30.0127 27.104 29.8909 27.1414C29.7692 27.1787 29.6562 27.2403 29.5589 27.3224C29.473 27.4214 29.4086 27.5372 29.3699 27.6625C29.3512 27.7264 29.3225 27.787 29.2849 27.842C29.2093 27.9175 29.0582 27.8986 28.822 27.842C28.5608 27.7633 28.2792 27.7904 28.0379 27.9175C27.9353 27.9704 27.8451 28.0444 27.7734 28.1348C27.7388 28.1908 27.6899 28.2364 27.6317 28.2671C27.5372 28.3143 27.4239 28.2671 27.2444 28.1632C27.0465 28.0246 26.8031 27.9672 26.5642 28.0026C26.41 28.0427 26.2654 28.1134 26.1391 28.2104C26.0351 28.286 25.9312 28.3615 25.884 28.3238C25.8368 28.286 25.8273 28.2387 25.799 28.182C25.7536 28.0722 25.6823 27.975 25.5911 27.8986C25.4543 27.7992 25.2878 27.7493 25.1188 27.7569H24.911C24.7315 27.7569 24.6181 27.7569 24.5709 27.7569C24.5389 27.6919 24.5196 27.6214 24.5142 27.5491C24.5007 27.3707 24.4236 27.2031 24.2969 27.0768C24.1608 26.976 23.9937 26.9258 23.8246 26.9351C23.756 26.9493 23.6853 26.9493 23.6167 26.9351C23.5506 26.9351 23.5412 26.7933 23.5412 26.6327C23.5487 26.4067 23.475 26.1855 23.3333 26.0092C23.254 25.9346 23.1604 25.8768 23.0581 25.8394C22.9558 25.8021 22.8469 25.7859 22.7382 25.792C22.6059 25.792 22.4736 25.792 22.4453 25.6975C22.417 25.603 22.4453 25.5369 22.4453 25.3763C22.4859 25.2566 22.5144 25.1332 22.5303 25.0079C22.5245 24.7414 22.4497 24.481 22.313 24.2521C22.1808 24.0159 22.1052 23.8553 22.1619 23.7042C22.197 23.6376 22.2382 23.5744 22.2847 23.5153C22.3909 23.3972 22.4657 23.2542 22.502 23.0996C22.5168 22.9229 22.4909 22.7452 22.4264 22.58C22.3902 22.4931 22.371 22.4001 22.3697 22.306C22.3697 22.2305 22.502 22.1738 22.6059 22.1077C22.7201 22.0639 22.821 21.9912 22.8988 21.8969C22.9766 21.8025 23.0287 21.6896 23.0499 21.5692C23.0586 21.4621 23.0391 21.3546 22.9932 21.2574C22.9365 21.0779 22.946 20.8607 23.0877 20.7851C23.2294 20.7095 23.2766 20.7851 23.4089 20.7851C23.5226 20.8089 23.6403 20.8069 23.7531 20.7791C23.8659 20.7513 23.9711 20.6984 24.0607 20.6245C24.2123 20.4634 24.2968 20.2505 24.2969 20.0293C24.2871 19.9477 24.2871 19.8653 24.2969 19.7837C24.2969 19.6042 24.552 19.5003 24.7598 19.5286C24.8754 19.5486 24.9851 19.5936 25.0814 19.6605C25.1777 19.7274 25.2582 19.8146 25.3172 19.916C25.3351 19.9415 25.3579 19.9632 25.3842 19.9799C25.4106 19.9966 25.4399 20.0079 25.4707 20.0132C25.5014 20.0185 25.5329 20.0176 25.5633 20.0106C25.5937 20.0037 25.6224 19.9908 25.6478 19.9726V19.9254C25.6922 19.9279 25.7365 19.9188 25.7763 19.8989C25.816 19.879 25.8499 19.8491 25.8745 19.812C26.0211 19.5379 26.2683 19.3313 26.5642 19.2358C26.5982 19.2265 26.6341 19.2265 26.6681 19.2358L26.7248 19.3114C26.7772 19.4044 26.8524 19.4826 26.9433 19.5388C27.0341 19.5949 27.1377 19.6272 27.2444 19.6326C27.405 19.6326 27.5372 19.5003 27.7639 19.2925L27.9245 19.1602C27.9245 19.1602 28.0662 19.2263 28.1324 19.2925C28.2684 19.4517 28.3856 19.6261 28.4819 19.812C28.5291 19.9077 28.6008 19.9892 28.6897 20.0482C28.9952 20.157 29.3289 20.157 29.6344 20.0482H29.7195C29.7288 20.1172 29.7288 20.1871 29.7195 20.256C29.7275 20.4335 29.7625 20.6087 29.8234 20.7756C29.8234 20.7756 29.9651 20.9173 30.2107 21.0024ZM30.3052 30.2415C30.2733 30.2241 30.2376 30.215 30.2013 30.215C30.165 30.215 30.1292 30.2241 30.0973 30.2415C30.0595 30.2524 30.0247 30.2717 29.9952 30.2978C29.9658 30.324 29.9426 30.3564 29.9273 30.3926C29.795 30.7894 29.6628 31.2051 29.5022 31.6018L28.5103 28.4277C28.5697 28.4178 28.6303 28.4178 28.6897 28.4277C28.8344 28.4793 28.9902 28.4916 29.1413 28.4634C29.2923 28.4352 29.4331 28.3674 29.5494 28.2671C29.6353 28.168 29.6997 28.0522 29.7384 27.927C29.7559 27.8608 29.7882 27.7994 29.8328 27.7475C29.8641 27.7177 29.9036 27.698 29.9462 27.6908C30.4469 28.7772 30.9476 29.8919 31.4388 30.9783C31.0267 30.7899 30.6447 30.5416 30.3052 30.2415Z"/>
</mask>
<path d="M30.4374 27.6247C30.5422 27.6249 30.6453 27.5991 30.7377 27.5497C30.83 27.5002 30.9086 27.4286 30.9665 27.3413C31.0533 27.1998 31.093 27.0344 31.0798 26.8689C31.0769 26.7876 31.093 26.7067 31.1271 26.6327C31.1738 26.5909 31.2284 26.5588 31.2877 26.5383C31.416 26.4753 31.5313 26.3888 31.6277 26.2832C31.6849 26.1739 31.7147 26.0523 31.7147 25.9289C31.7147 25.8056 31.6849 25.684 31.6277 25.5747C31.6128 25.4713 31.6128 25.3663 31.6277 25.2629C31.6759 25.1284 31.7571 25.0082 31.8639 24.9134C32.0434 24.7056 32.289 24.4411 32.1473 24.0821C32.1 23.9918 32.0395 23.909 31.9678 23.8364L31.8923 23.742C31.8356 23.6381 31.8923 23.4491 31.9584 23.2602C32.0174 23.1701 32.0573 23.0688 32.0755 22.9627C32.0937 22.8565 32.0898 22.7478 32.0641 22.6432C32.0384 22.5386 31.9914 22.4404 31.9261 22.3548C31.8608 22.2691 31.7785 22.1979 31.6844 22.1454L31.5711 22.0604C31.4684 21.9043 31.4249 21.7167 31.4483 21.5314C31.4689 21.3613 31.4428 21.1888 31.3729 21.0324C31.303 20.876 31.1919 20.7415 31.0515 20.6434C30.9184 20.5828 30.7722 20.5568 30.6264 20.5678H30.3996C30.343 20.5678 30.3335 20.3127 30.3335 20.2088C30.3335 20.1049 30.3335 19.7648 30.1351 19.6514C30.0937 19.6169 30.0449 19.5922 29.9926 19.5791C29.9403 19.5661 29.8857 19.5649 29.8328 19.5759C29.7826 19.5812 29.7319 19.5812 29.6817 19.5759C29.4575 19.6241 29.2256 19.6241 29.0015 19.5759C28.9836 19.552 28.9678 19.5268 28.9543 19.5003C28.832 19.2903 28.6963 19.0883 28.548 18.8957C28.1891 18.5273 27.9056 18.6028 27.7734 18.6879C27.69 18.7448 27.6111 18.808 27.5372 18.8768C27.4667 18.9585 27.3839 19.0286 27.2916 19.0846C27.2429 19.0454 27.1985 19.0011 27.1593 18.9524C27.1491 18.9404 27.1396 18.9278 27.131 18.9146C27.0686 18.8456 26.9906 18.7924 26.9035 18.7596C26.8164 18.7267 26.7228 18.7151 26.6303 18.7256C26.4326 18.7785 26.2473 18.87 26.0852 18.9948C25.923 19.1197 25.7872 19.2754 25.6856 19.4531C25.4944 19.2347 25.2345 19.0881 24.9487 19.0374C24.756 19.0181 24.5621 19.0585 24.3931 19.1531C24.2241 19.2478 24.0883 19.392 24.0041 19.5664C23.97 19.6836 23.9478 19.8038 23.9379 19.9254C23.9379 20.0671 23.9379 20.171 23.8435 20.2183C23.738 20.2443 23.6277 20.2443 23.5223 20.2183C23.3331 20.1974 23.1417 20.2234 22.9649 20.2938C22.8001 20.399 22.6781 20.5595 22.621 20.7465C22.5638 20.9335 22.5752 21.1348 22.6531 21.3141V21.3613C22.6611 21.4051 22.6611 21.4499 22.6531 21.4936C22.6531 21.5503 22.5398 21.607 22.4359 21.6825C22.245 21.7647 22.0929 21.9168 22.0107 22.1077C21.9335 22.2985 21.9335 22.5119 22.0107 22.7028C22.0563 22.7902 22.079 22.8877 22.0769 22.9862C22.042 23.061 21.9976 23.1308 21.9446 23.1941C21.8625 23.2834 21.7955 23.3855 21.7462 23.4964C21.6986 23.6567 21.6901 23.8261 21.7213 23.9905C21.7525 24.1548 21.8226 24.3093 21.9257 24.4411C22.0211 24.593 22.0824 24.7638 22.1052 24.9417C22.1 25.0303 22.0775 25.1169 22.0391 25.1968C21.9834 25.3083 21.9544 25.4312 21.9544 25.5558C21.9544 25.6804 21.9834 25.8033 22.0391 25.9148C22.1123 26.009 22.2073 26.084 22.3159 26.1333C22.4245 26.1827 22.5435 26.2049 22.6626 26.1982C22.7948 26.1982 22.9082 26.1982 22.9649 26.2927C23.0216 26.3871 23.031 26.4816 23.0405 26.6233C23.0351 26.8461 23.1088 27.0636 23.2483 27.2374L21.4628 31.2145C21.4438 31.251 21.4338 31.2915 21.4338 31.3326C21.4338 31.3737 21.4438 31.4142 21.4628 31.4507C21.4843 31.4871 21.5174 31.5153 21.5568 31.5308C21.5962 31.5462 21.6396 31.5479 21.6801 31.5357C22.2125 31.4491 22.7306 31.2902 23.22 31.0634C23.5115 31.6091 23.7095 32.1999 23.8057 32.8111C23.818 32.8594 23.8443 32.9031 23.8812 32.9367C23.9182 32.9703 23.9642 32.9923 24.0135 33C24.0617 32.9988 24.1086 32.984 24.1487 32.9572C24.1889 32.9305 24.2206 32.8929 24.2402 32.8488L25.6951 28.9284C25.6951 28.9284 25.6951 28.9284 25.6951 28.8811H25.8084C25.9877 28.8632 26.1582 28.7944 26.2997 28.6827C26.378 28.6168 26.4676 28.5656 26.5642 28.5316C26.7009 28.5354 26.8343 28.5744 26.9515 28.6449C27.0623 28.724 27.1899 28.7763 27.3244 28.7976C27.4588 28.8189 27.5963 28.8087 27.7262 28.7678C27.8483 28.7119 27.9528 28.6237 28.0285 28.5127L29.181 32.2915C29.1915 32.3365 29.2167 32.3767 29.2526 32.4058C29.2885 32.4349 29.3332 32.4512 29.3794 32.4521C29.4228 32.4513 29.4652 32.4385 29.5019 32.4152C29.5386 32.3919 29.5681 32.3589 29.5872 32.3198C29.8045 31.838 30.0029 31.3184 30.1729 30.8178C30.6369 31.1741 31.1619 31.443 31.7222 31.6113C31.7633 31.6283 31.8089 31.6311 31.8517 31.6191C31.8946 31.6071 31.9321 31.5811 31.9584 31.5452C31.9884 31.5108 32.0085 31.4689 32.0169 31.4241C32.0252 31.3792 32.0213 31.333 32.0056 31.2901C31.5427 30.062 30.9948 28.8339 30.4374 27.6247ZM25.3077 28.7583L24.1174 31.9608C23.9846 31.4994 23.7908 31.0578 23.5412 30.6477C23.5133 30.5979 23.4669 30.5611 23.4121 30.5452C23.3573 30.5293 23.2985 30.5356 23.2483 30.5627C22.8738 30.7528 22.4772 30.8956 22.0674 30.9878L23.6734 27.4452H23.7584C23.827 27.4309 23.8977 27.4309 23.9663 27.4452C24.0013 27.5063 24.0238 27.5737 24.0324 27.6436C24.0503 27.8037 24.1088 27.9565 24.2024 28.0876C24.2971 28.1728 24.4111 28.2337 24.5345 28.2649C24.658 28.2962 24.7872 28.2969 24.911 28.2671C24.9504 28.2416 24.9954 28.226 25.0421 28.2216C25.0889 28.2171 25.136 28.224 25.1795 28.2416C25.2231 28.2592 25.2617 28.287 25.2923 28.3227C25.3228 28.3584 25.3443 28.4008 25.355 28.4466C25.355 28.4466 25.4022 28.5316 25.4494 28.5883C25.4142 28.6035 25.383 28.6269 25.3583 28.6564C25.3337 28.686 25.3164 28.7209 25.3077 28.7583ZM30.2107 21.0024C30.3329 21.0195 30.4569 21.0195 30.5791 21.0024C30.657 20.9861 30.7374 20.9861 30.8153 21.0024C30.9192 21.0496 30.9476 21.2007 30.9665 21.4936C30.942 21.7858 31.0298 22.0763 31.2121 22.306C31.2723 22.3704 31.3425 22.4246 31.4199 22.4666L31.5522 22.5706C31.6277 22.6556 31.5522 22.8067 31.5522 23.0429C31.4826 23.1772 31.4463 23.3262 31.4463 23.4775C31.4463 23.6287 31.4826 23.7777 31.5522 23.912C31.5953 23.9776 31.6461 24.0378 31.7033 24.0915C31.7033 24.1387 31.7789 24.1671 31.7883 24.1954C31.7978 24.2238 31.7883 24.356 31.5994 24.5355C31.4267 24.6858 31.3074 24.888 31.2593 25.1118C31.2379 25.2839 31.2573 25.4587 31.316 25.6219C31.3632 25.792 31.3916 25.8959 31.316 25.9526C31.2701 25.9978 31.2155 26.0332 31.1554 26.0565C31.0308 26.108 30.9205 26.189 30.8342 26.2927C30.7406 26.4354 30.6943 26.6039 30.7019 26.7745C30.706 26.8559 30.6898 26.937 30.6547 27.0106C30.6075 27.0862 30.4752 27.0862 30.2674 27.1051C30.1407 27.0917 30.0127 27.104 29.8909 27.1414C29.7692 27.1787 29.6562 27.2403 29.5589 27.3224C29.473 27.4214 29.4086 27.5372 29.3699 27.6625C29.3512 27.7264 29.3225 27.787 29.2849 27.842C29.2093 27.9175 29.0582 27.8986 28.822 27.842C28.5608 27.7633 28.2792 27.7904 28.0379 27.9175C27.9353 27.9704 27.8451 28.0444 27.7734 28.1348C27.7388 28.1908 27.6899 28.2364 27.6317 28.2671C27.5372 28.3143 27.4239 28.2671 27.2444 28.1632C27.0465 28.0246 26.8031 27.9672 26.5642 28.0026C26.41 28.0427 26.2654 28.1134 26.1391 28.2104C26.0351 28.286 25.9312 28.3615 25.884 28.3238C25.8368 28.286 25.8273 28.2387 25.799 28.182C25.7536 28.0722 25.6823 27.975 25.5911 27.8986C25.4543 27.7992 25.2878 27.7493 25.1188 27.7569H24.911C24.7315 27.7569 24.6181 27.7569 24.5709 27.7569C24.5389 27.6919 24.5196 27.6214 24.5142 27.5491C24.5007 27.3707 24.4236 27.2031 24.2969 27.0768C24.1608 26.976 23.9937 26.9258 23.8246 26.9351C23.756 26.9493 23.6853 26.9493 23.6167 26.9351C23.5506 26.9351 23.5412 26.7933 23.5412 26.6327C23.5487 26.4067 23.475 26.1855 23.3333 26.0092C23.254 25.9346 23.1604 25.8768 23.0581 25.8394C22.9558 25.8021 22.8469 25.7859 22.7382 25.792C22.6059 25.792 22.4736 25.792 22.4453 25.6975C22.417 25.603 22.4453 25.5369 22.4453 25.3763C22.4859 25.2566 22.5144 25.1332 22.5303 25.0079C22.5245 24.7414 22.4497 24.481 22.313 24.2521C22.1808 24.0159 22.1052 23.8553 22.1619 23.7042C22.197 23.6376 22.2382 23.5744 22.2847 23.5153C22.3909 23.3972 22.4657 23.2542 22.502 23.0996C22.5168 22.9229 22.4909 22.7452 22.4264 22.58C22.3902 22.4931 22.371 22.4001 22.3697 22.306C22.3697 22.2305 22.502 22.1738 22.6059 22.1077C22.7201 22.0639 22.821 21.9912 22.8988 21.8969C22.9766 21.8025 23.0287 21.6896 23.0499 21.5692C23.0586 21.4621 23.0391 21.3546 22.9932 21.2574C22.9365 21.0779 22.946 20.8607 23.0877 20.7851C23.2294 20.7095 23.2766 20.7851 23.4089 20.7851C23.5226 20.8089 23.6403 20.8069 23.7531 20.7791C23.8659 20.7513 23.9711 20.6984 24.0607 20.6245C24.2123 20.4634 24.2968 20.2505 24.2969 20.0293C24.2871 19.9477 24.2871 19.8653 24.2969 19.7837C24.2969 19.6042 24.552 19.5003 24.7598 19.5286C24.8754 19.5486 24.9851 19.5936 25.0814 19.6605C25.1777 19.7274 25.2582 19.8146 25.3172 19.916C25.3351 19.9415 25.3579 19.9632 25.3842 19.9799C25.4106 19.9966 25.4399 20.0079 25.4707 20.0132C25.5014 20.0185 25.5329 20.0176 25.5633 20.0106C25.5937 20.0037 25.6224 19.9908 25.6478 19.9726V19.9254C25.6922 19.9279 25.7365 19.9188 25.7763 19.8989C25.816 19.879 25.8499 19.8491 25.8745 19.812C26.0211 19.5379 26.2683 19.3313 26.5642 19.2358C26.5982 19.2265 26.6341 19.2265 26.6681 19.2358L26.7248 19.3114C26.7772 19.4044 26.8524 19.4826 26.9433 19.5388C27.0341 19.5949 27.1377 19.6272 27.2444 19.6326C27.405 19.6326 27.5372 19.5003 27.7639 19.2925L27.9245 19.1602C27.9245 19.1602 28.0662 19.2263 28.1324 19.2925C28.2684 19.4517 28.3856 19.6261 28.4819 19.812C28.5291 19.9077 28.6008 19.9892 28.6897 20.0482C28.9952 20.157 29.3289 20.157 29.6344 20.0482H29.7195C29.7288 20.1172 29.7288 20.1871 29.7195 20.256C29.7275 20.4335 29.7625 20.6087 29.8234 20.7756C29.8234 20.7756 29.9651 20.9173 30.2107 21.0024ZM30.3052 30.2415C30.2733 30.2241 30.2376 30.215 30.2013 30.215C30.165 30.215 30.1292 30.2241 30.0973 30.2415C30.0595 30.2524 30.0247 30.2717 29.9952 30.2978C29.9658 30.324 29.9426 30.3564 29.9273 30.3926C29.795 30.7894 29.6628 31.2051 29.5022 31.6018L28.5103 28.4277C28.5697 28.4178 28.6303 28.4178 28.6897 28.4277C28.8344 28.4793 28.9902 28.4916 29.1413 28.4634C29.2923 28.4352 29.4331 28.3674 29.5494 28.2671C29.6353 28.168 29.6997 28.0522 29.7384 27.927C29.7559 27.8608 29.7882 27.7994 29.8328 27.7475C29.8641 27.7177 29.9036 27.698 29.9462 27.6908C30.4469 28.7772 30.9476 29.8919 31.4388 30.9783C31.0267 30.7899 30.6447 30.5416 30.3052 30.2415Z" fill="white"/>
<path d="M30.4374 27.6247C30.5422 27.6249 30.6453 27.5991 30.7377 27.5497C30.83 27.5002 30.9086 27.4286 30.9665 27.3413C31.0533 27.1998 31.093 27.0344 31.0798 26.8689C31.0769 26.7876 31.093 26.7067 31.1271 26.6327C31.1738 26.5909 31.2284 26.5588 31.2877 26.5383C31.416 26.4753 31.5313 26.3888 31.6277 26.2832C31.6849 26.1739 31.7147 26.0523 31.7147 25.9289C31.7147 25.8056 31.6849 25.684 31.6277 25.5747C31.6128 25.4713 31.6128 25.3663 31.6277 25.2629C31.6759 25.1284 31.7571 25.0082 31.8639 24.9134C32.0434 24.7056 32.289 24.4411 32.1473 24.0821C32.1 23.9918 32.0395 23.909 31.9678 23.8364L31.8923 23.742C31.8356 23.6381 31.8923 23.4491 31.9584 23.2602C32.0174 23.1701 32.0573 23.0688 32.0755 22.9627C32.0937 22.8565 32.0898 22.7478 32.0641 22.6432C32.0384 22.5386 31.9914 22.4404 31.9261 22.3548C31.8608 22.2691 31.7785 22.1979 31.6844 22.1454L31.5711 22.0604C31.4684 21.9043 31.4249 21.7167 31.4483 21.5314C31.4689 21.3613 31.4428 21.1888 31.3729 21.0324C31.303 20.876 31.1919 20.7415 31.0515 20.6434C30.9184 20.5828 30.7722 20.5568 30.6264 20.5678H30.3996C30.343 20.5678 30.3335 20.3127 30.3335 20.2088C30.3335 20.1049 30.3335 19.7648 30.1351 19.6514C30.0937 19.6169 30.0449 19.5922 29.9926 19.5791C29.9403 19.5661 29.8857 19.5649 29.8328 19.5759C29.7826 19.5812 29.7319 19.5812 29.6817 19.5759C29.4575 19.6241 29.2256 19.6241 29.0015 19.5759C28.9836 19.552 28.9678 19.5268 28.9543 19.5003C28.832 19.2903 28.6963 19.0883 28.548 18.8957C28.1891 18.5273 27.9056 18.6028 27.7734 18.6879C27.69 18.7448 27.6111 18.808 27.5372 18.8768C27.4667 18.9585 27.3839 19.0286 27.2916 19.0846C27.2429 19.0454 27.1985 19.0011 27.1593 18.9524C27.1491 18.9404 27.1396 18.9278 27.131 18.9146C27.0686 18.8456 26.9906 18.7924 26.9035 18.7596C26.8164 18.7267 26.7228 18.7151 26.6303 18.7256C26.4326 18.7785 26.2473 18.87 26.0852 18.9948C25.923 19.1197 25.7872 19.2754 25.6856 19.4531C25.4944 19.2347 25.2345 19.0881 24.9487 19.0374C24.756 19.0181 24.5621 19.0585 24.3931 19.1531C24.2241 19.2478 24.0883 19.392 24.0041 19.5664C23.97 19.6836 23.9478 19.8038 23.9379 19.9254C23.9379 20.0671 23.9379 20.171 23.8435 20.2183C23.738 20.2443 23.6277 20.2443 23.5223 20.2183C23.3331 20.1974 23.1417 20.2234 22.9649 20.2938C22.8001 20.399 22.6781 20.5595 22.621 20.7465C22.5638 20.9335 22.5752 21.1348 22.6531 21.3141V21.3613C22.6611 21.4051 22.6611 21.4499 22.6531 21.4936C22.6531 21.5503 22.5398 21.607 22.4359 21.6825C22.245 21.7647 22.0929 21.9168 22.0107 22.1077C21.9335 22.2985 21.9335 22.5119 22.0107 22.7028C22.0563 22.7902 22.079 22.8877 22.0769 22.9862C22.042 23.061 21.9976 23.1308 21.9446 23.1941C21.8625 23.2834 21.7955 23.3855 21.7462 23.4964C21.6986 23.6567 21.6901 23.8261 21.7213 23.9905C21.7525 24.1548 21.8226 24.3093 21.9257 24.4411C22.0211 24.593 22.0824 24.7638 22.1052 24.9417C22.1 25.0303 22.0775 25.1169 22.0391 25.1968C21.9834 25.3083 21.9544 25.4312 21.9544 25.5558C21.9544 25.6804 21.9834 25.8033 22.0391 25.9148C22.1123 26.009 22.2073 26.084 22.3159 26.1333C22.4245 26.1827 22.5435 26.2049 22.6626 26.1982C22.7948 26.1982 22.9082 26.1982 22.9649 26.2927C23.0216 26.3871 23.031 26.4816 23.0405 26.6233C23.0351 26.8461 23.1088 27.0636 23.2483 27.2374L21.4628 31.2145C21.4438 31.251 21.4338 31.2915 21.4338 31.3326C21.4338 31.3737 21.4438 31.4142 21.4628 31.4507C21.4843 31.4871 21.5174 31.5153 21.5568 31.5308C21.5962 31.5462 21.6396 31.5479 21.6801 31.5357C22.2125 31.4491 22.7306 31.2902 23.22 31.0634C23.5115 31.6091 23.7095 32.1999 23.8057 32.8111C23.818 32.8594 23.8443 32.9031 23.8812 32.9367C23.9182 32.9703 23.9642 32.9923 24.0135 33C24.0617 32.9988 24.1086 32.984 24.1487 32.9572C24.1889 32.9305 24.2206 32.8929 24.2402 32.8488L25.6951 28.9284C25.6951 28.9284 25.6951 28.9284 25.6951 28.8811H25.8084C25.9877 28.8632 26.1582 28.7944 26.2997 28.6827C26.378 28.6168 26.4676 28.5656 26.5642 28.5316C26.7009 28.5354 26.8343 28.5744 26.9515 28.6449C27.0623 28.724 27.1899 28.7763 27.3244 28.7976C27.4588 28.8189 27.5963 28.8087 27.7262 28.7678C27.8483 28.7119 27.9528 28.6237 28.0285 28.5127L29.181 32.2915C29.1915 32.3365 29.2167 32.3767 29.2526 32.4058C29.2885 32.4349 29.3332 32.4512 29.3794 32.4521C29.4228 32.4513 29.4652 32.4385 29.5019 32.4152C29.5386 32.3919 29.5681 32.3589 29.5872 32.3198C29.8045 31.838 30.0029 31.3184 30.1729 30.8178C30.6369 31.1741 31.1619 31.443 31.7222 31.6113C31.7633 31.6283 31.8089 31.6311 31.8517 31.6191C31.8946 31.6071 31.9321 31.5811 31.9584 31.5452C31.9884 31.5108 32.0085 31.4689 32.0169 31.4241C32.0252 31.3792 32.0213 31.333 32.0056 31.2901C31.5427 30.062 30.9948 28.8339 30.4374 27.6247ZM25.3077 28.7583L24.1174 31.9608C23.9846 31.4994 23.7908 31.0578 23.5412 30.6477C23.5133 30.5979 23.4669 30.5611 23.4121 30.5452C23.3573 30.5293 23.2985 30.5356 23.2483 30.5627C22.8738 30.7528 22.4772 30.8956 22.0674 30.9878L23.6734 27.4452H23.7584C23.827 27.4309 23.8977 27.4309 23.9663 27.4452C24.0013 27.5063 24.0238 27.5737 24.0324 27.6436C24.0503 27.8037 24.1088 27.9565 24.2024 28.0876C24.2971 28.1728 24.4111 28.2337 24.5345 28.2649C24.658 28.2962 24.7872 28.2969 24.911 28.2671C24.9504 28.2416 24.9954 28.226 25.0421 28.2216C25.0889 28.2171 25.136 28.224 25.1795 28.2416C25.2231 28.2592 25.2617 28.287 25.2923 28.3227C25.3228 28.3584 25.3443 28.4008 25.355 28.4466C25.355 28.4466 25.4022 28.5316 25.4494 28.5883C25.4142 28.6035 25.383 28.6269 25.3583 28.6564C25.3337 28.686 25.3164 28.7209 25.3077 28.7583ZM30.2107 21.0024C30.3329 21.0195 30.4569 21.0195 30.5791 21.0024C30.657 20.9861 30.7374 20.9861 30.8153 21.0024C30.9192 21.0496 30.9476 21.2007 30.9665 21.4936C30.942 21.7858 31.0298 22.0763 31.2121 22.306C31.2723 22.3704 31.3425 22.4246 31.4199 22.4666L31.5522 22.5706C31.6277 22.6556 31.5522 22.8067 31.5522 23.0429C31.4826 23.1772 31.4463 23.3262 31.4463 23.4775C31.4463 23.6287 31.4826 23.7777 31.5522 23.912C31.5953 23.9776 31.6461 24.0378 31.7033 24.0915C31.7033 24.1387 31.7789 24.1671 31.7883 24.1954C31.7978 24.2238 31.7883 24.356 31.5994 24.5355C31.4267 24.6858 31.3074 24.888 31.2593 25.1118C31.2379 25.2839 31.2573 25.4587 31.316 25.6219C31.3632 25.792 31.3916 25.8959 31.316 25.9526C31.2701 25.9978 31.2155 26.0332 31.1554 26.0565C31.0308 26.108 30.9205 26.189 30.8342 26.2927C30.7406 26.4354 30.6943 26.6039 30.7019 26.7745C30.706 26.8559 30.6898 26.937 30.6547 27.0106C30.6075 27.0862 30.4752 27.0862 30.2674 27.1051C30.1407 27.0917 30.0127 27.104 29.8909 27.1414C29.7692 27.1787 29.6562 27.2403 29.5589 27.3224C29.473 27.4214 29.4086 27.5372 29.3699 27.6625C29.3512 27.7264 29.3225 27.787 29.2849 27.842C29.2093 27.9175 29.0582 27.8986 28.822 27.842C28.5608 27.7633 28.2792 27.7904 28.0379 27.9175C27.9353 27.9704 27.8451 28.0444 27.7734 28.1348C27.7388 28.1908 27.6899 28.2364 27.6317 28.2671C27.5372 28.3143 27.4239 28.2671 27.2444 28.1632C27.0465 28.0246 26.8031 27.9672 26.5642 28.0026C26.41 28.0427 26.2654 28.1134 26.1391 28.2104C26.0351 28.286 25.9312 28.3615 25.884 28.3238C25.8368 28.286 25.8273 28.2387 25.799 28.182C25.7536 28.0722 25.6823 27.975 25.5911 27.8986C25.4543 27.7992 25.2878 27.7493 25.1188 27.7569H24.911C24.7315 27.7569 24.6181 27.7569 24.5709 27.7569C24.5389 27.6919 24.5196 27.6214 24.5142 27.5491C24.5007 27.3707 24.4236 27.2031 24.2969 27.0768C24.1608 26.976 23.9937 26.9258 23.8246 26.9351C23.756 26.9493 23.6853 26.9493 23.6167 26.9351C23.5506 26.9351 23.5412 26.7933 23.5412 26.6327C23.5487 26.4067 23.475 26.1855 23.3333 26.0092C23.254 25.9346 23.1604 25.8768 23.0581 25.8394C22.9558 25.8021 22.8469 25.7859 22.7382 25.792C22.6059 25.792 22.4736 25.792 22.4453 25.6975C22.417 25.603 22.4453 25.5369 22.4453 25.3763C22.4859 25.2566 22.5144 25.1332 22.5303 25.0079C22.5245 24.7414 22.4497 24.481 22.313 24.2521C22.1808 24.0159 22.1052 23.8553 22.1619 23.7042C22.197 23.6376 22.2382 23.5744 22.2847 23.5153C22.3909 23.3972 22.4657 23.2542 22.502 23.0996C22.5168 22.9229 22.4909 22.7452 22.4264 22.58C22.3902 22.4931 22.371 22.4001 22.3697 22.306C22.3697 22.2305 22.502 22.1738 22.6059 22.1077C22.7201 22.0639 22.821 21.9912 22.8988 21.8969C22.9766 21.8025 23.0287 21.6896 23.0499 21.5692C23.0586 21.4621 23.0391 21.3546 22.9932 21.2574C22.9365 21.0779 22.946 20.8607 23.0877 20.7851C23.2294 20.7095 23.2766 20.7851 23.4089 20.7851C23.5226 20.8089 23.6403 20.8069 23.7531 20.7791C23.8659 20.7513 23.9711 20.6984 24.0607 20.6245C24.2123 20.4634 24.2968 20.2505 24.2969 20.0293C24.2871 19.9477 24.2871 19.8653 24.2969 19.7837C24.2969 19.6042 24.552 19.5003 24.7598 19.5286C24.8754 19.5486 24.9851 19.5936 25.0814 19.6605C25.1777 19.7274 25.2582 19.8146 25.3172 19.916C25.3351 19.9415 25.3579 19.9632 25.3842 19.9799C25.4106 19.9966 25.4399 20.0079 25.4707 20.0132C25.5014 20.0185 25.5329 20.0176 25.5633 20.0106C25.5937 20.0037 25.6224 19.9908 25.6478 19.9726V19.9254C25.6922 19.9279 25.7365 19.9188 25.7763 19.8989C25.816 19.879 25.8499 19.8491 25.8745 19.812C26.0211 19.5379 26.2683 19.3313 26.5642 19.2358C26.5982 19.2265 26.6341 19.2265 26.6681 19.2358L26.7248 19.3114C26.7772 19.4044 26.8524 19.4826 26.9433 19.5388C27.0341 19.5949 27.1377 19.6272 27.2444 19.6326C27.405 19.6326 27.5372 19.5003 27.7639 19.2925L27.9245 19.1602C27.9245 19.1602 28.0662 19.2263 28.1324 19.2925C28.2684 19.4517 28.3856 19.6261 28.4819 19.812C28.5291 19.9077 28.6008 19.9892 28.6897 20.0482C28.9952 20.157 29.3289 20.157 29.6344 20.0482H29.7195C29.7288 20.1172 29.7288 20.1871 29.7195 20.256C29.7275 20.4335 29.7625 20.6087 29.8234 20.7756C29.8234 20.7756 29.9651 20.9173 30.2107 21.0024ZM30.3052 30.2415C30.2733 30.2241 30.2376 30.215 30.2013 30.215C30.165 30.215 30.1292 30.2241 30.0973 30.2415C30.0595 30.2524 30.0247 30.2717 29.9952 30.2978C29.9658 30.324 29.9426 30.3564 29.9273 30.3926C29.795 30.7894 29.6628 31.2051 29.5022 31.6018L28.5103 28.4277C28.5697 28.4178 28.6303 28.4178 28.6897 28.4277C28.8344 28.4793 28.9902 28.4916 29.1413 28.4634C29.2923 28.4352 29.4331 28.3674 29.5494 28.2671C29.6353 28.168 29.6997 28.0522 29.7384 27.927C29.7559 27.8608 29.7882 27.7994 29.8328 27.7475C29.8641 27.7177 29.9036 27.698 29.9462 27.6908C30.4469 28.7772 30.9476 29.8919 31.4388 30.9783C31.0267 30.7899 30.6447 30.5416 30.3052 30.2415Z" stroke="white" stroke-width="0.4" mask="url(#path-2-outside-1_22_999)"/>
<path d="M26.9927 20.6188C26.3325 20.7261 25.6889 20.9195 25.0785 21.1942C24.7708 21.3253 24.4871 21.5068 24.2391 21.7312L24.2389 21.731L24.234 21.7362C23.9755 22.0061 23.7596 22.3136 23.5935 22.6483C23.2651 23.2864 23.195 24.0265 23.3978 24.715L23.3977 24.715L23.3992 24.7193C23.6239 25.3719 24.0715 25.9243 24.6631 26.2796C25.1935 26.7372 25.8227 27.0658 26.5014 27.2398L26.5013 27.2401L26.5096 27.2415C27.2343 27.3638 27.9785 27.2937 28.6677 27.0383L28.6677 27.0383L28.6702 27.0373C29.3478 26.7653 29.8175 26.2082 30.1048 25.5597C30.3913 24.9129 30.4999 24.1682 30.4523 23.5027C30.4553 23.0974 30.3608 22.6974 30.1768 22.3363L30.1727 22.3281L30.1671 22.3208C29.9343 22.0171 29.6542 21.7528 29.3377 21.5379C28.7478 20.9928 27.9968 20.6539 27.1977 20.5723L27.1977 20.5718H27.1875C27.1136 20.5718 27.0482 20.5889 26.9927 20.6188ZM27.2395 21.432C27.2524 21.4302 27.2649 21.4279 27.2772 21.4251C27.7564 21.49 28.2079 21.6907 28.5777 22.0044L28.5774 22.0047L28.5846 22.0098C28.8074 22.1677 29.0219 22.3448 29.2288 22.5235L29.2288 22.5235L29.2312 22.5255C29.3351 22.6097 29.4201 22.7148 29.4804 22.8341C29.5408 22.9534 29.5753 23.0842 29.5816 23.2177L29.581 23.2177L29.5828 23.2288C29.6723 23.7862 29.6218 24.357 29.436 24.89L29.4355 24.8898L29.4331 24.8997C29.3137 25.4002 29.0178 25.8407 28.6 26.1407C28.1048 26.3883 27.5499 26.4916 26.9987 26.4388L26.9987 26.4387L26.995 26.4385C26.4722 26.4077 25.9693 26.2274 25.546 25.919L25.5461 25.9187L25.5393 25.9145C25.084 25.636 24.6902 25.2678 24.3818 24.8322C24.2559 24.5991 24.1783 24.3428 24.1538 24.0789C24.1292 23.8145 24.1583 23.5479 24.2394 23.2951C24.353 23.0266 24.5035 22.7753 24.6864 22.5483L24.6864 22.5483L24.6879 22.5464C24.8788 22.2975 25.1318 22.1031 25.4215 21.9828L25.4216 21.9829L25.427 21.9803C25.9976 21.7017 26.6093 21.5166 27.2386 21.4322L27.2386 21.4322L27.2395 21.432Z" fill="white" stroke="white" stroke-width="0.2"/>
<path d="M28.0528 17.1711L27.9829 17.2409C28.0018 16.8208 27.9926 16.3408 27.8716 15.9284C27.7976 15.676 27.6801 15.4431 27.4964 15.2644C27.3114 15.0844 27.0649 14.9652 26.7443 14.9324L26.7443 14.9323L26.74 14.9321C26.0102 14.8894 25.2787 14.8893 24.549 14.9319L22.2279 14.9319L22.2266 14.9319L12.781 15.0547L12.7803 15.0547L12.776 15.0547C12.5478 15.0547 12.2888 15.0547 12.0472 15.1052C11.8017 15.1566 11.565 15.2618 11.3899 15.4793C11.2993 15.592 11.2414 15.737 11.2038 15.8926C11.1661 16.0489 11.1473 16.2223 11.1389 16.3969C11.1268 16.6461 11.1358 16.9078 11.1435 17.1327C11.1465 17.2202 11.1493 17.3021 11.1506 17.3756C11.1506 18.1513 11.1718 18.9245 11.1931 19.696L11.1931 19.6967C11.2144 20.4692 11.2356 21.2401 11.2356 22.0132C11.2356 23.5629 11.2356 25.0722 11.1695 26.5906H11.1695L11.1695 26.5916C11.1439 27.3531 11.0784 28.1127 10.9733 28.8673C10.8844 29.1315 10.8761 29.4162 10.9497 29.6852C11.0241 29.9574 11.1787 30.2008 11.3935 30.3837L11.4064 30.3947L11.4222 30.4009C12.0087 30.6283 12.6487 30.6798 13.2639 30.5493C13.6413 30.549 14.0157 30.5301 14.3867 30.509C14.4417 30.5059 14.4966 30.5027 14.5514 30.4996C14.8707 30.4811 15.1874 30.4628 15.5042 30.4548L15.5049 30.4548C17.1668 30.4012 18.8302 30.4989 20.4745 30.7465C20.8342 30.8034 21.0863 30.5545 21.16 30.2869C21.1971 30.1522 21.1926 30.0035 21.1293 29.8754C21.0646 29.7444 20.9429 29.6446 20.7664 29.6054L20.7665 29.6051L20.7589 29.604C18.4101 29.268 16.0324 29.1822 13.6655 29.3479H12.8471H12.8384L12.8298 29.3494C12.6064 29.3886 12.3779 29.3896 12.1542 29.3524C12.1389 29.3416 12.1229 29.3227 12.108 29.2895C12.0896 29.2483 12.0761 29.1913 12.0688 29.1188C12.0541 28.9736 12.0662 28.7867 12.0925 28.5871C12.1289 28.3101 12.1893 28.0287 12.2349 27.8162C12.2556 27.7197 12.2732 27.6375 12.2842 27.5762L12.2846 27.5763L12.2854 27.568C12.407 26.2836 12.4576 24.9934 12.437 23.7034V23.6964V23.6887V23.6809V23.6732V23.6654V23.6577V23.6499V23.6422V23.6344V23.6267V23.6189V23.6112V23.6034V23.5957V23.5879V23.5802V23.5724V23.5647V23.5569V23.5492V23.5414V23.5337V23.5259V23.5181V23.5104V23.5026V23.4949V23.4871V23.4794V23.4716V23.4639V23.4561V23.4483V23.4406V23.4328V23.4251V23.4173V23.4096V23.4018V23.394V23.3863V23.3785V23.3708V23.363V23.3553V23.3475V23.3397V23.332V23.3242V23.3165V23.3087V23.3009V23.2932V23.2854V23.2777V23.2699V23.2621V23.2544V23.2466V23.2389V23.2311V23.2233V23.2156V23.2078V23.2001V23.1923V23.1845V23.1768V23.169V23.1612V23.1535V23.1457V23.138V23.1302V23.1224V23.1147V23.1069V23.0991V23.0914V23.0836V23.0759V23.0681V23.0603V23.0526V23.0448V23.037V23.0293V23.0215V23.0137V23.006V22.9982V22.9904V22.9827V22.9749V22.9671V22.9594V22.9516V22.9438V22.9361V22.9283V22.9205V22.9128V22.905V22.8972V22.8895V22.8817V22.8739V22.8662V22.8584V22.8506V22.8429V22.8351V22.8273V22.8196V22.8118V22.804V22.7963V22.7885V22.7807V22.7729V22.7652V22.7574V22.7496V22.7419V22.7341V22.7263V22.7186V22.7108V22.703V22.6952V22.6875V22.6797V22.6719V22.6642V22.6564V22.6486V22.6408V22.6331V22.6253V22.6175V22.6098V22.602V22.5942V22.5864V22.5787V22.5709V22.5631V22.5554V22.5476V22.5398V22.532V22.5243V22.5165V22.5087V22.501V22.4932V22.4854V22.4776V22.4699V22.4621V22.4543V22.4465V22.4388V22.431V22.4232V22.4154V22.4077V22.3999V22.3921V22.3844V22.3766V22.3688V22.361V22.3533V22.3455V22.3377V22.3299V22.3222V22.3144V22.3066V22.2988V22.2911V22.2833V22.2755V22.2677V22.26V22.2522V22.2444V22.2366V22.2289V22.2211V22.2133V22.2055V22.1978V22.19V22.1822V22.1744V22.1667V22.1589V22.1511V22.1433V22.1356V22.1278V22.12V22.1122V22.1044V22.0967V22.0889V22.0811V22.0733V22.0656V22.0578V22.05V22.0422V22.0345V22.0267V22.0189V22.0111V22.0034V21.9956V21.9878V21.98V21.9722V21.9645V21.9567V21.9489V21.9411V21.9334V21.9256V21.9178V21.91V21.9023V21.8945V21.8867V21.8789V21.8711V21.8634V21.8556V21.8478V21.84V21.8323V21.8245V21.8167V21.8089V21.8012V21.7934V21.7856V21.7778V21.77V21.7623V21.7545V21.7467V21.7389V21.7312V21.7234V21.7156V21.7078V21.7001V21.6923V21.6845V21.6767V21.6689V21.6612V21.6534V21.6456V21.6378V21.6301V21.6223V21.6145V21.6067V21.599V21.5912V21.5834V21.5756V21.5678V21.5601V21.5523V21.5445V21.5367V21.529V21.5212V21.5134V21.5056V21.4979V21.4901V21.4823V21.4745V21.4667V21.459V21.4512V21.4434V21.4356V21.4279V21.4201V21.4123V21.4045V21.3968V21.389V21.3812V21.3734V21.3656V21.3579V21.3501V21.3423V21.3345V21.3268V21.319V21.3112V21.3034V21.2957V21.2879V21.2801V21.2723V21.2646V21.2568V21.249V21.2412V21.2335V21.2257V21.2179V21.2101V21.2024V21.1946V21.1868V21.179V21.1713V21.1635V21.1557V21.1479V21.1402V21.1324V21.1246V21.1168V21.1091V21.1013V21.0935V21.0857V21.078V21.0702V21.0624V21.0546V21.0469V21.0391V21.0313V21.0235V21.0158V21.008V21.0002V20.9924V20.9847V20.9769V20.9691V20.9614V20.9536V20.9458V20.938V20.9303V20.9225V20.9147V20.9069V20.8992V20.8914V20.8836V20.8759V20.8681V20.8603V20.8525V20.8448V20.837V20.8292V20.8215V20.8137V20.8059V20.7981V20.7904V20.7826V20.7748V20.7671V20.7593V20.7515V20.7437V20.736V20.7282V20.7204V20.7127V20.7049V20.6971V20.6893V20.6816V20.6738V20.666V20.6583V20.6505V20.6427V20.635V20.6272V20.6194V20.6117V20.6039V20.5961V20.5884V20.5806V20.5728V20.565V20.5573V20.5495V20.5417V20.534V20.5262V20.5184V20.5107V20.5029V20.4951V20.4874V20.4796V20.4718V20.4641V20.4563V20.4485V20.4408V20.433V20.4252V20.4175V20.4097V20.402V20.3942V20.3864V20.3787V20.3709V20.3631V20.3554V20.3476V20.3398V20.3321V20.3243V20.3165V20.3088V20.301V20.2933V20.2855V20.2777V20.27V20.2622V20.2544V20.2467V20.2389V20.2312V20.2234V20.2156V20.2079V20.2001V20.1923V20.1846V20.1768V20.1691V20.1613V20.1535V20.1458V20.138V20.1303V20.1225V20.1147V20.107V20.0992V20.0915V20.0837V20.076V20.0682V20.0604V20.0527V20.0449V20.0372V20.0294V20.0216V20.0139V20.0061V19.9984V19.9906V19.9829V19.9751V19.9674V19.9596V19.9518V19.9441V19.9363V19.9286V19.9208V19.9131V19.9053V19.8976V19.8898V19.8821V19.8743V19.8665V19.8588V19.851V19.8433V19.8355V19.8278V19.82V19.8123V19.8045V19.7968V19.789V19.7813V19.7735V19.7658V19.758V19.7503V19.7425V19.7348V19.727V19.7253C12.437 19.1136 12.437 18.4973 12.3803 17.8334V17.8323V17.8305V17.8288V17.827V17.8252V17.8235V17.8217V17.8199V17.8181V17.8164V17.8146V17.8128V17.8111V17.8093V17.8075V17.8057V17.804V17.8022V17.8004V17.7987V17.7969V17.7951V17.7933V17.7916V17.7898V17.788V17.7863V17.7845V17.7827V17.7809V17.7792V17.7774V17.7756V17.7738V17.7721V17.7703V17.7685V17.7668V17.765V17.7632V17.7614V17.7597V17.7579V17.7561V17.7543V17.7526V17.7508V17.749V17.7473V17.7455V17.7437V17.7419V17.7402V17.7384V17.7366V17.7348V17.7331V17.7313V17.7295V17.7277V17.726V17.7242V17.7224V17.7206V17.7189V17.7171V17.7153V17.7135V17.7118V17.71V17.7082V17.7064V17.7047V17.7029V17.7011V17.6993V17.6976V17.6958V17.694V17.6922V17.6905V17.6887V17.6869V17.6851V17.6833V17.6816V17.6798V17.678V17.6762V17.6745V17.6727V17.6709V17.6691V17.6673V17.6656V17.6638V17.662V17.6602V17.6584V17.6567V17.6549V17.6531V17.6513V17.6495V17.6478V17.646V17.6442V17.6424V17.6406V17.6388V17.6371V17.6353V17.6335V17.6317V17.6299V17.6282V17.6264V17.6246V17.6228V17.621V17.6192V17.6175V17.6157V17.6139V17.6121V17.6103V17.6085V17.6067V17.605V17.6032V17.6014V17.5996V17.5978V17.596V17.5942V17.5925V17.5907V17.5889V17.5871V17.5853V17.5835V17.5817V17.5799V17.5781V17.5764V17.5746V17.5728V17.571V17.5692V17.5674V17.5656V17.5638V17.562V17.5602V17.5584V17.5567V17.5549V17.5531V17.5513V17.5495V17.5477V17.5459V17.5441V17.5423V17.5405V17.5387V17.5369V17.5351V17.5333V17.5315V17.5297V17.5279V17.5261V17.5243V17.5225V17.5208V17.519V17.5172V17.5154V17.5136V17.5118V17.51V17.5082V17.5064V17.5046V17.5028V17.501V17.4992V17.4973V17.4955V17.4937V17.4919V17.4901V17.4883V17.4865V17.4847V17.4829V17.4811V17.4793V17.4775V17.4757V17.4739V17.4721V17.4703V17.4685V17.4667V17.4649V17.463V17.4612V17.4594V17.4576V17.4558V17.454V17.4522V17.4504V17.4486V17.4468V17.4449V17.4431V17.4413V17.4395V17.4377V17.4359V17.4341V17.4323V17.4304V17.4286V17.4268V17.425V17.4232V17.4214V17.4195V17.4177V17.4159V17.4141V17.4123V17.4104V17.4086V17.4068V17.405V17.4032V17.4013V17.3995V17.3977V17.3959V17.3941V17.3922V17.3904V17.3886V17.3868V17.3849V17.3831V17.3813V17.3795V17.3776V17.3758V17.374V17.3721V17.3703V17.3685V17.3667V17.3648V17.363V17.3612V17.3593V17.3575V17.3557V17.3538V17.352V17.3502V17.3483V17.3465V17.3447V17.3428V17.341V17.3392V17.3373V17.3355V17.3336V17.3318V17.33V17.3281V17.3263V17.3245V17.3226V17.3208V17.3189V17.3171V17.3152V17.3134V17.3116V17.3097V17.3079V17.306V17.3042V17.3023V17.3005V17.2986V17.2968V17.2949V17.2931V17.2912V17.2894V17.2875V17.2857V17.2838V17.282V17.2801V17.2783V17.2764V17.2746V17.2727V17.2709V17.269V17.2672V17.2653V17.2634V17.2616V17.2597V17.2579V17.256V17.2542V17.2523V17.2504V17.2486V17.2467V17.2448V17.243V17.2411V17.2393V17.2374V17.2355V17.2337V17.2318V17.2299V17.2281V17.2262V17.2243V17.2225V17.2206V17.2187V17.2168V17.215V17.2131V17.2112V17.2094V17.2075V17.2056V17.2037V17.2019V17.2V17.1981V17.1962V17.1943V17.1925V17.1906V17.1887V17.1868V17.1849V17.1831V17.1812V17.1793V17.1774V17.1755V17.1736V17.1718V17.1699V17.168V17.1661V17.1642V17.1623V17.1604V17.1585V17.1567V17.1548V17.1529V17.151V17.1491V17.1472V17.1453V17.1434V17.1415V17.1396V17.1377V17.1358V17.1339V17.132V17.1301V17.1282V17.1263V17.1244V17.1225V17.1206V17.1187V17.1168V17.1149V17.113V17.1111V17.1092V17.1073V17.1054V17.1035V17.1015V17.0996V17.0977V17.0958V17.0939V17.092V17.0901V17.0882V17.0862V17.0843V17.0824V17.0805V17.0786V17.0767V17.0747V17.0728V17.0709V17.069V17.0671V17.0651V17.0632V17.0613V17.0594V17.0574V17.0555V17.0536V17.0517V17.0497V17.0478V17.0459V17.0439V17.042V17.0401V17.0381V17.0362V17.0343V17.0323V17.0304V17.0285V17.0265V17.0246V17.0227V17.0207V17.0188V17.0168V17.0149V17.0129V17.011V17.0091V17.0071V17.0052V17.0032V17.0013V16.9993V16.9974V16.9954V16.9935V16.9915V16.9896V16.9876V16.9857V16.9837V16.9818V16.9798V16.9778V16.9759V16.9739V16.972V16.97V16.968V16.9661V16.9641V16.9622V16.9602V16.9582V16.9563V16.9543V16.9523V16.9504V16.9484V16.9464V16.9445V16.9425V16.9405V16.9385V16.9366V16.9346V16.9326V16.9306V16.9287V16.9267V16.9247V16.9227V16.9207V16.9188V16.9168V16.9148V16.9128V16.9108V16.9088V16.9069V16.9049V16.9029V16.9009V16.8989V16.8969V16.8949V16.8929C12.3803 16.8058 12.3755 16.7126 12.3708 16.6221L12.3707 16.6193C12.3659 16.5268 12.3614 16.437 12.3614 16.3533C12.3614 16.2692 12.366 16.1957 12.3783 16.1357C12.3907 16.0749 12.409 16.0377 12.4287 16.0168C12.4408 16.0039 12.4736 15.9869 12.5439 15.98C12.6104 15.9735 12.692 15.9776 12.7793 15.9874C12.86 15.9964 12.9411 16.0097 13.0144 16.0217C13.0198 16.0226 13.0252 16.0235 13.0305 16.0243C13.1034 16.0362 13.177 16.0482 13.225 16.0482H14.1697H16.1441L20.1024 16.0482L20.1039 16.0482L24.525 15.9821L24.525 15.9824L24.5321 15.9817C25.2355 15.921 25.9429 15.9209 26.6463 15.9814C26.7227 15.9939 26.7683 16.0153 26.7971 16.0382C26.8254 16.0607 26.8448 16.0903 26.859 16.1325C26.8739 16.1768 26.882 16.2316 26.8884 16.3017C26.8905 16.3249 26.8925 16.3506 26.8946 16.3778C26.8984 16.4269 26.9025 16.481 26.9085 16.5341C26.9316 16.8238 26.9315 17.1149 26.9084 17.4046L26.9081 17.4045V17.4125C26.9081 17.5923 26.9795 17.7333 27.0911 17.8277C27.2006 17.9201 27.3428 17.9631 27.4809 17.9624C27.619 17.9617 27.7609 17.9173 27.8699 17.8249C27.981 17.7306 28.0528 17.5904 28.0528 17.4125V17.1711Z" fill="white" stroke="white" stroke-width="0.2"/>
<path d="M20.4046 19.3342V19.3341L20.4012 19.3343C18.1834 19.4098 15.9656 19.4098 13.7952 19.3343L13.7952 19.3342H13.7917C13.612 19.3342 13.4706 19.4056 13.3756 19.5169C13.2824 19.6261 13.2383 19.7682 13.2383 19.9066C13.2383 20.0449 13.2824 20.187 13.3756 20.2962C13.4702 20.4071 13.6108 20.4783 13.7895 20.4789C16.0109 20.5734 18.2324 20.5734 20.4068 20.4789C20.5873 20.4783 20.7296 20.4075 20.8256 20.2968C20.9202 20.1876 20.9651 20.0453 20.9651 19.9066C20.9651 19.7678 20.9202 19.6255 20.8256 19.5163C20.7292 19.4051 20.5861 19.3342 20.4046 19.3342Z" fill="white" stroke="white" stroke-width="0.2"/>
<path d="M13.7917 23.5963V23.5965L13.7963 23.5962L19.16 23.3507C19.3385 23.3501 19.4795 23.2789 19.5748 23.1684C19.6687 23.0594 19.7139 22.9174 19.7146 22.7789C19.7153 22.6404 19.6715 22.4979 19.5775 22.3885C19.4818 22.277 19.3392 22.206 19.1576 22.206V22.2059L19.153 22.2061L13.7893 22.4517C13.6107 22.4523 13.4701 22.5235 13.3756 22.6343C13.2824 22.7436 13.2383 22.8857 13.2383 23.024C13.2383 23.1623 13.2824 23.3044 13.3756 23.4137C13.4706 23.525 13.612 23.5963 13.7917 23.5963Z" fill="white" stroke="white" stroke-width="0.2"/>
<path d="M13.6783 26.3549V26.3549L13.6813 26.3548L19.348 26.1848C19.527 26.1844 19.6683 26.1132 19.7637 26.0025C19.8576 25.8935 19.9028 25.7515 19.9035 25.613C19.9042 25.4745 19.8603 25.332 19.7664 25.2226C19.6707 25.1111 19.5281 25.0401 19.3465 25.0401V25.0401L19.3435 25.0402L13.6767 25.2102C13.4977 25.2106 13.3569 25.2819 13.2621 25.3929C13.169 25.5021 13.1249 25.6442 13.1249 25.7825C13.1249 25.9208 13.169 26.063 13.2621 26.1722C13.3572 26.2835 13.4986 26.3549 13.6783 26.3549Z" fill="white" stroke="white" stroke-width="0.2"/>
</g>
<defs>
<clipPath id="clip0_22_999">
<rect width="42" height="42" fill="white"/>
</clipPath>
</defs>
</svg>
