<svg width="42" height="42" viewBox="0 0 42 42" fill="none" xmlns="http://www.w3.org/2000/svg">
<g clip-path="url(#clip0_22_1014)">
<path d="M42 24.5653C42 35.9848 31.1159 42 21.0293 42C10.9428 42 0 35.9848 0 24.5653C0 13.1457 10.9428 0 21.0293 0C31.1159 0 42 13.159 42 24.5653Z" fill="#7767E4"/>
<path d="M26.7076 29.0401L26.6966 29.0376H26.6854H26.5224H26.5137L26.505 29.0391C26.3778 29.0616 26.2642 29.1326 26.1883 29.2371C26.1137 29.3396 26.081 29.4665 26.0966 29.5922C26.0966 29.787 26.0959 29.8901 26.0753 29.9876C26.0552 30.083 26.0148 30.1776 25.9234 30.3487C25.7942 30.5405 25.6425 30.6187 25.4612 30.6568C25.367 30.6766 25.2647 30.6854 25.1509 30.6922C25.122 30.694 25.0921 30.6956 25.0616 30.6972C24.9743 30.7019 24.8811 30.707 24.7858 30.7162L24.7857 30.7162C23.5708 30.8344 22.3506 30.8913 21.1299 30.8868H21.1296C19.9665 30.8868 18.8092 30.8502 17.6501 30.8135L17.6492 30.8135C16.5219 30.7778 15.3928 30.7421 14.2578 30.7403C14.1499 29.1512 14.1396 27.5624 14.1292 25.9553C14.1262 25.4888 14.1232 25.0207 14.1178 24.5506C14.1178 24.0648 14.1055 23.5793 14.0933 23.0952L14.0933 23.0945C14.0811 22.6096 14.0689 22.1262 14.0689 21.6429H14.0691L14.0688 21.6375C14.0577 21.4339 14.0562 21.2299 14.064 21.0261C15.3955 21.1327 16.7348 21.0886 18.0566 20.8947L18.0566 20.8949L18.0635 20.8934C18.3561 20.8293 18.5665 20.7185 18.7126 20.5652C18.8589 20.4117 18.9322 20.2245 18.9665 20.0234C19.0005 19.8239 18.9971 19.6055 18.9863 19.3852C18.9831 19.3212 18.9793 19.2573 18.9756 19.1933C18.9662 19.033 18.9567 18.8724 18.9567 18.7103L18.9567 18.7085C18.9452 18.0636 18.8963 17.42 18.8101 16.7809C18.8093 16.5642 18.7702 16.2681 18.7279 15.9862C20.1967 15.9159 21.656 15.8707 23.1222 15.9182L23.1222 15.9183H23.1254C23.1614 15.9183 23.1972 15.9183 23.233 15.9182C23.7709 15.9176 24.2808 15.917 24.7008 16.0615C24.9214 16.1375 25.1138 16.2527 25.2697 16.4278C25.4253 16.6025 25.5493 16.8418 25.6258 17.1732C25.7591 18.033 25.8077 18.9039 25.7708 19.7732L25.7705 19.7732L25.7708 19.7806C25.7992 20.6748 25.7992 21.5226 25.7982 22.3729L25.7981 22.4676C25.7971 23.2839 25.7961 24.1043 25.8194 24.9699C25.8068 25.0791 25.836 25.1893 25.9015 25.2779C25.9688 25.3688 26.0688 25.4299 26.1804 25.4482L26.1885 25.4495H26.1966H26.4899C26.6998 25.4495 26.8237 25.3652 26.8867 25.2528C26.941 25.1558 26.9404 25.0528 26.9402 25.02C26.9402 25.0183 26.9401 25.0168 26.9401 25.0155C26.9401 24.7078 26.9299 24.4413 26.9187 24.1763C26.9176 24.1516 26.9166 24.1268 26.9155 24.1021C26.9053 23.8616 26.8949 23.6196 26.8913 23.3442L26.8912 23.3432C26.8815 22.9314 26.8737 22.5197 26.8659 22.1079C26.8346 20.4535 26.8033 18.7989 26.6464 17.1449L26.6464 17.1447C26.5725 16.3765 26.4004 15.8483 26.0305 15.5038C25.6617 15.1602 25.1161 15.0182 24.3456 14.969L24.3456 14.969L24.3443 14.969C22.277 14.8631 20.2053 14.8791 18.1399 15.0169C18.105 15.0099 18.0691 15.0094 18.0341 15.0154C17.7382 14.9563 17.4297 15.1108 17.1699 15.2983C16.9176 15.4805 16.6853 15.7134 16.5179 15.8813C16.5058 15.8934 16.4941 15.9051 16.4828 15.9165C15.4295 16.8474 14.4466 17.855 13.5421 18.931L13.5419 18.9309L13.5379 18.9363C12.878 19.8382 12.8897 20.6657 12.9035 21.6421C12.9056 21.7856 12.9076 21.9322 12.9076 22.0828V22.0851C12.9076 25.0637 12.9076 28.0719 13.1765 31.0483V31.0486V31.0489V31.0492V31.0495V31.0497V31.05V31.0503V31.0505V31.0508V31.0511V31.0514V31.0516V31.0519V31.0522V31.0525V31.0527V31.053V31.0533V31.0535V31.0538V31.0541V31.0543V31.0546V31.0549V31.0551V31.0554V31.0557V31.0559V31.0562V31.0564V31.0567V31.057V31.0572V31.0575V31.0578V31.058V31.0583V31.0585V31.0588V31.059V31.0593V31.0596V31.0598V31.0601V31.0603V31.0606V31.0608V31.0611V31.0613V31.0616V31.0619V31.0621V31.0624V31.0626V31.0629V31.0631V31.0634V31.0636V31.0639V31.0641V31.0644V31.0646V31.0649V31.0651V31.0654V31.0656V31.0659V31.0661V31.0663V31.0666V31.0668V31.0671V31.0673V31.0676V31.0678V31.0681V31.0683V31.0685V31.0688V31.069V31.0693V31.0695V31.0697V31.07V31.0702V31.0705V31.0707V31.0709V31.0712V31.0714V31.0716V31.0719V31.0721V31.0724V31.0726V31.0728V31.0731V31.0733V31.0735V31.0738V31.074V31.0742V31.0745V31.0747V31.0749V31.0752V31.0754V31.0756V31.0759V31.0761V31.0763V31.0765V31.0768V31.077V31.0772V31.0775V31.0777V31.0779V31.0781V31.0784V31.0786V31.0788V31.0791V31.0793V31.0795V31.0797V31.08V31.0802V31.0804V31.0806V31.0809V31.0811V31.0813V31.0815V31.0817V31.082V31.0822V31.0824V31.0826V31.0829V31.0831V31.0833V31.0835V31.0837V31.084V31.0842V31.0844V31.0846V31.0848V31.0851V31.0853V31.0855V31.0857V31.0859V31.0861V31.0864V31.0866V31.0868V31.087V31.0872V31.0874V31.0877V31.0879V31.0881V31.0883V31.0885V31.0887V31.089V31.0892V31.0894V31.0896V31.0898V31.09V31.0902V31.0904V31.0907V31.0909V31.0911V31.0913V31.0915V31.0917V31.0919V31.0921V31.0924V31.0926V31.0928V31.093V31.0932V31.0934V31.0936V31.0938V31.094V31.0942V31.0945V31.0947V31.0949V31.0951V31.0953V31.0955V31.0957V31.0959V31.0961V31.0963V31.0965V31.0967V31.0969V31.0972V31.0974V31.0976V31.0978V31.098V31.0982V31.0984V31.0986V31.0988V31.099V31.0992V31.0994V31.0996V31.0998V31.1V31.1002V31.1004V31.1007V31.1009V31.1011V31.1013V31.1015V31.1017V31.1019V31.1021V31.1023V31.1025V31.1027V31.1029V31.1031V31.1033V31.1035V31.1037V31.1039V31.1041V31.1043V31.1045V31.1047V31.1049V31.1051V31.1053V31.1055V31.1057V31.1059V31.1061V31.1063V31.1065V31.1067V31.1069V31.1071V31.1073V31.1076V31.1078V31.108V31.1082V31.1084V31.1086V31.1088V31.109V31.1092V31.1094V31.1096V31.1098V31.11V31.1102V31.1104V31.1106V31.1108V31.111V31.1112V31.1114V31.1116V31.1118V31.112V31.1122V31.1124V31.1126V31.1128V31.113V31.1132V31.1134V31.1136V31.1138V31.114V31.1142V31.1144V31.1146V31.1148V31.115V31.1152V31.1154V31.1156V31.1158V31.116V31.1162V31.1164V31.1166V31.1168V31.117V31.1172V31.1174V31.1176V31.1178V31.118V31.1182V31.1184V31.1186V31.1188V31.119V31.1192V31.1194V31.1196V31.1198V31.12V31.1202V31.1204V31.1206V31.1208V31.121V31.1212V31.1214V31.1216V31.1218V31.122V31.1222V31.1224V31.1226V31.1228V31.123V31.1232V31.1234V31.1236V31.1238V31.124V31.1242V31.1244V31.1246V31.1248V31.1251V31.1253V31.1255V31.1257V31.1259V31.1261V31.1263V31.1265V31.1267V31.1269V31.1271V31.1273V31.1275V31.1277V31.1279V31.1281V31.1283V31.1285V31.1287V31.1289V31.1291V31.1293V31.1295V31.1298V31.13V31.1302V31.1304V31.1306V31.1308V31.131V31.1312V31.1314V31.1316V31.1318V31.132V31.1322V31.1324V31.1326V31.1329V31.1331V31.1333V31.1335V31.1337V31.1339V31.1341V31.1343V31.1345V31.1347V31.1349V31.1352V31.1354V31.1356V31.1358V31.136V31.1362V31.1364V31.1366V31.1368V31.1371V31.1373V31.1375V31.1377V31.1379V31.1381V31.1383V31.1385V31.1388V31.139V31.1392V31.1394V31.1396V31.1398V31.14V31.1403V31.1405V31.1407V31.1409V31.1411V31.1413V31.1416V31.1418V31.142V31.1422V31.1424V31.1426V31.1429V31.1431V31.1433V31.1435V31.1437V31.1439V31.1442V31.1444V31.1446V31.1448V31.145V31.1453V31.1455V31.1457V31.1459V31.1462V31.1464V31.1466V31.1468V31.147V31.1473V31.1475V31.1477V31.1479V31.1482V31.1484V31.1486V31.1488V31.149C13.1648 31.2176 13.1679 31.288 13.1855 31.3554C13.2039 31.426 13.2379 31.4917 13.285 31.5475C13.332 31.6034 13.3909 31.6481 13.4574 31.6783L13.4988 31.5872C13.5517 31.6113 13.6093 31.6233 13.6675 31.6222V31.7222C13.6678 31.7222 13.6681 31.7222 13.6684 31.7222C14.9293 31.7222 16.1942 31.7723 17.4621 31.8225C17.7274 31.833 17.9927 31.8435 18.2583 31.8535C19.7921 31.9116 21.329 31.9545 22.8606 31.8932L22.8616 31.8932C23.0646 31.8829 23.3137 31.8847 23.5912 31.8866C23.6401 31.8869 23.6899 31.8873 23.7404 31.8876C24.0761 31.8895 24.4437 31.8888 24.8059 31.8656C25.1677 31.8425 25.5277 31.7968 25.8482 31.7075C26.168 31.6184 26.4556 31.4839 26.6657 31.2782L26.6658 31.2783L26.6695 31.2743C26.8787 31.0459 27.0294 30.7702 27.1087 30.4708C27.187 30.1753 27.1935 29.8655 27.1277 29.567C27.1278 29.4469 27.0878 29.3301 27.0139 29.2351C26.9374 29.1366 26.8291 29.0677 26.7076 29.0401ZM15.0055 18.9147L15.0057 18.915L15.0116 18.9087C15.5979 18.2782 16.1935 17.707 16.7936 17.1315C16.9665 16.9657 17.1398 16.7995 17.3133 16.6314L17.3133 16.6315L17.3145 16.6303C17.358 16.5867 17.4016 16.5385 17.4427 16.4931C17.4498 16.4852 17.4568 16.4775 17.4637 16.4698C17.512 16.4165 17.5562 16.3689 17.5978 16.3315C17.6408 16.2928 17.6721 16.2733 17.6933 16.2666C17.707 16.2622 17.7102 16.2638 17.7174 16.2698C17.739 16.2879 17.7446 16.3018 17.7468 16.3108C17.7495 16.3219 17.7493 16.3366 17.7446 16.3588C17.7423 16.3699 17.7393 16.381 17.7356 16.3943L17.7349 16.3967C17.7317 16.4084 17.7276 16.4234 17.7246 16.4377C17.7207 16.4572 17.7112 16.5082 17.7389 16.555C17.8949 17.1051 17.9581 17.6774 17.926 18.2484L17.9253 18.2592L17.9271 18.2699C18.0004 18.7272 18.0173 19.1918 17.9774 19.6531C17.9491 19.6879 17.8936 19.7223 17.8014 19.7502C17.6987 19.7813 17.5688 19.799 17.4278 19.808C17.2281 19.8207 17.0221 19.8154 16.8546 19.8112C16.7834 19.8094 16.7192 19.8078 16.6654 19.8078H16.6606H16.6558H16.651H16.6463H16.6415H16.6367H16.6319H16.6272H16.6224H16.6176H16.6128H16.6081H16.6033H16.5985H16.5938H16.589H16.5842H16.5794H16.5747H16.5699H16.5651H16.5603H16.5556H16.5508H16.546H16.5412H16.5365H16.5317H16.5269H16.5222H16.5174H16.5126H16.5078H16.5031H16.4983H16.4935H16.4887H16.484H16.4792H16.4744H16.4696H16.4649H16.4601H16.4553H16.4506H16.4458H16.441H16.4362H16.4315H16.4267H16.4219H16.4171H16.4124H16.4076H16.4028H16.398H16.3933H16.3885H16.3837H16.379H16.3742H16.3694H16.3646H16.3599H16.3551H16.3503H16.3455H16.3408H16.336H16.3312H16.3264H16.3217H16.3169H16.3121H16.3074H16.3026H16.2978H16.293H16.2883H16.2835H16.2787H16.2739H16.2692H16.2644H16.2596H16.2549H16.2501H16.2453H16.2405H16.2358H16.231H16.2262H16.2214H16.2167H16.2119H16.2071H16.2023H16.1976H16.1928H16.188H16.1833H16.1785H16.1737H16.1689H16.1642H16.1594H16.1546H16.1498H16.1451H16.1403H16.1355H16.1307H16.126H16.1212H16.1164H16.1117H16.1069H16.1021H16.0973H16.0926H16.0878H16.083H16.0782H16.0735H16.0687H16.0639H16.0591H16.0544H16.0496H16.0448H16.0401H16.0353H16.0305H16.0257H16.021H16.0162H16.0114H16.0066H16.0019H15.9971H15.9923H15.9875H15.9828H15.978H15.9732H15.9685H15.9637H15.9589H15.9541H15.9494H15.9446H15.9398H15.935H15.9303H15.9255H15.9207H15.9159H15.9112H15.9064H15.9016H15.8969H15.8921H15.8873H15.8825H15.8778H15.873H15.8682H15.8634H15.8587H15.8539H15.8491H15.8444H15.8396H15.8348H15.83H15.8253H15.8205H15.8157H15.8109H15.8062H15.8014H15.7966H15.7918H15.7871H15.7823H15.7775H15.7728H15.768H15.7632H15.7584H15.7537H15.7489H15.7441H15.7393H15.7346H15.7298H15.725H15.7202H15.7155H15.7107H15.7059H15.7012H15.6964H15.6916H15.6868H15.6821H15.6773H15.6725H15.6677H15.663H15.6582H15.6534H15.6486H15.6439H15.6391H15.6343H15.6296H15.6248H15.62H15.6152H15.6105H15.6057H15.6009H15.5961H15.5914H15.5866H15.5818H15.577H15.5723H15.5675H15.5627H15.558H15.5532H15.5484H15.5436H15.5389H15.5341H15.5293H15.5245H15.5198H15.515H15.5102H15.5054H15.5007H15.4959H15.4911H15.4864H15.4816H15.4768H15.472H15.4673H15.4625H15.4577H15.4529H15.4482H15.4434H15.4386H15.4339H15.4291H15.4243H15.4195H15.4148H15.41H15.4052H15.4004H15.3957H15.3909H15.3861H15.3813H15.3766H15.3718H15.367H15.3623H15.3575H15.3527H15.3479H15.3432H15.3384H15.3336H15.3288H15.3241H15.3193H15.3145H15.3097H15.305H15.3002H15.2954H15.2907H15.2859H15.2811H15.2763H15.2716H15.2668H15.262H15.2572H15.2525H15.2477H15.2429H15.2381H15.2334H15.2286H15.2238H15.2191H15.2143H15.2095H15.2047H15.2H15.1952H15.1904H15.1856H15.1809H15.1761H15.1713H15.1665H15.1618H15.157H15.1522H15.1475H15.1427H15.1379H15.1331H15.1284H15.1236H15.1188H15.114H15.1093H15.1045H15.0997H15.0949H15.0902H15.0854H15.0806H15.0759H15.0711H15.0663H15.0615H15.0568H15.052H15.0472H15.0424H15.0377H15.0329H15.0281H15.0234H15.0186H15.0138H15.009H15.0043H14.9995H14.9947H14.9899H14.9852H14.9804H14.9756H14.9708H14.9661H14.9613H14.9565H14.9518H14.947H14.9422H14.9374H14.9327H14.9279H14.9231H14.9183H14.9136H14.9088H14.904H14.8992H14.8945H14.8897H14.8849H14.8802H14.8754H14.8706H14.8658H14.8611H14.8563H14.8515H14.8467H14.842H14.8372H14.8324H14.8276H14.8229H14.8181H14.8133H14.8086H14.8038H14.799H14.7942H14.7895H14.7847H14.7799H14.7751H14.7704H14.7656H14.7608H14.756H14.7513H14.7465H14.7417H14.737H14.7322H14.7274H14.7226H14.7179H14.7131H14.7083H14.7035H14.6988H14.694H14.6892H14.6844H14.6797H14.6749H14.6701H14.6654H14.6606H14.6558H14.651H14.6463H14.6415H14.6367H14.6319H14.6272H14.6224H14.6176H14.6129H14.6081H14.6033H14.5985H14.5938H14.589H14.5842H14.5794H14.5747H14.5699H14.5651H14.5603H14.5556H14.5508H14.546H14.5413H14.5365H14.5317H14.5269H14.5222H14.5174H14.5126H14.5078H14.5031H14.4983H14.4935H14.4887H14.484H14.4792H14.4744H14.4697H14.4649H14.4601H14.4553H14.4506H14.4458H14.441H14.4362H14.4315H14.4267H14.4219H14.4171H14.4124H14.4076H14.4028H14.3981H14.3933H14.3885H14.3837H14.379H14.3742H14.3694H14.3685C14.5139 19.4683 14.731 19.1635 15.0055 18.9147Z" fill="white" stroke="white" stroke-width="0.2"/>
<path d="M16.1103 21.8036C15.9847 21.8039 15.8644 21.8539 15.7756 21.9426C15.6866 22.0317 15.6366 22.1524 15.6366 22.2783C15.6366 22.4042 15.6866 22.525 15.7756 22.614C15.8646 22.703 15.9854 22.7531 16.1113 22.7531L16.1123 22.7531C16.8262 22.7462 17.5513 22.7635 18.2845 22.7811C18.8636 22.7949 19.4478 22.8088 20.0354 22.8111C21.3591 22.8162 22.6823 22.7613 23.9424 22.5069M16.1103 21.8036C16.1106 21.8036 16.111 21.8036 16.1113 21.8036V21.9036L16.1094 21.8036C16.1097 21.8036 16.11 21.8036 16.1103 21.8036ZM16.1103 21.8036C17.0095 21.7863 17.919 21.7356 18.8328 21.6847C19.2122 21.6635 19.5923 21.6423 19.9728 21.6235C21.268 21.5593 22.5639 21.5224 23.8327 21.6083L23.8259 21.7081L23.8321 21.6083C24.0847 21.6241 24.2407 21.8262 24.2729 22.024C24.2892 22.1243 24.2757 22.2322 24.2209 22.3233C24.1648 22.4165 24.0702 22.4836 23.9424 22.5069M23.9424 22.5069C23.9428 22.5068 23.9431 22.5068 23.9435 22.5067L23.9237 22.4087L23.9414 22.5071C23.9417 22.507 23.9421 22.507 23.9424 22.5069Z" fill="white" stroke="white" stroke-width="0.2"/>
<path d="M16.3511 25.3761L16.3514 25.3761C19.0099 25.4948 21.6735 25.4047 24.3179 25.1068L24.3179 25.1068L24.3216 25.1063C24.4321 25.0897 24.5329 25.034 24.6058 24.9493C24.6787 24.8646 24.7188 24.7566 24.7188 24.6449C24.7188 24.5332 24.6787 24.4251 24.6058 24.3405C24.5329 24.2558 24.4321 24.2001 24.3216 24.1835L24.3216 24.1834L24.3169 24.1829C23 24.0475 21.6583 24.1195 20.3244 24.2121C20.1678 24.223 20.0113 24.2342 19.855 24.2453C18.6771 24.3293 17.508 24.4127 16.3596 24.3698L16.359 24.3698C16.2023 24.3648 16.0769 24.423 15.9921 24.5194C15.9093 24.6135 15.8709 24.7372 15.8709 24.8577C15.8709 25.0976 16.0282 25.3607 16.3511 25.3761Z" fill="white" stroke="white" stroke-width="0.2"/>
<path d="M21.8401 27.0178L21.8401 27.0173H21.8301H20.4045C19.7476 27.0173 19.0848 27.0295 18.4241 27.0418L18.4215 27.0418C17.7613 27.054 17.1033 27.0662 16.4535 27.0662H16.4395L16.426 27.07C16.3166 27.1013 16.2204 27.1673 16.1518 27.2582C16.0833 27.349 16.0462 27.4597 16.0462 27.5735C16.0462 27.6873 16.0833 27.798 16.1518 27.8888C16.2204 27.9797 16.3166 28.0457 16.426 28.077L16.4395 28.0808H16.4535H16.4544C17.8284 28.0808 19.2369 28.0808 20.6214 28.0321C21.095 28.0772 21.5728 28.0315 22.0293 27.8976L22.044 27.8932L22.0568 27.8847C22.138 27.8303 22.2005 27.7522 22.2357 27.661C22.2709 27.5697 22.277 27.4699 22.2533 27.375C22.2296 27.2802 22.1772 27.195 22.1032 27.131L22.038 27.2065L22.1032 27.131C22.0292 27.0671 21.9373 27.0276 21.8401 27.0178Z" fill="white" stroke="white" stroke-width="0.2"/>
<path d="M28.8483 26.7364L28.8484 26.7359L28.8388 26.7341C27.7316 26.5174 26.6313 26.2133 25.5284 25.8838C25.4881 25.826 25.4318 25.7806 25.366 25.7537C25.2875 25.7214 25.2003 25.7173 25.1191 25.7419C25.0329 25.7628 24.9461 25.7837 24.8589 25.8047C24.4051 25.9142 23.9418 26.026 23.4901 26.1492L23.4901 26.1492L23.4884 26.1497C23.3587 26.1875 23.249 26.2942 23.1988 26.4164C23.1473 26.542 23.1547 26.6982 23.2826 26.8134C23.7774 27.3719 24.3842 27.8201 25.0635 28.1289L25.0702 28.1319L25.0773 28.134C26.1685 28.448 27.2816 28.6805 28.4074 28.8294L28.4074 28.8294L28.4094 28.8297C28.4951 28.8392 28.5814 28.8191 28.654 28.7727C28.7267 28.7263 28.7812 28.6564 28.8086 28.5747L28.8088 28.5748L28.8107 28.5676C28.8646 28.3555 28.8989 28.1385 28.9325 27.9256C28.9353 27.9081 28.9381 27.8907 28.9408 27.8733C28.9773 27.6434 29.0149 27.4181 29.0775 27.1978C29.094 27.1538 29.1015 27.1069 29.0996 27.0599C29.0977 27.0112 29.0856 26.9634 29.0642 26.9196C29.0429 26.8758 29.0126 26.8369 28.9755 26.8053C28.9383 26.7738 28.895 26.7503 28.8483 26.7364ZM28.2749 27.3572C28.2425 27.566 28.2069 27.7682 28.1443 28.0053C27.2286 27.845 26.3413 27.6327 25.4442 27.4046C25.0525 27.2592 24.6967 27.0325 24.3999 26.7403C24.4933 26.7173 24.5879 26.6949 24.6835 26.6723C24.707 26.6668 24.7306 26.6612 24.7543 26.6556C24.9261 26.6148 25.1005 26.5728 25.2733 26.5249H25.2928C26.2709 26.84 27.2577 27.1249 28.2749 27.3572Z" fill="white" stroke="white" stroke-width="0.2"/>
</g>
<defs>
<clipPath id="clip0_22_1014">
<rect width="42" height="42" fill="white"/>
</clipPath>
</defs>
</svg>
