<svg width="42" height="43" viewBox="0 0 42 43" fill="none" xmlns="http://www.w3.org/2000/svg">
<g clip-path="url(#clip0_22_1095)">
<path d="M42.0001 25.3351C42.0001 36.7055 31.116 42.6949 21.0294 42.6949C10.9429 42.6949 0.00012207 36.7055 0.00012207 25.3351C0.00012207 13.9646 10.9429 0.875366 21.0294 0.875366C31.116 0.875366 42.0001 13.9778 42.0001 25.3351Z" fill="#18BC8E"/>
<path d="M22.5072 29.0624C22.2659 29.0668 21.851 29.0647 21.4772 28.9813C21.1082 28.8989 20.7533 28.731 20.6748 28.3842L20.6746 28.3837L20.6746 28.3837C20.6249 28.1526 20.6719 27.9527 20.781 27.7836C20.8891 27.6159 21.057 27.4803 21.2471 27.372C21.5631 27.1921 21.9494 27.0827 22.2548 27.0276L22.1762 26.9941L22.3678 26.974C22.4103 26.9695 22.4492 26.9726 22.484 26.982C22.4944 26.979 22.5049 26.9765 22.5155 26.9746L22.5246 26.9729V26.9737C22.7762 26.9737 23.1607 27.0004 23.4773 27.1283C23.636 27.1924 23.781 27.2833 23.8829 27.4122C23.9856 27.5422 24.042 27.7078 24.0278 27.9149C23.9999 28.3222 23.8013 28.6112 23.5171 28.7968C23.2349 28.9811 22.8703 29.0623 22.5072 29.0624ZM22.5072 29.0624C22.5071 29.0624 22.5069 29.0624 22.5068 29.0624V29.0124L22.5077 29.0624C22.5075 29.0624 22.5074 29.0624 22.5072 29.0624ZM22.3797 27.5971C22.4063 27.5935 22.4312 27.5873 22.4542 27.5789C22.4739 27.5868 22.4944 27.5928 22.5155 27.5967L22.5154 27.5975H22.5246C22.6501 27.5975 22.85 27.5977 23.0269 27.6353C23.2087 27.6739 23.3392 27.7461 23.3675 27.8694L23.3671 27.8695L23.3692 27.8752C23.4058 27.9769 23.3873 28.055 23.3379 28.1196C23.286 28.1874 23.1972 28.2434 23.0885 28.2881C22.8721 28.3771 22.6001 28.4121 22.4683 28.4209C22.14 28.4355 21.8115 28.3971 21.4954 28.3074C21.411 28.2821 21.3627 28.2515 21.3374 28.2222C21.3139 28.1951 21.3074 28.1662 21.3133 28.1334C21.3196 28.0982 21.3407 28.0569 21.3764 28.012C21.4112 27.9681 21.4575 27.9236 21.5103 27.8814C21.7719 27.7185 22.0692 27.621 22.3769 27.5974L22.3769 27.5975L22.3797 27.5971Z" fill="white" stroke="white" stroke-width="0.1"/>
<path d="M20.776 29.299C20.6887 29.387 20.6389 29.5299 20.6966 29.6637H20.6486L20.7324 29.7488C20.9786 29.9987 21.2882 30.1773 21.6283 30.2656C21.9676 30.3536 22.3245 30.3485 22.6611 30.2507C22.873 30.2101 23.1875 30.1295 23.476 30.0061C23.6208 29.9441 23.7604 29.8708 23.8775 29.7855C23.9943 29.7004 24.0915 29.6014 24.1476 29.4872C24.203 29.3746 24.2132 29.2735 24.1873 29.1902C24.1613 29.1067 24.101 29.0477 24.029 29.0164C23.8867 28.9548 23.6922 28.9995 23.6033 29.1764C23.571 29.2407 23.5118 29.2973 23.432 29.3475C23.3525 29.3975 23.2559 29.4391 23.1535 29.4745C23.0513 29.5099 22.9451 29.5386 22.847 29.5636C22.8207 29.5703 22.7948 29.5768 22.7697 29.5831C22.7022 29.6 22.6402 29.6155 22.5905 29.6303L22.5905 29.6303L22.5885 29.6309C22.3479 29.7139 22.0885 29.7273 21.8405 29.6698C21.5934 29.6124 21.3675 29.4868 21.1888 29.3075C21.1286 29.2331 21.0525 29.2008 20.9755 29.2044C20.8998 29.2078 20.8291 29.2455 20.776 29.299Z" fill="white" stroke="white" stroke-width="0.1"/>
<path d="M20.8893 31.1532V31.107C21.236 31.4884 21.8108 31.6445 22.3799 31.6281C23.0023 31.6101 23.6371 31.3854 23.9881 30.9992L23.9883 30.9989C24.1221 30.8496 24.0734 30.6639 23.9674 30.5583C23.9141 30.5053 23.8429 30.4681 23.7664 30.4649C23.6883 30.4615 23.6103 30.4938 23.5477 30.5688C23.4452 30.683 23.2819 30.7868 23.0841 30.8682C22.8867 30.9496 22.6585 31.0073 22.4301 31.0312C22.2016 31.0552 21.975 31.0451 21.7804 30.9927C21.5858 30.9403 21.4263 30.8466 21.3258 30.7057L21.3258 30.7057L21.3254 30.7051C21.2082 30.546 21.0171 30.549 20.8895 30.6252C20.8253 30.6635 20.7722 30.7228 20.7507 30.7954C20.7286 30.8698 20.7415 30.9525 20.7991 31.0307L20.8893 31.1532Z" fill="white" stroke="white" stroke-width="0.1"/>
<path d="M22.5575 31.9112L22.5575 31.9111L22.555 31.9118C22.3286 31.9786 22.0896 31.9916 21.8573 31.9499C21.6249 31.9081 21.4057 31.8126 21.2171 31.6712L21.2172 31.6711L21.2135 31.6688C21.1301 31.6169 21.045 31.6094 20.9702 31.6347C20.8969 31.6595 20.8378 31.7142 20.8004 31.7796C20.7259 31.9101 20.7311 32.1 20.9021 32.2064L20.9142 32.214H20.9285H20.9396C21.1983 32.393 21.4935 32.5131 21.8042 32.5657C22.1199 32.6191 22.4437 32.6015 22.7517 32.5141C22.7745 32.5081 22.7991 32.5018 22.825 32.4951C22.9892 32.4529 23.2093 32.3964 23.4125 32.3147C23.6451 32.2211 23.872 32.0886 23.961 31.8916C24.006 31.7922 24.0081 31.6986 23.9791 31.62C23.9504 31.5421 23.8926 31.4826 23.8244 31.448C23.7563 31.4135 23.6758 31.4026 23.6004 31.4248C23.5239 31.4473 23.4567 31.5026 23.4153 31.5927C23.3544 31.7253 23.2085 31.794 23.0337 31.8345C22.9478 31.8544 22.8589 31.8666 22.776 31.8773C22.7677 31.8784 22.7595 31.8794 22.7513 31.8805C22.679 31.8897 22.6105 31.8985 22.5575 31.9112Z" fill="white" stroke="white" stroke-width="0.1"/>
<path d="M25.7726 25.5546C25.8186 25.5419 25.8642 25.5317 25.908 25.5245C25.9081 25.5244 25.9083 25.5244 25.9085 25.5244C25.9607 25.5158 26.0104 25.5113 26.0554 25.5113C26.1149 25.5113 26.1727 25.4941 26.2221 25.4625C26.339 25.4598 26.4561 25.4713 26.5709 25.4971C26.7909 25.5465 26.9961 25.6467 27.1699 25.7897C27.794 26.2691 26.7063 26.6331 26.3585 26.6775C26.1682 26.7061 25.9739 26.6913 25.7902 26.6344C25.6064 26.5775 25.438 26.48 25.2975 26.349C24.8966 25.977 25.2931 25.6565 25.6978 25.525C25.7207 25.538 25.7457 25.5482 25.7726 25.5546ZM25.7726 25.5546C25.6197 25.5971 25.4617 25.6688 25.3466 25.7611C25.2513 25.8375 25.1923 25.9225 25.1822 26.0101C25.1724 26.0953 25.2073 26.1971 25.3315 26.3124L25.3316 26.3125C25.4666 26.4383 25.6284 26.532 25.805 26.5867C25.9815 26.6413 26.1683 26.6555 26.3511 26.6281L26.3522 26.6279L26.3522 26.6279C26.5205 26.6064 26.8716 26.5063 27.1011 26.355C27.2172 26.2785 27.2906 26.1965 27.3062 26.115C27.3207 26.0397 27.2886 25.944 27.1394 25.8294L27.1381 25.8284L27.1381 25.8283C26.9704 25.6903 26.7723 25.5935 26.56 25.5459C26.3476 25.4982 26.127 25.5011 25.916 25.5541L25.9146 25.5545L25.9146 25.5545C25.863 25.5659 25.8154 25.5649 25.7726 25.5546ZM26.9618 24.9996C26.6827 24.9129 26.3802 24.8837 26.1068 24.9006C26.1063 24.9006 26.1058 24.9005 26.1054 24.9004V24.8786H26.0554C25.7068 24.8786 25.3018 24.9969 24.9985 25.2166C24.694 25.437 24.4864 25.7647 24.5527 26.1794C24.6189 26.5941 24.9402 26.8689 25.3191 27.0309C25.6984 27.1931 26.1459 27.2474 26.488 27.2156C26.8306 27.1838 27.2461 27.0387 27.5424 26.7985C27.691 26.6781 27.8117 26.5321 27.8767 26.3622C27.942 26.1914 27.9498 25.9994 27.8769 25.791C27.7316 25.3755 27.3672 25.1254 26.9618 24.9996Z" fill="white" stroke="white" stroke-width="0.1"/>
<path d="M27.1956 27.3681C27.1819 27.3763 27.1686 27.3854 27.1561 27.3953L27.1442 27.3872C26.8839 27.6369 26.5401 27.7821 26.1788 27.7948C25.8189 27.8074 25.467 27.6877 25.1902 27.4587C25.1283 27.3861 25.0523 27.3539 24.9758 27.3564C24.8998 27.3588 24.8292 27.3951 24.7763 27.4478C24.6709 27.5527 24.6236 27.7372 24.7508 27.8903L24.7613 27.9029L24.7772 27.9068L24.8012 27.9128C25.194 28.2525 25.6999 28.4345 26.2203 28.4228C26.7447 28.411 27.2456 28.2034 27.6236 27.8411L27.6243 27.8419L27.6303 27.8332C27.6681 27.7778 27.6884 27.7123 27.6884 27.6452C27.6884 27.5783 27.6682 27.5129 27.6305 27.4576C27.5758 27.3747 27.4996 27.3313 27.4196 27.3201C27.3407 27.309 27.2608 27.3293 27.1956 27.3681Z" fill="white" stroke="white" stroke-width="0.1"/>
<path d="M24.7058 28.6289C24.6496 28.7263 24.6387 28.8578 24.7094 28.9623H24.6388L24.7898 29.0549C25.2031 29.3083 25.6818 29.4357 26.1669 29.4212C26.652 29.4067 27.1222 29.251 27.5195 28.9734L27.5197 28.9732C27.6847 28.8566 27.6816 28.6633 27.6052 28.5341C27.5669 28.4692 27.5076 28.4152 27.4355 28.3928C27.3615 28.3698 27.2793 28.3817 27.2027 28.4393C26.9011 28.6531 26.5435 28.7752 26.1735 28.7905C25.8036 28.8059 25.4371 28.7139 25.1187 28.5259C25.0361 28.4722 24.9513 28.4627 24.8764 28.4865C24.8026 28.5099 24.7433 28.5639 24.7058 28.6289Z" fill="white" stroke="white" stroke-width="0.1"/>
<path d="M24.768 30.1451V30.0991C25.1536 30.3808 25.6201 30.5334 26.1 30.5334C26.6142 30.5334 27.1129 30.3582 27.5133 30.0369L27.5137 30.0374L27.5192 30.0313C27.6531 29.882 27.6043 29.6962 27.4984 29.5907C27.4451 29.5376 27.3738 29.5005 27.2973 29.4972C27.2207 29.494 27.1443 29.525 27.0823 29.5969C26.7963 29.8021 26.4527 29.9126 26.1 29.9126C25.7474 29.9126 25.4037 29.8021 25.1178 29.5969C25.0559 29.5251 24.98 29.4939 24.9038 29.4974C24.8277 29.5008 24.7572 29.5385 24.7046 29.5922C24.5998 29.6991 24.5523 29.8856 24.6795 30.0387L24.768 30.1451Z" fill="white" stroke="white" stroke-width="0.1"/>
<path d="M24.7897 31.0986L24.7892 31.0991L24.7961 31.1039C25.193 31.3846 25.6651 31.5406 26.1517 31.5519C26.6383 31.5632 27.1172 31.4293 27.5268 31.1674L27.5269 31.1675L27.5302 31.165C27.6888 31.0439 27.6862 30.8497 27.6098 30.7203C27.5713 30.6552 27.5118 30.6015 27.4385 30.5804C27.3638 30.5587 27.2813 30.5728 27.2036 30.6316C26.9059 30.825 26.5581 30.9281 26.2025 30.9281C25.8479 30.9281 25.501 30.8256 25.2039 30.6331C25.1754 30.6063 25.1421 30.5851 25.1057 30.5706C25.0677 30.5555 25.0271 30.5479 24.9862 30.5484C24.9453 30.5489 24.9049 30.5574 24.8673 30.5734C24.8297 30.5895 24.7956 30.6128 24.767 30.6419C24.7384 30.6711 24.7158 30.7056 24.7006 30.7435C24.6854 30.7814 24.6778 30.8219 24.6783 30.8627C24.6788 30.9035 24.6874 30.9438 24.7035 30.9813C24.7196 31.0188 24.743 31.0527 24.7723 31.0812L24.7897 31.0986Z" fill="white" stroke="white" stroke-width="0.1"/>
<path d="M24.6854 32.0776L24.6853 32.0777L24.6883 32.0799C25.1077 32.389 25.6188 32.5496 26.1403 32.5365C26.6618 32.5233 27.164 32.3371 27.5672 32.0074L27.5674 32.0076L27.5715 32.0034C27.6395 31.9331 27.6647 31.8504 27.6572 31.771C27.6498 31.693 27.6112 31.6211 27.5572 31.5679C27.5032 31.5148 27.4309 31.4776 27.3529 31.4731C27.2745 31.4685 27.1946 31.4971 27.1276 31.5673C26.841 31.7828 26.4943 31.9043 26.1352 31.9151C25.7756 31.9259 25.4216 31.825 25.1222 31.6265C24.969 31.5021 24.7831 31.5494 24.6762 31.6545C24.6223 31.7076 24.5846 31.7786 24.5811 31.8556C24.5776 31.9343 24.6102 32.013 24.6854 32.0776Z" fill="white" stroke="white" stroke-width="0.1"/>
<path d="M20.7502 33.0341L20.7189 33.073C21.679 33.8469 22.8101 33.569 23.8283 33.1244C23.9192 33.0855 23.9729 33.0205 23.991 32.9444C24.0087 32.8702 23.991 32.7922 23.9531 32.7271C23.8781 32.5979 23.7105 32.5005 23.5298 32.5799L23.5296 32.5793L23.5229 32.5836C23.1694 32.811 22.7591 32.9355 22.3383 32.9432C21.9187 32.9509 21.5054 32.842 21.1445 32.6289C20.9916 32.5056 20.8063 32.5527 20.7007 32.6566C20.6472 32.7092 20.6101 32.7798 20.6082 32.8561C20.6062 32.9343 20.6414 33.0113 20.7191 33.0732L20.7502 33.0341ZM20.7502 33.0341C21.6864 33.7887 22.792 33.5223 23.8085 33.0785L21.1158 32.6701C20.8572 32.457 20.4827 32.821 20.7502 33.0341Z" fill="white" stroke="white" stroke-width="0.1"/>
<path d="M24.6679 33.0695V33.0909L24.6834 33.1057C25.0578 33.4635 25.5528 33.6693 26.0715 33.6827C26.5901 33.6962 27.0952 33.5164 27.4878 33.1785L27.488 33.1786L27.4913 33.1751C27.5469 33.117 27.5775 33.0396 27.5765 32.9593C27.5755 32.879 27.543 32.8023 27.4861 32.7455C27.4291 32.6888 27.3522 32.6566 27.2717 32.6556C27.1913 32.6546 27.1136 32.685 27.0552 32.7403L27.0552 32.7403L27.0539 32.7416C26.9703 32.8268 26.8333 32.9018 26.6651 32.9576C26.4979 33.013 26.3041 33.0481 26.1112 33.0562C25.9181 33.0644 25.728 33.0455 25.5675 32.9948C25.4066 32.9441 25.2796 32.8628 25.2056 32.7493L25.2056 32.7493L25.2051 32.7484C25.0924 32.5828 24.8997 32.5866 24.7713 32.6638C24.7066 32.7027 24.6529 32.7626 24.6307 32.8357C24.6092 32.9062 24.6185 32.9842 24.6679 33.0586V33.0695Z" fill="white" stroke="white" stroke-width="0.1"/>
<path d="M29.9018 22.9098C29.8859 22.914 29.8705 22.9195 29.8556 22.9261L29.7714 22.9812C29.412 23.0082 29.0611 23.1057 28.7391 23.2684C28.6008 23.3671 28.4937 23.5031 28.4305 23.6604C28.3673 23.8178 28.3506 23.9898 28.3824 24.1562C28.6143 24.831 29.4702 24.9197 30.0854 24.9109C30.7007 24.902 31.5299 24.6356 31.5923 23.8455C31.6512 23.0996 30.6056 22.8047 30.0158 22.9308C29.9829 22.9259 29.9473 22.9262 29.9095 22.9329L29.9034 22.9094C29.9028 22.9095 29.9023 22.9096 29.9018 22.9098ZM29.9345 23.5538C29.986 23.5443 30.0281 23.5364 30.0518 23.5303C30.09 23.523 30.1235 23.5103 30.1522 23.4933C30.3233 23.4691 30.5573 23.493 30.7399 23.5718C30.8477 23.6184 30.9314 23.6814 30.9756 23.7583C31.0184 23.8327 31.0283 23.9268 30.9758 24.0475L30.9757 24.0477C30.9061 24.2094 30.7243 24.294 30.5011 24.3345C30.2808 24.3745 30.0385 24.3682 29.8728 24.3637L29.8728 24.3636L29.8693 24.3637C29.5624 24.3769 29.26 24.2868 29.0108 24.108C28.9513 24.0566 28.926 24.0144 28.9188 23.9822C28.9121 23.9523 28.9192 23.9237 28.9431 23.893C28.9681 23.8608 29.0101 23.8286 29.0675 23.7972C29.1245 23.7662 29.1934 23.7378 29.269 23.7119C29.4203 23.6603 29.5936 23.6206 29.7408 23.5909C29.8088 23.5771 29.8709 23.5656 29.9225 23.5561C29.9266 23.5553 29.9306 23.5546 29.9345 23.5538ZM30.2195 23.4363C30.6218 23.4115 31.2222 23.6066 31.0216 24.0675C30.8611 24.4403 30.2013 24.4226 29.8714 24.4137L30.2195 23.4363Z" fill="white" stroke="white" stroke-width="0.1"/>
<path d="M31.4855 25.8335L31.4858 25.8331C31.5414 25.775 31.572 25.6975 31.571 25.6172C31.57 25.5369 31.5376 25.4602 31.4806 25.4035C31.4236 25.3468 31.3467 25.3145 31.2662 25.3135C31.1858 25.3126 31.1081 25.3429 31.0497 25.3983L31.0497 25.3982L31.0485 25.3995C30.9491 25.5005 30.7922 25.5871 30.6046 25.6496C30.4176 25.7117 30.2039 25.7486 29.9942 25.753C29.7843 25.7573 29.5809 25.729 29.4136 25.6627C29.2466 25.5965 29.1186 25.494 29.052 25.3512L29.052 25.3512L29.0514 25.35C29.0068 25.2613 28.9376 25.2127 28.8597 25.1999C28.784 25.1875 28.7063 25.2098 28.6423 25.2502C28.5173 25.3291 28.4196 25.4968 28.5075 25.6617C28.7564 26.1566 29.342 26.3656 29.9335 26.3712C30.5259 26.3768 31.1474 26.1794 31.4855 25.8335Z" fill="white" stroke="white" stroke-width="0.1"/>
<path d="M28.502 26.8372V26.8589L28.5177 26.8737C28.9209 27.2525 29.4565 27.4597 30.0107 27.4512C30.5649 27.4428 31.0939 27.2192 31.4851 26.8282L31.4856 26.8287L31.4905 26.8219C31.5478 26.7415 31.5599 26.6572 31.5368 26.582C31.5143 26.5084 31.4601 26.4489 31.3945 26.4111C31.2653 26.3367 31.0754 26.3388 30.9588 26.5C30.6818 26.7045 30.3459 26.815 30.0009 26.815C29.6554 26.815 29.3192 26.7043 29.042 26.4993C28.924 26.3509 28.7322 26.3557 28.6041 26.4287C28.5385 26.4661 28.4834 26.5243 28.4611 26.5969C28.4396 26.667 28.4507 26.7443 28.502 26.8181V26.8372Z" fill="white" stroke="white" stroke-width="0.1"/>
<path d="M31.4695 27.8378L31.4697 27.8377C31.6023 27.6845 31.5547 27.4992 31.4469 27.3931C31.3929 27.34 31.321 27.3033 31.2438 27.2993C31.165 27.2954 31.0855 27.3259 31.0202 27.3987L31.0202 27.3987L31.0196 27.3993C30.7814 27.674 30.4054 27.7391 30.0007 27.7041C29.5972 27.6692 29.1788 27.5357 28.8714 27.4292L28.8714 27.4292L28.8708 27.429C28.7774 27.398 28.6927 27.4102 28.6258 27.4518C28.5602 27.4926 28.5156 27.5593 28.495 27.6314C28.4537 27.7753 28.5051 27.9573 28.6963 28.021C29.1037 28.1636 29.6263 28.3097 30.1308 28.3255C30.6353 28.3412 31.1302 28.2267 31.4695 27.8378Z" fill="white" stroke="white" stroke-width="0.1"/>
<path d="M28.6733 28.987V28.9673V28.8873C29.2886 29.6944 30.6503 29.5046 31.3962 29.0123L31.4226 29.0548C31.4228 29.0547 31.423 29.0546 31.4232 29.0544C31.5066 29.0023 31.5506 28.928 31.562 28.849C31.5733 28.7713 31.5527 28.6924 31.5136 28.628C31.4747 28.5637 31.4148 28.51 31.3427 28.4866C31.269 28.4627 31.1866 28.472 31.1095 28.5271C30.863 28.6861 30.4594 28.8255 30.0673 28.8548C29.6725 28.8844 29.3081 28.8016 29.1186 28.5393C29.0015 28.3751 28.8076 28.3783 28.6779 28.4556C28.6127 28.4944 28.5587 28.5543 28.5362 28.6274C28.5131 28.7024 28.5252 28.7859 28.583 28.8644L28.6733 28.987Z" fill="white" stroke="white" stroke-width="0.1"/>
<path d="M31.4217 30.0763L31.4218 30.0764L31.4246 30.0744C31.4881 30.0304 31.5327 29.9641 31.5495 29.8887C31.5663 29.8134 31.554 29.7345 31.5152 29.6677C31.4763 29.601 31.4137 29.5513 31.3398 29.5284C31.2659 29.5056 31.1861 29.5112 31.1162 29.5442L31.1161 29.5441L31.1123 29.5462C30.8293 29.711 30.4069 29.8484 29.9982 29.8691C29.5882 29.8898 29.2053 29.7929 28.9837 29.5056L28.9837 29.5056L28.9832 29.505C28.923 29.4294 28.8471 29.3957 28.7699 29.3984C28.6947 29.401 28.6247 29.4379 28.572 29.491C28.4672 29.5966 28.4178 29.7822 28.5389 29.9395C28.8603 30.3569 29.3944 30.503 29.935 30.4906C30.4762 30.4782 31.0352 30.3071 31.4217 30.0763Z" fill="white" stroke="white" stroke-width="0.1"/>
<path d="M28.4688 30.9193L28.4802 30.9534H28.5162H28.517C28.61 31.1872 28.8051 31.3176 29.0227 31.3924C29.2494 31.4703 29.5077 31.4905 29.7167 31.5038C29.9288 31.5173 30.2559 31.5173 30.5726 31.4666C30.8864 31.4164 31.2027 31.3145 31.38 31.1143C31.5132 30.9656 31.4677 30.7801 31.3625 30.674C31.3097 30.6207 31.2386 30.5836 31.1617 30.5804C31.0831 30.577 31.0041 30.6094 30.9393 30.6843C30.8411 30.7977 30.6666 30.8495 30.4678 30.8715C30.3306 30.8867 30.1913 30.887 30.068 30.8873C30.0135 30.8874 29.962 30.8876 29.9153 30.889C29.8389 30.889 29.6438 30.8889 29.4559 30.8671C29.3615 30.8562 29.2711 30.84 29.1993 30.8165C29.1244 30.792 29.0828 30.7636 29.0682 30.7372C29.0351 30.6773 28.9708 30.6382 28.9042 30.6163C28.8365 30.5939 28.7583 30.5865 28.6866 30.5965C28.6157 30.6063 28.5441 30.6342 28.4982 30.6895C28.4499 30.7478 28.4378 30.8268 28.4688 30.9193Z" fill="white" stroke="white" stroke-width="0.1"/>
<path d="M31.2885 32.0291L31.2887 32.0295L31.2936 32.0256C31.3713 31.9637 31.4065 31.8866 31.4045 31.8083C31.4026 31.7319 31.3655 31.6612 31.3122 31.6081C31.2074 31.5037 31.0229 31.4536 30.8697 31.5714C30.5543 31.7363 30.2009 31.8159 29.8449 31.8022C29.4873 31.7886 29.1397 31.6813 28.8371 31.4913L28.8372 31.4911L28.8328 31.4889C28.6522 31.399 28.4852 31.4914 28.4105 31.6208C28.3731 31.6857 28.3561 31.7637 28.3731 31.8382C28.3904 31.9144 28.442 31.9813 28.5307 32.0229L28.5303 32.0237L28.5399 32.0261L28.5681 32.0331C28.9769 32.281 29.4463 32.4122 29.925 32.4122C30.4063 32.4122 30.8782 32.2796 31.2885 32.0291Z" fill="white" stroke="white" stroke-width="0.1"/>
<path d="M29.5994 33.5011L29.5994 33.5011C30.2144 33.558 30.8315 33.4156 31.3587 33.0951C31.4445 33.0481 31.4909 32.9778 31.5032 32.9004C31.5152 32.8246 31.4937 32.747 31.4542 32.6836C31.4146 32.62 31.3545 32.5664 31.2831 32.5404C31.2104 32.5139 31.1274 32.5168 31.0489 32.5654L31.0752 32.6079L31.0493 32.5651C30.6734 32.7927 30.2407 32.9102 29.8008 32.9041L29.8008 32.9041H29.8001C29.6927 32.9041 29.5162 32.904 29.3527 32.876C29.271 32.862 29.195 32.8414 29.1335 32.8117C29.0719 32.782 29.029 32.7452 29.0067 32.7009C28.9686 32.6251 28.8995 32.5886 28.8265 32.5803C28.755 32.5721 28.6779 32.5904 28.6123 32.6246C28.5469 32.6587 28.4876 32.7116 28.4565 32.7784C28.4246 32.847 28.4245 32.9268 28.4725 33.0052C28.579 33.2156 28.7686 33.3303 28.9745 33.3968C29.1765 33.4619 29.4006 33.4827 29.589 33.5001C29.5925 33.5004 29.5959 33.5008 29.5994 33.5011Z" fill="white" stroke="white" stroke-width="0.1"/>
<path d="M20.7269 28.2208L20.7269 28.2208V28.2222C20.7269 28.5788 20.7316 28.9369 20.7364 29.2959C20.7511 30.4152 20.766 31.5424 20.6381 32.6554L20.6377 32.6554V32.6611C20.6377 32.7585 20.6736 32.8353 20.7317 32.887C20.7888 32.9379 20.8638 32.9615 20.9378 32.9608C21.0857 32.9595 21.2424 32.8603 21.2635 32.6666C21.3441 31.9401 21.3552 31.2031 21.3518 30.4614C21.351 30.2649 21.3491 30.0681 21.3472 29.8711C21.3419 29.3237 21.3366 28.7745 21.3529 28.2237L21.353 28.2237V28.2222C21.353 28.1256 21.3144 28.05 21.2543 27.9992C21.1953 27.9494 21.1184 27.9258 21.0433 27.9258C20.9681 27.9258 20.8909 27.9494 20.831 27.9989C20.7701 28.0492 20.7295 28.1243 20.7269 28.2208Z" fill="white" stroke="white" stroke-width="0.1"/>
<path d="M23.518 28.1211L23.518 28.1211L23.518 28.1217C23.6082 28.8756 23.623 29.6365 23.5624 30.3934L23.5624 30.3939C23.5355 30.7866 23.5355 31.1811 23.5366 31.5727C23.5367 31.5896 23.5367 31.6066 23.5368 31.6235C23.5379 31.9984 23.539 32.3705 23.5178 32.7382L23.5177 32.7382V32.7411C23.5177 32.8385 23.5535 32.9156 23.6113 32.9679C23.6682 33.0195 23.7431 33.0441 23.8173 33.0441C23.9661 33.0441 24.1226 32.9441 24.1435 32.7464L24.1435 32.7459C24.1855 32.3042 24.1714 31.8441 24.1574 31.3904C24.1506 31.167 24.1438 30.9453 24.1437 30.728C24.2195 29.8574 24.2194 28.982 24.1435 28.1114L24.1436 28.1114L24.1433 28.109C24.1168 27.9141 23.9496 27.8194 23.8006 27.8194C23.7256 27.8194 23.6498 27.8429 23.5945 27.8944C23.5378 27.9471 23.5075 28.0248 23.518 28.1211Z" fill="white" stroke="white" stroke-width="0.1"/>
<path d="M24.9729 32.6483L24.9708 32.6484C24.8884 31.6081 24.8891 30.5628 24.9729 29.5225C25.0088 29.0993 24.9967 28.6698 24.9848 28.2449C24.9789 28.0345 24.973 27.8253 24.973 27.6185C24.973 27.2984 24.9731 26.9822 25.0171 26.6666C25.0386 26.513 25.0187 26.3879 25.0017 26.2807C25.0001 26.2704 24.9985 26.2603 24.997 26.2504C24.9793 26.1357 24.9705 26.0438 25.0136 25.9424C25.0746 25.799 24.9959 25.6368 24.8883 25.5518C24.8329 25.5081 24.7637 25.4792 24.6917 25.4847C24.6176 25.4904 24.5493 25.5319 24.4977 25.6116L24.4967 25.6109L24.4928 25.6214C24.3723 25.9457 24.3375 26.2955 24.3916 26.637C24.3916 27.3729 24.3915 28.1157 24.3471 28.8495L24.347 28.8495V28.8526C24.347 29.2772 24.3361 29.6993 24.3252 30.1209C24.3034 30.9623 24.2817 31.8015 24.347 32.6543C24.3476 32.7511 24.3892 32.8266 24.4514 32.8771C24.5129 32.927 24.5926 32.9513 24.6696 32.952C24.7466 32.9526 24.8257 32.9296 24.8848 32.8787C24.9454 32.8263 24.9808 32.7478 24.9729 32.6483Z" fill="white" stroke="white" stroke-width="0.1"/>
<path d="M27.4326 26.1279L27.4324 26.1279L27.4321 26.1325C27.3606 27.1688 27.3605 28.2087 27.432 29.245V29.2469V29.2505V29.2542V29.2578V29.2614V29.2651V29.2687V29.2724V29.276V29.2797V29.2833V29.2869V29.2906V29.2942V29.2979V29.3015V29.3051V29.3088V29.3124V29.3161V29.3197V29.3234V29.327V29.3306V29.3343V29.3379V29.3416V29.3452V29.3488V29.3525V29.3561V29.3598V29.3634V29.367V29.3707V29.3743V29.378V29.3816V29.3853V29.3889V29.3925V29.3962V29.3998V29.4035V29.4071V29.4107V29.4144V29.418V29.4217V29.4253V29.429V29.4326V29.4362V29.4399V29.4435V29.4472V29.4508V29.4544V29.4581V29.4617V29.4654V29.469V29.4726V29.4763V29.4799V29.4836V29.4872V29.4909V29.4945V29.4981V29.5018V29.5054V29.5091V29.5127V29.5163V29.52V29.5236V29.5273V29.5309V29.5345V29.5382V29.5418V29.5455V29.5491V29.5528V29.5564V29.56V29.5637V29.5673V29.571V29.5746V29.5782V29.5819V29.5855V29.5892V29.5928V29.5965V29.6001V29.6037V29.6074V29.611V29.6147V29.6183V29.6219V29.6256V29.6292V29.6329V29.6365V29.6401V29.6438V29.6474V29.6511V29.6547V29.6584V29.662V29.6656V29.6693V29.6729V29.6766V29.6802V29.6838V29.6875V29.6911V29.6948V29.6984V29.702V29.7057V29.7093V29.713V29.7166V29.7203V29.7239V29.7275V29.7312V29.7348V29.7385V29.7421V29.7457V29.7494V29.753V29.7567V29.7603V29.764V29.7676V29.7712V29.7749V29.7785V29.7822V29.7858V29.7894V29.7931V29.7967V29.8004V29.804V29.8076V29.8113V29.8149V29.8186V29.8222V29.8259V29.8295V29.8331V29.8368V29.8404V29.8441V29.8477V29.8513V29.855V29.8586V29.8623V29.8659V29.8696V29.8732V29.8768V29.8805V29.8841V29.8878V29.8914V29.895V29.8987V29.9023V29.906V29.9096V29.9132V29.9169V29.9205V29.9242V29.9278V29.9315V29.9351V29.9387V29.9424V29.946V29.9497V29.9533V29.9569V29.9606V29.9642V29.9679V29.9715V29.9751V29.9788V29.9824V29.9861V29.9897V29.9934V29.997V30.0006V30.0043V30.0079V30.0116V30.0152V30.0188V30.0225V30.0261V30.0298V30.0334V30.0371V30.0407V30.0443V30.048V30.0516V30.0553V30.0589V30.0625V30.0662V30.0698V30.0735V30.0771V30.0807V30.0844V30.088V30.0917V30.0953V30.099V30.1026V30.1062V30.1099V30.1135V30.1172V30.1208V30.1244V30.1281V30.1317V30.1354V30.139V30.1426V30.1463V30.1499V30.1536V30.1572V30.1609V30.1645V30.1681V30.1718V30.1754V30.1791V30.1827V30.1863V30.19V30.1936V30.1973V30.2009V30.2046V30.2082V30.2118V30.2155V30.2191V30.2228V30.2264V30.23V30.2337V30.2373V30.241V30.2446V30.2482V30.2519V30.2555V30.2592V30.2628V30.2665V30.2701V30.2737V30.2774V30.281V30.2847V30.2883V30.2919V30.2956V30.2992V30.3029V30.3065V30.3102V30.3138V30.3174V30.3211V30.3247V30.3284V30.332V30.3356V30.3393V30.3429V30.3466V30.3502V30.3538V30.3575V30.3611V30.3648V30.3684V30.3721V30.3757V30.3793V30.383V30.3866V30.3903V30.3939V30.3975V30.4012V30.4048V30.4085V30.4121V30.4157V30.4194V30.423V30.4267V30.4303V30.434V30.4376V30.4412V30.4449V30.4485V30.4522V30.4558V30.4594V30.4631V30.4667V30.4704V30.474V30.4777V30.4813V30.4849V30.4886V30.4922V30.4959V30.4995V30.5031V30.5068V30.5104V30.5141V30.5177V30.5213V30.525V30.5286V30.5323V30.5359V30.5396V30.5432V30.5468V30.5505V30.5541V30.5578V30.5614V30.565V30.5687V30.5723V30.576V30.5796V30.5832V30.5869V30.5905V30.5942V30.5978V30.6015V30.6051V30.6087V30.6124V30.616V30.6197V30.6233V30.6269V30.6306V30.6342V30.6379V30.6415V30.6452V30.6488V30.6524V30.6561V30.6597V30.6634V30.667V30.6706V30.6743V30.6779V30.6816V30.6852V30.6888V30.6925V30.6961V30.6998V30.7034V30.7071V30.7107V30.7143V30.718V30.7216V30.7253V30.7289V30.7325V30.7362V30.7398V30.7435V30.7471V30.7508V30.7544V30.758V30.7617V30.7653V30.769V30.7726V30.7762V30.7799V30.7835V30.7872V30.7908V30.7944V30.7981V30.8017V30.8054V30.809V30.8127V30.8163V30.8199V30.8236V30.8272V30.8309V30.8345V30.8381V30.8418V30.8454V30.8491V30.8527V30.8563V30.86V30.8636V30.8673V30.8709V30.8746V30.8782V30.8818V30.8855V30.8891V30.8928V30.8964V30.9V30.9037V30.9073V30.911V30.9146V30.9183V30.9219V30.9255V30.9292V30.9328V30.9365V30.9401V30.9437V30.9474V30.951V30.9547V30.9583V30.9619V30.9656V30.9692V30.9729V30.9765V30.9802V30.9838V30.9874V30.9911V30.9947V30.9984V31.002V31.0056V31.0093V31.0129V31.0166V31.0202V31.0238V31.0275V31.0311V31.0348V31.0384V31.0421V31.0457V31.0493V31.053V31.0566V31.0603V31.0639V31.0675V31.0712V31.0748V31.0785V31.0821V31.0858V31.0894V31.093V31.0967V31.1003V31.104V31.1076C27.432 31.2407 27.4369 31.3747 27.4417 31.5063C27.4425 31.5294 27.4433 31.5524 27.4441 31.5753C27.4496 31.7294 27.4537 31.8796 27.4487 32.0236C27.4388 32.3124 27.3925 32.5695 27.2533 32.7753L27.2533 32.7753L27.253 32.7758C27.1985 32.8585 27.1887 32.9435 27.2127 33.0187C27.2362 33.0923 27.2904 33.1516 27.3554 33.1894C27.4841 33.2642 27.6738 33.2627 27.7815 33.0984C27.961 32.8601 28.0524 32.5673 28.0402 32.2696V32.2665V32.2624V32.2583V32.2542V32.2501V32.2459V32.2418V32.2377V32.2336V32.2295V32.2254V32.2213V32.2172V32.2131V32.209V32.2049V32.2008V32.1967V32.1926V32.1885V32.1843V32.1802V32.1761V32.172V32.1679V32.1638V32.1597V32.1556V32.1515V32.1474V32.1433V32.1392V32.1351V32.131V32.1269V32.1228V32.1187V32.1146V32.1105V32.1064V32.1023V32.0982V32.0941V32.09V32.0859V32.0818V32.0777V32.0736V32.0695V32.0654V32.0613V32.0572V32.0531V32.049V32.0449V32.0408V32.0367V32.0326V32.0285V32.0244V32.0203V32.0162V32.0121V32.008V32.0039V31.9998V31.9957V31.9916V31.9875V31.9834V31.9793V31.9752V31.9711V31.967V31.9629V31.9588V31.9547V31.9506V31.9465V31.9424V31.9383V31.9342V31.9301V31.926V31.9219V31.9179V31.9138V31.9097V31.9056V31.9015V31.8974V31.8933V31.8892V31.8851V31.881V31.8769V31.8728V31.8687V31.8646V31.8605V31.8564V31.8524V31.8483V31.8442V31.8401V31.836V31.8319V31.8278V31.8237V31.8196V31.8155V31.8114V31.8073V31.8032V31.7992V31.7951V31.791V31.7869V31.7828V31.7787V31.7746V31.7705V31.7664V31.7623V31.7582V31.7542V31.7501V31.746V31.7419V31.7378V31.7337V31.7296V31.7255V31.7214V31.7173V31.7133V31.7092V31.7051V31.701V31.6969V31.6928V31.6887V31.6846V31.6805V31.6765V31.6724V31.6683V31.6642V31.6601V31.656V31.6519V31.6478V31.6438V31.6397V31.6356V31.6315V31.6274V31.6233V31.6192V31.6151V31.6111V31.607V31.6029V31.5988V31.5947V31.5906V31.5865V31.5824V31.5784V31.5743V31.5702V31.5661V31.562V31.5579V31.5538V31.5498V31.5457V31.5416V31.5375V31.5334V31.5293V31.5252V31.5212V31.5171V31.513V31.5089V31.5048V31.5007V31.4966V31.4926V31.4885V31.4844V31.4803V31.4762V31.4721V31.468V31.464V31.4599V31.4558V31.4517V31.4476V31.4435V31.4395V31.4354V31.4313V31.4272V31.4231V31.419V31.4149V31.4109V31.4068V31.4027V31.3986V31.3945V31.3904V31.3864V31.3823V31.3782V31.3741V31.37V31.3659V31.3619V31.3578V31.3537V31.3496V31.3455V31.3414V31.3374V31.3333V31.3292V31.3251V31.321V31.3169V31.3129V31.3088V31.3047V31.3006V31.2965V31.2924V31.2883V31.2843V31.2802V31.2761V31.272V31.2679V31.2638V31.2598V31.2557V31.2516V31.2475V31.2434V31.2393V31.2353V31.2312V31.2271V31.223V31.2189V31.2148V31.2108V31.2067V31.2026V31.1985V31.1944V31.1903V31.1863V31.1822V31.1781V31.174V31.1699V31.1658V31.1618V31.1577V31.1536V31.1495V31.1454V31.1413V31.1373V31.1332V31.1291V31.125V31.1209V31.1168V31.1128V31.1087V31.1046V31.1005V31.0964V31.0923V31.0883V31.0842V31.0801V31.076V31.0719V31.0678V31.0637V31.0597V31.0556V31.0515V31.0474V31.0433V31.0392V31.0352V31.0311V31.027V31.0229V31.0188V31.0147V31.0107V31.0066V31.0025V30.9984V30.9943V30.9902V30.9861V30.9821V30.978V30.9739V30.9698V30.9657V30.9616V30.9576V30.9535V30.9494V30.9453V30.9412V30.9371V30.933V30.929V30.9249V30.9208V30.9167V30.9126V30.9085V30.9044V30.9004V30.8963V30.8922V30.8881V30.884V30.8799V30.8758V30.8717V30.8677V30.8636V30.8595V30.8554V30.8513V30.8472V30.8431V30.8391V30.835V30.8309V30.8268V30.8227V30.8186V30.8145V30.8104V30.8064V30.8023V30.7982V30.7941V30.79V30.7859V30.7818V30.7777V30.7737V30.7696V30.7655V30.7614V30.7573V30.7532V30.7491V30.745V30.7409V30.7369V30.7328V30.7287V30.7246V30.7205V30.7164V30.7123V30.7082V30.7041V30.7V30.696V30.6919V30.6878V30.6837V30.6796V30.6755V30.6714V30.6673V30.6632V30.6591V30.6551V30.651V30.6469V30.6428V30.6387V30.6346V30.6305V30.6264V30.6223V30.6182V30.6141V30.61V30.606V30.6019V30.5978V30.5937V30.5896V30.5855V30.5814V30.5773V30.5732V30.5691V30.565V30.5609V30.5568V30.5527V30.5486V30.5445V30.5405V30.5364V30.5323V30.5282V30.5241V30.52V30.5159V30.5118V30.5077V30.5036V30.4995V30.4954V30.4913V30.4872V30.4831V30.479V30.4749V30.4708V30.4667V30.4626V30.4585V30.4544V30.4503V30.4462V30.4421V30.438V30.4339V30.4299V30.4258V30.4217V30.4176V30.4135V30.4094V30.4053V30.4012V30.3971V30.393V30.3889V30.3848V30.3807V30.3766V30.3725V30.3684V30.3643V30.3602V30.3561V30.352V30.3479V30.3437V30.3396V30.3355V30.3314V30.3273V30.3232V30.3191V30.315V30.3109V30.3068V30.3027V30.2986V30.2945V30.2904V30.2863V30.2822V30.2781V30.274V30.2699V30.2658V30.2617V30.2576V30.2535V30.2494V30.2453V30.2411V30.237V30.2329V30.2288V30.2247V30.2206V30.2165V30.2124V30.2083V30.2042V30.2001V30.196V30.1919V30.1877V30.1836V30.1795V30.1754V30.1713V30.1672V30.1631V30.159V30.1549V30.1508V30.1468V30.1427V30.1386V30.1345V30.1305V30.1264V30.1223V30.1183V30.1142V30.1102V30.1061V30.1021V30.0981V30.094V30.09V30.086V30.082V30.0779V30.0739V30.0699V30.0659V30.0619V30.0579V30.0539V30.0499V30.0459V30.042V30.038V30.034V30.03V30.0261V30.0221V30.0181V30.0142V30.0102V30.0063V30.0023V29.9984V29.9944V29.9905V29.9866V29.9826V29.9787V29.9748V29.9709V29.967V29.963V29.9591V29.9552V29.9513V29.9474V29.9435V29.9396V29.9358V29.9319V29.928V29.9241V29.9202V29.9164V29.9125V29.9086V29.9048V29.9009V29.8971V29.8932V29.8894V29.8855V29.8817V29.8778V29.874V29.8702V29.8663V29.8625V29.8587V29.8549V29.851V29.8472V29.8434V29.8396V29.8358V29.832V29.8282V29.8244V29.8206V29.8168V29.8131V29.8093V29.8055V29.8017V29.7979V29.7942V29.7904V29.7866V29.7829V29.7791V29.7754V29.7716V29.7679V29.7641V29.7604V29.7566V29.7529V29.7491V29.7454V29.7417V29.738V29.7342V29.7305V29.7268V29.7231V29.7194V29.7156V29.7119V29.7082V29.7045V29.7008V29.6971V29.6934V29.6897V29.686V29.6824V29.6787V29.675V29.6713V29.6676V29.664V29.6603V29.6566V29.653V29.6493V29.6456V29.642V29.6383V29.6347V29.631V29.6274V29.6237V29.6201V29.6164V29.6128V29.6091V29.6055V29.6019V29.5982V29.5946V29.591V29.5874V29.5837V29.5801V29.5765V29.5729V29.5693V29.5657V29.5621V29.5585V29.5549V29.5513V29.5477V29.5441V29.5405V29.5369V29.5333V29.5297V29.5261V29.5225V29.5189V29.5154V29.5118V29.5082V29.5046V29.5011V29.4975V29.4939V29.4904V29.4868V29.4832V29.4797V29.4761V29.4726V29.469V29.4655V29.4619V29.4584V29.4548V29.4513V29.4477V29.4442V29.4407V29.4371V29.4336V29.43V29.4265V29.423V29.4195V29.4159V29.4124V29.4089V29.4054V29.4018V29.3983V29.3948V29.3913V29.3878V29.3843V29.3808V29.3773V29.3738V29.3702V29.3667V29.3632V29.3597V29.3562V29.3528V29.3493V29.3458V29.3423V29.3388V29.3353V29.3318V29.3283V29.3248V29.3214V29.3179V29.3144V29.3109V29.3074V29.304V29.3005V29.297V29.2935V29.2901V29.2866V29.2831V29.2797V29.2762V29.2727V29.2693V29.2658V29.2624V29.2589V29.2554V29.252V29.2485V29.2451V29.2416V29.2382V29.2347V29.2313V29.2278V29.2244V29.2209V29.2175V29.214V29.2106V29.2072V29.2037V29.2003V29.1968V29.1934V29.19V29.1865V29.1831V29.1797V29.1762V29.1728V29.1694V29.1659V29.1625V29.1591V29.1557V29.1522V29.1488V29.1454V29.142V29.1385V29.1351V29.1317V29.1283V29.1249V29.1214V29.118V29.1146V29.1112V29.1078V29.1044V29.1009V29.0975V29.0941V29.0907V29.0873V29.0839V29.0805V29.0771V29.0737V29.0703V29.0668V29.0634V29.06V29.0566V29.0532V29.0498V29.0464V29.043V29.0396V29.0362V29.0328V29.0294V29.026V29.0226V29.0192V29.0158V29.0124V29.009V29.0056V29.0022V28.9988V28.9954V28.992V28.9886V28.9852V28.9818V28.9784V28.975V28.9716V28.9682V28.9648V28.9615V28.9581V28.9547V28.9513V28.9479V28.9445V28.9411V28.9377V28.9343V28.9309V28.9275V28.9241V28.9207V28.9173V28.914V28.9106V28.9072V28.9038V28.9004V28.897V28.8936V28.8902V28.8868V28.8834V28.88V28.8766V28.8732V28.8699V28.8665V28.8631V28.8597V28.8563V28.8529V28.8495V28.8461V28.8427V28.8393V28.8359V28.8325V28.8291V28.8257V28.8223V28.819V28.8156V28.8122V28.8088V28.8054V28.802V28.7986V28.7952V28.7918V28.7884V28.785V28.7816V28.7782V28.7748V28.7714V28.768V28.7646V28.7612V28.7578V28.7544V28.751V28.7476V28.7442V28.7408V28.7374V28.734V28.7306V28.7272V28.7238V28.7204V28.7169V28.7135V28.7101V28.7067V28.7033V28.6999V28.6965V28.6931V28.6897V28.6863V28.6828V28.6794V28.676V28.6726V28.6692V28.6658V28.6623V28.6589V28.6555V28.6521V28.6487V28.6452V28.6418V28.6384V28.635V28.6315V28.6281V28.6247V28.6213V28.6178V28.6144V28.611V28.6075V28.6041V28.6007V28.5972V28.5938V28.5904V28.5869V28.5835V28.58V28.5766V28.5732V28.5697V28.5663V28.5628V28.5594V28.5559V28.5525V28.549V28.5456V28.5421V28.5387V28.5352V28.5318V28.5283V28.5249V28.5214V28.5179V28.5145V28.511V28.5075V28.5041V28.5006V28.4971V28.4937V28.4902V28.4867V28.4833V28.4798V28.4763V28.4728V28.4693V28.4659V28.4624V28.4589V28.4554V28.4519V28.4484V28.4449V28.4415V28.438V28.4345V28.431V28.4275V28.424V28.4205V28.417V28.4135V28.41V28.4065V28.4029V28.3994V28.3959V28.3924V28.3889V28.3854V28.3819V28.3783V28.3748V28.3713V28.3678V28.3642V28.3607V28.3572V28.3536V28.3501V28.3466H28.0403L28.0401 28.3433C27.9956 27.6567 27.9956 26.9679 28.0401 26.2813L28.0402 26.2813V26.278C28.0402 26.089 27.9093 25.9537 27.7703 25.9127C27.7004 25.8921 27.6242 25.894 27.5598 25.9297C27.494 25.966 27.448 26.0334 27.4326 26.1279Z" fill="white" stroke="white" stroke-width="0.1"/>
<path d="M28.2345 24.1447L28.2344 24.1447V24.1473V24.148C28.2344 25.3816 28.2344 26.6166 28.2969 27.8519C28.3384 28.6726 28.3246 29.3933 28.3108 30.1173C28.3038 30.4807 28.2968 30.8449 28.2968 31.223H28.296L28.2977 31.2321C28.3112 31.3049 28.3498 31.3705 28.4069 31.4178C28.4639 31.465 28.5357 31.4909 28.6099 31.4909C28.684 31.4909 28.7558 31.465 28.8128 31.4178C28.8699 31.3705 28.9085 31.3049 28.9221 31.2321L28.9229 31.2323V31.223C28.9229 30.8485 28.9288 30.4742 28.9348 30.0998C28.9467 29.3501 28.9586 28.5999 28.9228 27.847C28.8693 26.7195 28.8159 25.3808 28.8604 24.1491L28.8605 24.1491V24.1473C28.8605 24.0493 28.8231 23.9721 28.7638 23.92C28.7055 23.8687 28.6292 23.8443 28.5541 23.8443C28.4039 23.8443 28.2451 23.9441 28.2345 24.1447Z" fill="white" stroke="white" stroke-width="0.1"/>
<path d="M28.2977 31.347L28.2977 31.347L28.2976 31.3472C28.2027 31.8698 28.2464 32.4081 28.4245 32.9087L28.4242 32.9089L28.427 32.9144C28.4716 33.0033 28.5415 33.0517 28.6197 33.0646C28.6957 33.0771 28.7738 33.0553 28.8379 33.0155C28.9021 32.9756 28.9568 32.915 28.9836 32.8434C29.0103 32.7722 29.009 32.6912 28.9637 32.6144C28.8487 32.2079 28.8343 31.7797 28.9218 31.3665L28.9238 31.3567L28.922 31.347C28.9085 31.2742 28.8699 31.2085 28.8128 31.1613C28.7558 31.114 28.684 31.0882 28.6098 31.0882C28.5357 31.0882 28.4639 31.114 28.4069 31.1613C28.3498 31.2085 28.3112 31.2742 28.2977 31.347ZM28.3468 31.3561C28.2534 31.8701 28.2965 32.3996 28.4716 32.892L28.3468 31.3561Z" fill="white" stroke="white" stroke-width="0.1"/>
<path d="M31.1064 23.7476L31.1055 23.7474V23.7567C31.1055 24.7561 31.1214 25.7526 31.1373 26.7483C31.169 28.7369 31.2006 30.7224 31.1056 32.721L31.1055 32.721V32.7234C31.1055 32.8214 31.143 32.8982 31.2025 32.9497C31.261 33.0003 31.3374 33.0237 31.4123 33.0231C31.5615 33.0218 31.7208 32.9227 31.7315 32.7261L31.7315 32.7261L31.7315 32.7252C31.8029 30.7239 31.7791 28.7334 31.7553 26.7431C31.7435 25.748 31.7316 24.7531 31.7316 23.7567H31.7324L31.7307 23.7476C31.7172 23.6749 31.6786 23.6092 31.6215 23.5619C31.5645 23.5147 31.4927 23.4888 31.4185 23.4888C31.3444 23.4888 31.2726 23.5147 31.2156 23.5619C31.1585 23.6092 31.1199 23.6749 31.1064 23.7476Z" fill="white" stroke="white" stroke-width="0.1"/>
<path d="M15.0813 20.8121L15.0813 20.8122L15.0842 20.813C16.3097 21.1483 17.5916 21.2273 18.8493 21.0451L18.8493 21.0451L18.8512 21.0448C18.9742 21.0223 19.0583 20.9576 19.1031 20.8708C19.1471 20.7857 19.1505 20.6848 19.1243 20.5925C19.0723 20.4086 18.8962 20.2402 18.6475 20.2803C17.5271 20.4342 16.3868 20.3561 15.2981 20.0508L15.2981 20.0507L15.2954 20.0501C15.1961 20.0282 15.0922 20.0449 15.0049 20.097C14.9176 20.149 14.8537 20.2324 14.8262 20.33C14.7987 20.4277 14.8099 20.5321 14.8574 20.6218C14.9049 20.7115 14.985 20.7796 15.0813 20.8121Z" fill="white" stroke="white" stroke-width="0.1"/>
<path d="M10.9549 27.8824L10.9549 27.8825C10.8826 29.4152 11.6212 30.716 12.71 31.6995C13.7979 32.6823 15.2389 33.3517 16.5837 33.6243C17.6746 33.9197 18.8367 33.8013 19.8449 33.2921C19.9035 33.2644 19.9555 33.2244 19.9973 33.1748C20.0392 33.1251 20.0698 33.0668 20.087 33.0042C20.1041 32.9415 20.1075 32.8758 20.0967 32.8117C20.086 32.748 20.0617 32.6874 20.0254 32.6339C19.9998 32.5928 19.9653 32.558 19.9246 32.5318C19.8835 32.5055 19.8369 32.4887 19.7885 32.4826C19.74 32.4766 19.6907 32.4815 19.6444 32.497C19.6 32.5117 19.5594 32.5359 19.5252 32.5676C18.4844 33.1753 17.5839 33.0643 16.2871 32.7194L16.287 32.7193C14.958 32.3709 13.7081 31.639 12.8631 30.6337C12.0189 29.6293 11.5788 28.3527 11.8652 26.9092L11.8653 26.9086C12.0733 25.7898 12.5891 24.735 13.2085 23.724C13.5851 23.1093 13.9976 22.5144 14.4019 21.9314C14.6638 21.5536 14.9223 21.1808 15.1653 20.8109L15.2093 20.7496L15.2094 20.7496L15.2111 20.7469C15.2462 20.6906 15.2655 20.6259 15.267 20.5596C15.2684 20.4933 15.2519 20.4279 15.2192 20.3701C15.1865 20.3124 15.1389 20.2645 15.0812 20.2314C15.0253 20.1993 14.962 20.1824 14.8975 20.1821C14.8271 20.1676 14.7538 20.1754 14.6879 20.2045C14.6208 20.2342 14.565 20.2845 14.5286 20.3481C14.3106 20.6809 14.0825 21.017 13.8517 21.3571C13.2967 22.175 12.7257 23.0164 12.2395 23.8922C11.5499 25.134 11.0267 26.4512 10.9549 27.8824Z" fill="white" stroke="white" stroke-width="0.1"/>
<path d="M22.6893 26.3972L22.6895 26.3972C22.7788 26.3725 22.8658 26.3184 22.924 26.2491C22.9819 26.1802 23.0166 26.0887 22.9819 25.9952C22.6314 24.913 21.9831 23.9379 21.26 23.0123C20.9462 22.6108 20.6178 22.2178 20.2931 21.8293C20.2435 21.7698 20.1939 21.7105 20.1444 21.6512C19.7716 21.2044 19.4075 20.7626 19.0785 20.3178L19.0786 20.3178L19.0767 20.3155C19.0377 20.2688 18.9888 20.2313 18.9337 20.2056C18.8785 20.1799 18.8184 20.1666 18.7575 20.1666C18.6966 20.1666 18.6364 20.1799 18.5813 20.2056C18.5267 20.2311 18.4783 20.268 18.4395 20.3139C18.3822 20.3729 18.3501 20.4518 18.3501 20.534C18.3501 20.6156 18.3818 20.6939 18.4383 20.7528L18.6502 21.0429L18.6502 21.0429L18.6507 21.0435C18.9726 21.4709 19.3128 21.8769 19.6513 22.2767C19.689 22.3212 19.7267 22.3657 19.7644 22.41C20.0649 22.7645 20.3624 23.1154 20.644 23.4746C21.2777 24.2826 21.8286 25.1293 22.147 26.1421L22.1461 26.1423L22.1506 26.1507C22.1559 26.1606 22.1617 26.1721 22.1679 26.1843C22.1798 26.2078 22.193 26.234 22.2069 26.2572C22.2292 26.2948 22.2576 26.3334 22.2981 26.3643C22.3821 26.4285 22.5029 26.4483 22.6893 26.3972Z" fill="white" stroke="white" stroke-width="0.1"/>
<path d="M15.3951 18.8205V18.8625L15.4364 18.8698C16.0303 18.9746 16.6381 18.9749 17.2322 18.8706C17.7771 18.8819 18.3187 18.784 18.8249 18.5829L18.8253 18.5838L18.8334 18.5786C18.9391 18.5109 18.9943 18.4166 19.0085 18.317C19.0225 18.2187 18.9964 18.1187 18.9461 18.0365C18.8959 17.9544 18.8195 17.8866 18.7284 17.8561C18.6386 17.826 18.5375 17.8332 18.4405 17.8939L18.0592 17.9543C17.744 17.9967 17.4286 18.0228 17.1196 18.0484C17.1069 18.0495 17.0942 18.0505 17.0815 18.0516L17.0815 18.0515L17.078 18.052C16.5994 18.1264 16.1122 18.1265 15.6337 18.0524C15.5342 18.0264 15.4284 18.0404 15.3392 18.0915C15.2491 18.143 15.1832 18.2281 15.1561 18.328C15.129 18.428 15.1428 18.5346 15.1946 18.6244C15.2399 18.7029 15.3109 18.7629 15.3951 18.7947V18.8205Z" fill="white" stroke="white" stroke-width="0.1"/>
<path d="M14.0666 16.53V16.5403L14.0707 16.5497C14.2545 16.9794 14.4728 17.3936 14.7237 17.7883C14.8847 18.1273 15.1089 18.4328 15.3844 18.6885L15.3841 18.6888L15.389 18.6923C15.4916 18.767 15.5973 18.7835 15.6913 18.7556C15.7836 18.7282 15.8585 18.66 15.9064 18.577C15.9938 18.4256 15.9994 18.2077 15.8415 18.0624C15.841 18.0597 15.8404 18.0576 15.8401 18.0566L15.84 18.0564C15.8364 18.0443 15.8293 18.0317 15.8236 18.0223C15.8171 18.0116 15.809 17.9996 15.8004 17.9873C15.7831 17.9626 15.762 17.9345 15.7434 17.9098L15.7431 17.9094C15.7241 17.8841 15.7086 17.8635 15.7007 17.8517C15.6656 17.7993 15.4699 17.4893 15.3539 17.3027L15.3538 17.3026C15.1542 16.9829 14.9767 16.6501 14.8225 16.3064C14.7304 16.0737 14.4936 16.0108 14.3096 16.0612C14.2169 16.0866 14.1322 16.1417 14.0828 16.224C14.0338 16.3056 14.0233 16.4082 14.0666 16.5218V16.53ZM15.7797 18.0464C15.777 18.042 15.7739 18.0372 15.7705 18.0321C15.7709 18.032 15.7713 18.0318 15.7716 18.0317C15.7803 18.028 15.7879 18.0278 15.7925 18.0281L15.7797 18.0464Z" fill="white" stroke="white" stroke-width="0.1"/>
<path d="M14.013 16.4534C13.924 16.2828 13.984 16.0942 14.0988 15.9788C14.1661 15.9112 14.2555 15.8646 14.3511 15.8605C14.4486 15.8563 14.5466 15.8965 14.6271 15.9916C14.9475 16.3658 15.5044 16.5156 16.0808 16.5222C16.6559 16.5288 17.2361 16.3925 17.5887 16.2104L17.6015 16.2038C17.9557 16.0209 18.275 15.856 18.5992 15.7908C18.9311 15.724 19.2666 15.7617 19.6514 15.9806L19.652 15.9809L19.652 15.9809C19.7421 16.0339 19.8077 16.1201 19.8344 16.221C19.8609 16.3207 19.8472 16.4268 19.7964 16.5167C19.6749 16.8073 19.5225 17.0818 19.3657 17.353C19.3368 17.403 19.3078 17.4528 19.2788 17.5026C19.1494 17.7248 19.0204 17.9465 18.9046 18.1772C18.849 18.2878 18.7625 18.3498 18.6661 18.3694C18.5715 18.3886 18.4722 18.3661 18.389 18.3178C18.2235 18.2219 18.105 18.0118 18.2174 17.7869C18.2175 17.7866 18.2177 17.7863 18.2178 17.7861L18.2625 17.8085C18.3936 17.5204 18.5522 17.2461 18.7115 16.9704C18.7908 16.8332 18.8703 16.6957 18.9466 16.556L14.013 16.4534ZM14.013 16.4534H13.9726L14.0536 16.538C14.3322 16.8291 14.676 17.0505 15.0568 17.1842C15.437 17.3177 15.8435 17.3601 16.2433 17.3079C16.6743 17.2817 17.1001 17.2005 17.5103 17.0662C17.6644 17.0225 17.8128 16.9513 17.9566 16.8767C17.9924 16.8581 18.0279 16.8394 18.0632 16.8207C18.171 16.7638 18.2766 16.7079 18.3838 16.6614C18.552 16.5883 18.719 16.5403 18.8925 16.5508C18.8195 16.6836 18.7437 16.8148 18.6677 16.9462L14.013 16.4534Z" fill="white" stroke="white" stroke-width="0.1"/>
<path d="M15.7315 26.2677C15.3659 26.0511 15.2218 25.7591 15.2458 25.4605C15.2696 25.1664 15.4558 24.8775 15.7256 24.6589L15.7284 24.6566L15.7284 24.6567C16.1865 24.3362 16.7173 24.1339 17.2733 24.0679C17.8292 24.0018 18.3929 24.0741 18.9138 24.2783L18.9119 24.2883C18.9952 24.3183 19.053 24.3731 19.0855 24.4404C19.1223 24.5168 19.1248 24.6052 19.1019 24.6849C19.0563 24.8439 18.9026 24.9849 18.6876 24.9327L18.6805 24.931L18.6807 24.9305C18.2936 24.7744 17.8762 24.7067 17.4593 24.7323C17.0431 24.758 16.6379 24.876 16.2735 25.0778C16.1085 25.1884 16.0133 25.2892 15.969 25.377C15.926 25.4623 15.9302 25.5361 15.9669 25.6023C16.0053 25.6717 16.0822 25.7378 16.1941 25.796C16.305 25.8536 16.4458 25.9012 16.6055 25.9361C16.8088 25.9769 17.0531 25.9783 17.3175 25.9721C17.3724 25.9708 17.4281 25.9691 17.4845 25.9675C17.6974 25.9613 17.9184 25.9548 18.1323 25.965C18.6723 25.9907 19.1905 26.1234 19.4485 26.655C19.6746 27.0874 19.6382 27.4827 19.446 27.8145C19.2553 28.1436 18.9136 28.4068 18.5337 28.587C18.0201 28.8335 17.4522 28.8091 16.8921 28.7121C16.6559 28.6711 16.4192 28.6169 16.1877 28.5639C16.1445 28.554 16.1015 28.5441 16.0586 28.5344C15.7856 28.4724 15.5211 28.4158 15.27 28.3873L15.2697 28.3873C15.0516 28.3614 14.9448 28.1769 14.9448 28.0114C14.9448 27.9282 14.9713 27.8444 15.0287 27.7839C15.0874 27.7219 15.1738 27.6893 15.2814 27.702M15.7315 26.2677C15.7315 26.2677 15.7315 26.2677 15.7315 26.2677L15.7571 26.2247L15.7316 26.2677C15.7316 26.2677 15.7315 26.2677 15.7315 26.2677ZM15.7315 26.2677C16.0756 26.4726 16.4583 26.6048 16.8559 26.656M16.8559 26.656C17.0282 26.6811 17.219 26.6769 17.4123 26.6671C17.4632 26.6645 17.5141 26.6615 17.5651 26.6585C17.7097 26.6501 17.8543 26.6416 17.996 26.642C18.3795 26.6431 18.7189 26.7096 18.9358 27.0003L18.9758 26.9704L18.9357 27.0003C19.0038 27.0921 19.0213 27.1802 19.0083 27.2641C18.9951 27.35 18.9494 27.4357 18.8833 27.5185C18.7516 27.6835 18.5505 27.823 18.4164 27.9121M16.8559 26.656C16.8558 26.656 16.8556 26.656 16.8555 26.6559L16.8627 26.6065L16.8563 26.656C16.8562 26.656 16.856 26.656 16.8559 26.656ZM18.4164 27.9121C17.9958 28.1067 17.5202 28.149 17.0715 28.0318L17.0716 28.0315L17.0663 28.0307C16.8124 27.9924 16.5618 27.9392 16.307 27.885C16.2684 27.8768 16.2297 27.8686 16.1909 27.8604C15.8966 27.7982 15.596 27.7378 15.2814 27.702M18.4164 27.9121C18.4175 27.9116 18.4187 27.9111 18.4198 27.9106L18.4409 27.9559L18.4132 27.9142C18.4143 27.9135 18.4153 27.9128 18.4164 27.9121ZM15.2814 27.702C15.2813 27.702 15.2813 27.702 15.2813 27.702L15.2756 27.7517L15.2815 27.7021C15.2815 27.702 15.2814 27.702 15.2814 27.702Z" fill="white" stroke="white" stroke-width="0.1"/>
<path d="M16.2334 23.3975L16.2334 23.3975C16.4205 25.3484 16.474 27.2999 16.4829 29.2523L16.4821 29.2523L16.4836 29.2608C16.4977 29.3403 16.5394 29.4122 16.6014 29.4641C16.6634 29.5159 16.7418 29.5443 16.8226 29.5443C16.9035 29.5443 16.9819 29.5159 17.0439 29.4641C17.1059 29.4122 17.1476 29.3403 17.1617 29.2608L17.1624 29.2609V29.2521C17.1624 27.2987 17.1 25.3447 16.9217 23.3903C16.921 23.2827 16.875 23.1994 16.8061 23.144C16.7379 23.0892 16.6494 23.063 16.5641 23.063C16.4789 23.063 16.3917 23.0891 16.3273 23.1453C16.2612 23.2028 16.223 23.2887 16.2334 23.3975Z" fill="white" stroke="white" stroke-width="0.1"/>
</g>
<defs>
<clipPath id="clip0_22_1095">
<rect width="42" height="41.8195" fill="white" transform="translate(0 0.875366)"/>
</clipPath>
</defs>
</svg>
