<svg width="42" height="42" viewBox="0 0 42 42" fill="none" xmlns="http://www.w3.org/2000/svg">
<g clip-path="url(#clip0_22_1141)">
<path d="M42.0001 24.5653C42.0001 35.9848 31.116 42 21.0294 42C10.9429 42 0.00012207 35.9848 0.00012207 24.5653C0.00012207 13.1457 10.9429 0 21.0294 0C31.116 0 42.0001 13.159 42.0001 24.5653Z" fill="#D92F89"/>
<path d="M22.2958 22.0078L22.3572 22.0342C22.366 22.4383 21.716 22.4383 21.716 22.0342L22.2958 22.0078ZM22.2958 22.0078H22.3685H22.2958ZM22.3961 21.9436C22.3994 21.5922 22.4294 21.2474 22.4599 20.8974C22.4783 20.6867 22.4968 20.474 22.5098 20.2568L22.5098 20.2568L22.5099 20.2534C22.5251 19.6564 22.4657 19.0598 22.3331 18.4775C22.2727 17.9009 22.2554 17.3206 22.2815 16.7414L22.2816 16.7414V16.7369V16.7352V16.7335V16.7318V16.7302V16.7285V16.7268V16.7251V16.7234V16.7217V16.72V16.7183V16.7166V16.7149V16.7132V16.7115V16.7098V16.7081V16.7064V16.7047V16.703V16.7013V16.6996V16.6979V16.6962V16.6945V16.6928V16.6912V16.6895V16.6878V16.6861V16.6844V16.6827V16.681V16.6793V16.6776V16.6759V16.6742V16.6725V16.6708V16.6691V16.6675V16.6658V16.6641V16.6624V16.6607V16.659V16.6573V16.6556V16.6539V16.6522V16.6505V16.6489V16.6472V16.6455V16.6438V16.6421V16.6404V16.6387V16.637V16.6353V16.6336V16.632V16.6303V16.6286V16.6269V16.6252V16.6235V16.6218V16.6201V16.6184V16.6168V16.6151V16.6134V16.6117V16.61V16.6083V16.6066V16.6049V16.6033V16.6016V16.5999V16.5982V16.5965V16.5948V16.5931V16.5914V16.5898V16.5881V16.5864V16.5847V16.583V16.5813V16.5796V16.5779V16.5763V16.5746V16.5729V16.5712V16.5695V16.5678V16.5661V16.5645V16.5628V16.5611V16.5594V16.5577V16.556V16.5543V16.5527V16.551V16.5493V16.5476V16.5459V16.5442V16.5425V16.5408V16.5392V16.5375V16.5358V16.5341V16.5324V16.5307V16.529V16.5274V16.5257V16.524V16.5223V16.5206V16.5189V16.5172V16.5156V16.5139V16.5122V16.5105V16.5088V16.5071V16.5054V16.5038V16.5021V16.5004V16.4987V16.497V16.4953V16.4936V16.492V16.4903V16.4886V16.4869V16.4852V16.4835V16.4818V16.4802V16.4785V16.4768V16.4751V16.4734V16.4717V16.47V16.4684V16.4667V16.465V16.4633V16.4616V16.4599V16.4582V16.4565V16.4549V16.4532V16.4515V16.4498V16.4481V16.4464V16.4447V16.443V16.4414V16.4397V16.438V16.4363V16.4346V16.4329V16.4312V16.4295V16.4279V16.4262V16.4245V16.4228V16.4211V16.4194V16.4177V16.416V16.4144V16.4127V16.411V16.4093V16.4076V16.4059V16.4042V16.4025V16.4008V16.3991V16.3975V16.3958V16.3941V16.3924V16.3907V16.389V16.3873V16.3856V16.3839V16.3822V16.3806V16.3789V16.3772V16.3755V16.3738V16.3721V16.3704V16.3687V16.367V16.3653V16.3636V16.3619V16.3602V16.3586V16.3569V16.3552V16.3535V16.3518V16.3501V16.3484V16.3467V16.345V16.3433V16.3416V16.3399V16.3382V16.3365V16.3348V16.3331V16.3314V16.3298V16.3281V16.3264V16.3247V16.323V16.3213V16.3196V16.3179V16.3162V16.3145V16.3128V16.3111V16.3094V16.3077V16.306V16.3043V16.3026V16.3009V16.2992V16.2975V16.2958V16.2941V16.2924V16.2907V16.289V16.2873V16.2856V16.2839V16.2822V16.2805V16.2788V16.2771V16.2754V16.2737V16.272V16.2703V16.2686V16.2669V16.2652V16.2635V16.2618V16.2601V16.2584V16.2566V16.2549V16.2532V16.2515V16.2498V16.2481V16.2464V16.2447V16.243V16.2413V16.2396V16.2379V16.2362V16.2345V16.2328V16.231V16.2293V16.2276V16.2259V16.2242V16.2225V16.2208V16.2191V16.2174V16.2157V16.2139V16.2122V16.2105V16.2088V16.2071V16.2054V16.2037V16.202V16.2002V16.1985V16.1968V16.1951V16.1934V16.1917V16.19V16.1882V16.1865V16.1848V16.1831V16.1814V16.1797V16.1779V16.1762V16.1745V16.1728V16.1711V16.1693V16.1676V16.1659V16.1642V16.1625V16.1607V16.159V16.1573V16.1556V16.1539V16.1521V16.1504V16.1487V16.147V16.1452V16.1435V16.1418V16.1401V16.1383V16.1366V16.1349V16.1332V16.1314V16.1297V16.128V16.1263V16.1245V16.1228V16.1211V16.1193V16.1176V16.1159V16.1142V16.1124V16.1107V16.109V16.1072V16.1055V16.1038V16.102V16.1003V16.0986V16.0968V16.0951V16.0934V16.0916V16.0899V16.0881V16.0864V16.0847V16.0829V16.0812V16.0795V16.0777V16.076V16.0742V16.0725V16.0708V16.069V16.0673V16.0655V16.0638V16.0621V16.0603V16.0586V16.0568V16.0551V16.0533V16.0516V16.0498V16.0481V16.0464V16.0446V16.0429V16.0411V16.0394V16.0376V16.0359V16.0341V16.0324V16.0306V16.0289V16.0271V16.0254V16.0236V16.0219V16.0201V16.0184V16.0166V16.0148V16.0131V16.0113V16.0096V16.0078V16.0061V16.0043V16.0026V16.0008V15.999V15.9973V15.9955V15.9938V15.992V15.9902V15.9885V15.9867V15.985V15.9832V15.9814V15.9797V15.9779V15.9761V15.9744V15.9726V15.9708V15.9691V15.9673V15.9655V15.9638V15.962V15.9602V15.9585V15.9567V15.9549V15.9531V15.9514V15.9496V15.9478V15.9461V15.9443V15.9425V15.9407V15.939V15.9372V15.9354V15.9336V15.9318V15.9301V15.9283V15.9265V15.9247V15.9229V15.9212V15.9194V15.9176V15.9158V15.914V15.9123V15.9105V15.9087V15.9069V15.9051V15.9033V15.9015V15.8997V15.898V15.8962V15.8944V15.8926V15.8908V15.889V15.8872V15.8854V15.8836V15.8818V15.88V15.8782V15.8765V15.8747V15.8729V15.8711V15.8693V15.8675V15.8657V15.8639V15.8621V15.8613C22.2971 15.5816 22.2661 15.3014 22.1899 15.0319L22.1864 15.0193L22.1797 15.008C22.0507 14.7908 21.8788 14.6022 21.6745 14.4537C21.4709 14.3058 21.2394 14.2008 20.994 14.1451C20.507 14.0061 20.0033 13.9342 19.4968 13.9313C18.7379 13.8843 17.9717 13.9001 17.2117 13.9157C16.834 13.9235 16.4579 13.9312 16.0849 13.9312H16.0814H16.0779H16.0744H16.0709H16.0674H16.0639H16.0604H16.0569H16.0534H16.0499H16.0464H16.0429H16.0394H16.0359H16.0324H16.0289H16.0254H16.0219H16.0185H16.015H16.0115H16.008H16.0045H16.001H15.9975H15.994H15.9905H15.987H15.9835H15.98H15.9765H15.973H15.9695H15.966H15.9625H15.959H15.9556H15.9521H15.9486H15.9451H15.9416H15.9381H15.9346H15.9311H15.9276H15.9241H15.9206H15.9172H15.9137H15.9102H15.9067H15.9032H15.8997H15.8962H15.8927H15.8892H15.8857H15.8823H15.8788H15.8753H15.8718H15.8683H15.8648H15.8613H15.8579H15.8544H15.8509H15.8474H15.8439H15.8404H15.8369H15.8335H15.83H15.8265H15.823H15.8195H15.816H15.8125H15.8091H15.8056H15.8021H15.7986H15.7951H15.7917H15.7882H15.7847H15.7812H15.7777H15.7742H15.7708H15.7673H15.7638H15.7603H15.7568H15.7534H15.7499H15.7464H15.7429H15.7395H15.736H15.7325H15.729H15.7255H15.7221H15.7186H15.7151H15.7116H15.7082H15.7047H15.7012H15.6977H15.6943H15.6908H15.6873H15.6838H15.6804H15.6769H15.6734H15.6699H15.6665H15.663H15.6595H15.656H15.6526H15.6491H15.6456H15.6422H15.6387H15.6352H15.6317H15.6283H15.6248H15.6213H15.6179H15.6144H15.6109H15.6075H15.604H15.6005H15.597H15.5936H15.5901H15.5866H15.5832H15.5797H15.5762H15.5728H15.5693H15.5658H15.5624H15.5589H15.5554H15.552H15.5485H15.5451H15.5416H15.5381H15.5347H15.5312H15.5277H15.5243H15.5208H15.5173H15.5139H15.5104H15.507H15.5035H15.5H15.4966H15.4931H15.4897H15.4862H15.4827H15.4793H15.4758H15.4724H15.4689H15.4654H15.462H15.4585H15.4551H15.4516H15.4482H15.4447H15.4412H15.4378H15.4343H15.4309H15.4274H15.424H15.4205H15.4171H15.4136H15.4101H15.4067H15.4032H15.3998H15.3963H15.3929H15.3894H15.386H15.3825H15.3791H15.3756H15.3722H15.3687H15.3653H15.3618H15.3584H15.3549H15.3515H15.348H15.3446H15.3411H15.3377H15.3342H15.3308H15.3273H15.3239H15.3204H15.317H15.3135H15.3101H15.3067H15.3032H15.2998H15.2963H15.2929H15.2894H15.286H15.2825H15.2791H15.2757H15.2722H15.2688H15.2653H15.2619H15.2585H15.255H15.2516H15.2481H15.2447H15.2413H15.2378H15.2344H15.2309H15.2275H15.2241H15.2206H15.2172H15.2137H15.2103H15.2069H15.2034H15.2H15.1966H15.1931H15.1897H15.1863H15.1828H15.1794H15.1759H15.1725H15.1691H15.1656H15.1622H15.1588H15.1554H15.1519H15.1485H15.1451H15.1416H15.1382H15.1348H15.1313H15.1279H15.1245H15.121H15.1176H15.1142H15.1108H15.1073H15.1039H15.1005H15.097H15.0936H15.0902H15.0868H15.0833H15.0799H15.0765H15.0731H15.0696H15.0662H15.0628H15.0594H15.0559H15.0525H15.0491H15.0457H15.0423H15.0388H15.0354H15.032H15.0286H15.0252H15.0217H15.0183H15.0149H15.0115H15.0081H15.0046H15.0012H14.9978H14.9944H14.991H14.9875H14.9841H14.9807H14.9773H14.9739H14.9705H14.9671H14.9636H14.9602H14.9568H14.9534H14.95H14.9466H14.9432H14.9397H14.9363H14.9329H14.9295H14.9261H14.9227H14.9193H14.9159H14.9125H14.9091H14.9056H14.9022H14.8988H14.8954H14.892H14.8886H14.8852H14.8818H14.8784H14.875H14.8716H14.8682H14.8648H14.8614H14.858H14.8545H14.8511H14.8477H14.8443H14.8409H14.8375H14.8341H14.8307H14.8273H14.8239H14.8205H14.8171H14.8137H14.8103H14.8069H14.8035H14.8001H14.7967H14.7933H14.7899H14.7865H14.7831H14.7798H14.7764H14.773H14.7696H14.7662H14.7628H14.7594H14.756H14.7526H14.7492H14.7458H14.7424H14.739H14.7356H14.7322H14.7288H14.7255H14.7221H14.7187H14.7153H14.7119H14.7085H14.7051H14.7017H14.6983H14.695H14.6916H14.6882H14.6848H14.6814H14.678H14.6746H14.6713H14.6679H14.6645H14.6611H14.6577H14.6543H14.651H14.6476H14.6442H14.6408H14.6374H14.634H14.6307H14.6273H14.6239H14.6205H14.6171H14.6138H14.6104H14.607H14.6036H14.6003H14.5969H14.5935H14.5901H14.5868H14.5834H14.58H14.5766H14.5733H14.5699H14.5665H14.5631H14.5598H14.5564H14.553H14.5496H14.5463H14.5429H14.5395H14.5362H14.5328H14.5294H14.5261H14.5227H14.5193H14.5159H14.5126H14.5092H14.5058H14.5025H14.4991H14.4957H14.4924H14.489H14.4857H14.4823H14.4789H14.4756H14.4722H14.4688H14.4655H14.4621H14.4588H14.4554H14.452H14.4487H14.4453H14.442H14.4386H14.4352H14.4319H14.4285H14.4252H14.4218H14.4184H14.4151H14.4117H14.4084H14.405H14.4017H14.3983H14.395H14.3916H14.3883H14.3849H14.3815H14.3782H14.3748H14.3715H14.3681H14.3648H14.3614H14.3581H14.3547H14.3514H14.348H14.3447H14.3414H14.338H14.3347H14.3313H14.3288C13.8023 13.9227 13.2835 14.058 12.8282 14.3225L12.8282 14.3224L12.8234 14.3255C12.3552 14.6345 12.1254 15.1011 12.0122 15.606C11.9 16.1066 11.9 16.656 11.9 17.1443L11.9 17.1498C11.9 17.6593 11.9223 18.1673 11.9444 18.6725C11.9484 18.7624 11.9523 18.8521 11.9561 18.9418C11.9813 19.5367 12.0009 20.1285 11.9791 20.7216L11.9791 20.7216V20.7252C11.9791 20.9128 11.9713 21.1038 11.9634 21.2986C11.9608 21.3613 11.9583 21.4243 11.9559 21.4878C11.9464 21.7467 11.941 22.0102 11.9584 22.2693C11.9932 22.7882 12.12 23.2979 12.4953 23.7334L12.4952 23.7335L12.4979 23.7364C12.8852 24.1512 13.4188 24.3988 13.9854 24.4267C14.4474 24.4849 14.9258 24.4911 15.3943 24.4971C15.5638 24.4993 15.732 24.5014 15.8977 24.506L20.0089 24.6202L20.0089 24.6203H20.0117C20.1221 24.6203 20.228 24.5764 20.306 24.4983C20.3841 24.4203 20.428 24.3144 20.428 24.204C20.428 24.0936 20.3841 23.9877 20.306 23.9097C20.2284 23.832 20.1231 23.7882 20.0133 23.7878L16.7467 23.6912L16.7464 23.6912L15.0597 23.6472L15.0597 23.647L15.0532 23.6473C14.6086 23.6646 14.1636 23.6301 13.727 23.5443C13.2621 23.4179 13.0126 23.1134 12.882 22.73C12.7491 22.3396 12.7413 21.8705 12.7675 21.434L12.7675 21.4337C12.8087 20.7156 12.7949 20.002 12.7812 19.293C12.7744 18.9406 12.7676 18.5893 12.7676 18.2391V18.236V18.2329V18.2297V18.2266V18.2234V18.2203V18.2172V18.214V18.2109V18.2077V18.2046V18.2015V18.1983V18.1952V18.192V18.1889V18.1858V18.1826V18.1795V18.1763V18.1732V18.1701V18.1669V18.1638V18.1606V18.1575V18.1544V18.1512V18.1481V18.1449V18.1418V18.1387V18.1355V18.1324V18.1292V18.1261V18.123V18.1198V18.1167V18.1135V18.1104V18.1073V18.1041V18.101V18.0978V18.0947V18.0916V18.0884V18.0853V18.0821V18.079V18.0759V18.0727V18.0696V18.0664V18.0633V18.0602V18.057V18.0539V18.0507V18.0476V18.0445V18.0413V18.0382V18.035V18.0319V18.0288V18.0256V18.0225V18.0194V18.0162V18.0131V18.0099V18.0068V18.0037V18.0005V17.9974V17.9942V17.9911V17.988V17.9848V17.9817V17.9785V17.9754V17.9723V17.9691V17.966V17.9628V17.9597V17.9566V17.9534V17.9503V17.9471V17.944V17.9409V17.9377V17.9346V17.9314V17.9283V17.9252V17.922V17.9189V17.9157V17.9126V17.9095V17.9063V17.9032V17.9V17.8969V17.8938V17.8906V17.8875V17.8843V17.8812V17.8781V17.8749V17.8718V17.8686V17.8655V17.8624V17.8592V17.8561V17.8529V17.8498V17.8467V17.8435V17.8404V17.8372V17.8341V17.831V17.8278V17.8247V17.8215V17.8184V17.8153V17.8121V17.809V17.8058V17.8027V17.7996V17.7964V17.7933V17.7901V17.787V17.7839V17.7807V17.7776V17.7744V17.7713V17.7682V17.765V17.7619V17.7587V17.7556V17.7525V17.7493V17.7462V17.743V17.7399V17.7368V17.7336V17.7305V17.7273V17.7242V17.7211V17.7179V17.7148V17.7116V17.7085V17.7054V17.7022V17.6991V17.6959V17.6928V17.6897V17.6865V17.6834V17.6802V17.6771V17.674V17.6708V17.6677V17.6645V17.6614V17.6583V17.6551V17.652V17.6488V17.6457V17.6426V17.6394V17.6363V17.6331V17.63V17.6269V17.6237V17.6206V17.6174V17.6143V17.6112V17.608V17.6049V17.6017V17.5986V17.5955V17.5923V17.5892V17.586V17.5829V17.5798V17.5766V17.5735V17.5703V17.5672V17.5641V17.5609V17.5578V17.5546V17.5515V17.5484V17.5452V17.5421V17.5389V17.5358V17.5327V17.5295V17.5264V17.5233V17.5201V17.517V17.5138V17.5107V17.5076V17.5044V17.5013V17.4981V17.495V17.4919V17.4887V17.4856V17.4824V17.4793V17.4762V17.473V17.4699V17.4667V17.4636V17.4605V17.4573V17.4542V17.451V17.4479V17.4448V17.4416V17.4385V17.4353V17.4322V17.4291V17.4259V17.4228V17.4196V17.4165V17.4134V17.4102V17.4071V17.4039V17.4008V17.3977V17.3945V17.3914V17.3882V17.3851V17.382V17.3788V17.3757V17.3725V17.3694V17.3663V17.3631V17.36V17.3568V17.3537V17.3506V17.3474V17.3443V17.3411V17.338V17.3349V17.3317V17.3286V17.3254V17.3223V17.3192V17.316V17.3129V17.3097V17.3066V17.3035V17.3003V17.2972V17.294V17.2909V17.2878V17.2846V17.2815V17.2783V17.2752V17.2721V17.2689V17.2658V17.2626V17.2595V17.2564V17.2532V17.2501V17.2469V17.2438V17.2407V17.2375V17.2344V17.2312V17.2281V17.225V17.2218V17.2187V17.2155V17.2124V17.2093V17.2061V17.203V17.1998V17.1967V17.1936V17.1904V17.1873V17.1841V17.181V17.1779V17.1747V17.1716V17.1684V17.1653V17.1622V17.159V17.1559V17.1527V17.1496V17.1465V17.1433V17.1402V17.137V17.1339V17.1308V17.1276V17.1245V17.1213V17.1182V17.1151V17.1119V17.1088V17.1056V17.1025V17.0994V17.0962V17.0931V17.0899V17.0868V17.0837V17.0805V17.0774V17.0742V17.0711V17.068V17.0648V17.0617V17.0585V17.0554V17.0523V17.0491V17.046V17.0429V17.0397V17.0366V17.0334V17.0303V17.0272V17.024V17.0209V17.0177V17.0146V17.0115V17.0083V17.0052V17.002V16.9989V16.9958V16.9926V16.9895V16.9863V16.9832V16.9801V16.9769V16.9738V16.9706V16.9675V16.9644V16.9612V16.9581V16.9549V16.9518V16.9487V16.9455V16.9424V16.9392V16.9361V16.933V16.9298V16.9267V16.9235V16.9204V16.9173V16.9141V16.911V16.9078V16.9047V16.9016V16.8984V16.8953V16.8921V16.889V16.8859V16.8827V16.8796V16.8764V16.8733V16.8702V16.867V16.8639V16.8607V16.8576V16.8545V16.8513V16.8482V16.845V16.8419V16.8388V16.8356V16.8325V16.8293V16.8262V16.8231V16.8199V16.8168V16.8136V16.8105V16.8074V16.8042V16.8011V16.7979V16.7948V16.7917V16.7885V16.7854V16.7822V16.7791V16.776V16.7728V16.7697V16.7665V16.7634V16.7603V16.7571V16.754V16.7508V16.7477V16.7446V16.7414V16.7383V16.7351V16.732V16.7289V16.7257V16.7226V16.7194V16.7163V16.7132V16.71V16.7069V16.7037V16.7006V16.6975V16.6943V16.6912V16.688V16.6849V16.6818V16.6786V16.6755V16.6723V16.6692V16.6661V16.6629V16.6598V16.6566V16.6535V16.6504V16.6472V16.6441V16.6409V16.6378V16.6347V16.6315H12.7677L12.7676 16.6275C12.7501 16.1986 12.8249 15.771 12.9868 15.3735C13.1925 14.9823 13.6027 14.8232 14.0901 14.7675C14.429 14.7287 14.7834 14.7415 15.1093 14.7533C15.2573 14.7586 15.3994 14.7637 15.5315 14.7637H18.7731V14.7642L18.7823 14.7633C19.6709 14.6811 20.5643 14.8561 21.3561 15.2675C21.4479 15.3338 21.4841 15.4057 21.5003 15.4897C21.5141 15.562 21.513 15.6384 21.5115 15.7324C21.511 15.7636 21.5105 15.7966 21.5105 15.8321V15.8337V15.8352V15.8368V15.8383V15.8398V15.8414V15.8429V15.8445V15.8461V15.8476V15.8492V15.8507V15.8523V15.8538V15.8554V15.8569V15.8585V15.8601V15.8616V15.8632V15.8648V15.8663V15.8679V15.8695V15.871V15.8726V15.8742V15.8757V15.8773V15.8789V15.8805V15.882V15.8836V15.8852V15.8868V15.8883V15.8899V15.8915V15.8931V15.8947V15.8962V15.8978V15.8994V15.901V15.9026V15.9042V15.9058V15.9074V15.9089V15.9105V15.9121V15.9137V15.9153V15.9169V15.9185V15.9201V15.9217V15.9233V15.9249V15.9265V15.9281V15.9297V15.9313V15.9329V15.9345V15.9361V15.9377V15.9393V15.9409V15.9426V15.9442V15.9458V15.9474V15.949V15.9506V15.9522V15.9538V15.9555V15.9571V15.9587V15.9603V15.9619V15.9636V15.9652V15.9668V15.9684V15.97V15.9717V15.9733V15.9749V15.9766V15.9782V15.9798V15.9814V15.9831V15.9847V15.9863V15.988V15.9896V15.9912V15.9929V15.9945V15.9961V15.9978V15.9994V16.0011V16.0027V16.0043V16.006V16.0076V16.0093V16.0109V16.0126V16.0142V16.0158V16.0175V16.0191V16.0208V16.0224V16.0241V16.0257V16.0274V16.029V16.0307V16.0324V16.034V16.0357V16.0373V16.039V16.0406V16.0423V16.044V16.0456V16.0473V16.0489V16.0506V16.0523V16.0539V16.0556V16.0573V16.0589V16.0606V16.0623V16.0639V16.0656V16.0673V16.0689V16.0706V16.0723V16.0739V16.0756V16.0773V16.079V16.0806V16.0823V16.084V16.0857V16.0874V16.089V16.0907V16.0924V16.0941V16.0958V16.0974V16.0991V16.1008V16.1025V16.1042V16.1059V16.1075V16.1092V16.1109V16.1126V16.1143V16.116V16.1177V16.1194V16.1211V16.1228V16.1244V16.1261V16.1278V16.1295V16.1312V16.1329V16.1346V16.1363V16.138V16.1397V16.1414V16.1431V16.1448V16.1465V16.1482V16.1499V16.1516V16.1533V16.155V16.1567V16.1584V16.1601V16.1619V16.1636V16.1653V16.167V16.1687V16.1704V16.1721V16.1738V16.1755V16.1772V16.179V16.1807V16.1824V16.1841V16.1858V16.1875V16.1892V16.191V16.1927V16.1944V16.1961V16.1978V16.1996V16.2013V16.203V16.2047V16.2064V16.2082V16.2099V16.2116V16.2133V16.2151V16.2168V16.2185V16.2202V16.222V16.2237V16.2254V16.2272V16.2289V16.2306V16.2323V16.2341V16.2358V16.2375V16.2393V16.241V16.2427V16.2445V16.2462V16.2479V16.2497V16.2514V16.2531V16.2549V16.2566V16.2584V16.2601V16.2618V16.2636V16.2653V16.2671V16.2688V16.2705V16.2723V16.274V16.2758V16.2775V16.2793V16.281V16.2827V16.2845V16.2862V16.288V16.2897V16.2915V16.2932V16.295V16.2967V16.2985V16.3002V16.302V16.3037V16.3055V16.3072V16.309V16.3107V16.3125V16.3142V16.316V16.3177V16.3195V16.3212V16.323V16.3248V16.3265V16.3283V16.33V16.3318V16.3335V16.3353V16.3371V16.3388V16.3406V16.3423V16.3441V16.3458V16.3476V16.3494V16.3511V16.3529V16.3547V16.3564V16.3582V16.3599V16.3617V16.3635V16.3652V16.367V16.3688V16.3705V16.3723V16.3741V16.3758V16.3776V16.3794V16.3811V16.3829V16.3847V16.3864V16.3882V16.39V16.3918V16.3935V16.3953V16.3971V16.3988V16.4006V16.4024V16.4042V16.4059V16.4077V16.4095V16.4113V16.413V16.4148V16.4166V16.4184V16.4201V16.4219V16.4237V16.4255V16.4272V16.429V16.4308V16.4326V16.4343V16.4361V16.4379V16.4397V16.4415V16.4432V16.445V16.4468V16.4486V16.4504V16.4521V16.4539V16.4557V16.4575V16.4593V16.4611V16.4628V16.4646V16.4664V16.4682V16.47V16.4718V16.4735V16.4753V16.4771V16.4789V16.4807V16.4825V16.4842V16.486V16.4878V16.4896V16.4914V16.4932V16.495V16.4968V16.4985V16.5003V16.5021V16.5039V16.5057V16.5075V16.5093V16.5111V16.5129V16.5146V16.5164V16.5182V16.52V16.5218V16.5236V16.5254V16.5272V16.529V16.5308V16.5326V16.5343V16.5361V16.5379V16.5397V16.5415V16.5433V16.5451V16.5469V16.5487V16.5505V16.5523V16.5541V16.5559V16.5577V16.5595V16.5612V16.563V16.5648V16.5666V16.5684V16.5702V16.572V16.5738V16.5756V16.5774V16.5792V16.581V16.5828V16.5846V16.5864V16.5882V16.59V16.5918V16.5936V16.5954V16.5972V16.599V16.6008V16.6026V16.6044V16.6062V16.608V16.6098V16.6116V16.6134V16.6152V16.617V16.6188V16.6206V16.6224V16.6242V16.626V16.6278V16.6296V16.6313V16.6331V16.6349V16.6367V16.6385V16.6403V16.6421V16.6439V16.6457V16.6476V16.6494V16.6512V16.653V16.6548V16.6566V16.6584V16.6602V16.662V16.6638V16.6656V16.6674V16.6692V16.671V16.6728V16.6746V16.6764V16.6782V16.68V16.6818V16.6836V16.6854V16.6872V16.689V16.6908V16.6926V16.6944V16.6962V16.698V16.6998V16.7016V16.7034V16.7052V16.707V16.7086L22.3961 21.9436Z" fill="white" stroke="white" stroke-width="0.2"/>
<path d="M20.4658 21.8566L20.4776 21.8684C20.3008 21.9533 20.1399 22.0688 20.0025 22.21C19.8296 22.3877 19.6984 22.6017 19.6184 22.8364L19.6182 22.8364L19.6167 22.8419C19.4543 23.4267 19.4263 24.0406 19.5345 24.6378C19.5748 25.2801 19.5543 25.9248 19.4733 26.5633L19.4733 26.5633L19.473 26.5656C19.4082 27.1971 19.3816 27.8318 19.3934 28.4664L19.3934 28.4664L19.3935 28.4685C19.4184 29.1038 19.4831 29.737 19.5871 30.3643C19.6027 30.6402 19.6715 30.9104 19.7895 31.1603L19.7927 31.167L19.7968 31.1731C19.963 31.422 20.2141 31.602 20.5032 31.6795C21.6539 32.0134 22.8599 32.1132 24.0498 31.9731C24.3749 31.9729 24.7019 31.9597 25.0265 31.9467L25.0275 31.9466C25.355 31.9334 25.6803 31.9204 26.0029 31.9204C26.2208 31.9204 26.4322 31.9283 26.6429 31.9362C26.7448 31.94 26.8466 31.9438 26.9489 31.9467C27.2585 31.9555 27.568 31.9557 27.881 31.9202C28.4351 31.9054 28.9641 31.686 29.3661 31.3043L29.3727 31.298L29.3781 31.2906C29.7236 30.8162 29.9004 30.2399 29.8806 29.6535C30.0034 28.3522 30.0649 27.0161 30.0649 25.7413V25.7395C30.0649 25.1265 30.0649 24.5005 30.0208 23.8827C30.0058 23.3833 29.8823 22.8932 29.659 22.4462L29.6592 22.4462L29.6561 22.4408C29.2956 21.8181 28.6964 21.5897 28.0616 21.5143C27.7445 21.4766 27.4147 21.4765 27.096 21.4855C26.9804 21.4887 26.8669 21.4931 26.756 21.4974C26.558 21.5051 26.368 21.5125 26.1874 21.5125V21.5124L26.1845 21.5125L21.6529 21.6442C21.5431 21.6446 21.4378 21.6884 21.3601 21.7661C21.2821 21.8442 21.2382 21.9501 21.2382 22.0605C21.2382 22.1709 21.2821 22.2768 21.3601 22.3548C21.4382 22.4329 21.5441 22.4767 21.6545 22.4768L21.6572 22.4767L25.1711 22.3801L25.1714 22.3801L26.9283 22.3273L26.9284 22.3277L26.9368 22.3267C27.4342 22.2691 27.9378 22.2977 28.4254 22.4113C28.8166 22.5545 29.0202 22.8931 29.1256 23.3094C29.2318 23.729 29.2324 24.2061 29.2324 24.5905H29.2323L29.2324 24.5935C29.2675 25.7618 29.2499 26.9096 29.1799 28.0367L29.1797 28.0367V28.0429C29.1797 28.4907 29.1346 28.9434 29.0894 29.3984C29.0784 29.5085 29.0675 29.6187 29.0571 29.729C29.0541 29.7613 29.0512 29.7928 29.0484 29.8236C29.0262 30.0681 29.0079 30.2689 28.948 30.4413C28.8842 30.6251 28.7727 30.7752 28.5445 30.8945C28.0898 31.0695 27.5976 31.1244 27.1155 31.0538L27.1083 31.0527H27.101H27.0976H27.0942H27.0908H27.0874H27.0841H27.0807H27.0773H27.0739H27.0705H27.0671H27.0637H27.0603H27.0569H27.0535H27.0501H27.0467H27.0433H27.0399H27.0365H27.0331H27.0297H27.0263H27.0229H27.0195H27.0161H27.0127H27.0093H27.0059H27.0025H26.9991H26.9957H26.9923H26.9889H26.9855H26.9821H26.9787H26.9753H26.9719H26.9685H26.9651H26.9617H26.9583H26.9549H26.9515H26.9482H26.9448H26.9414H26.938H26.9346H26.9312H26.9278H26.9244H26.921H26.9176H26.9142H26.9108H26.9074H26.904H26.9006H26.8972H26.8938H26.8904H26.887H26.8836H26.8802H26.8768H26.8734H26.87H26.8666H26.8632H26.8598H26.8564H26.853H26.8496H26.8462H26.8428H26.8394H26.836H26.8326H26.8292H26.8258H26.8224H26.819H26.8156H26.8122H26.8088H26.8054H26.802H26.7986H26.7952H26.7918H26.7884H26.785H26.7816H26.7782H26.7748H26.7714H26.768H26.7646H26.7612H26.7578H26.7544H26.751H26.7476H26.7442H26.7408H26.7374H26.734H26.7306H26.7272H26.7238H26.7204H26.717H26.7136H26.7102H26.7068H26.7034H26.6999H26.6965H26.6931H26.6897H26.6863H26.6829H26.6795H26.6761H26.6727H26.6693H26.6659H26.6625H26.6591H26.6557H26.6523H26.6489H26.6455H26.6421H26.6387H26.6353H26.6319H26.6285H26.6251H26.6217H26.6183H26.6149H26.6114H26.608H26.6046H26.6012H26.5978H26.5944H26.591H26.5876H26.5842H26.5808H26.5774H26.574H26.5706H26.5672H26.5638H26.5604H26.5569H26.5535H26.5501H26.5467H26.5433H26.5399H26.5365H26.5331H26.5297H26.5263H26.5229H26.5195H26.516H26.5126H26.5092H26.5058H26.5024H26.499H26.4956H26.4922H26.4888H26.4854H26.482H26.4785H26.4751H26.4717H26.4683H26.4649H26.4615H26.4581H26.4547H26.4513H26.4478H26.4444H26.441H26.4376H26.4342H26.4308H26.4274H26.424H26.4205H26.4171H26.4137H26.4103H26.4069H26.4035H26.4001H26.3966H26.3932H26.3898H26.3864H26.383H26.3796H26.3762H26.3727H26.3693H26.3659H26.3625H26.3591H26.3557H26.3523H26.3488H26.3454H26.342H26.3386H26.3352H26.3318H26.3283H26.3249H26.3215H26.3181H26.3147H26.3112H26.3078H26.3044H26.301H26.2976H26.2942H26.2907H26.2873H26.2839H26.2805H26.2771H26.2736H26.2702H26.2668H26.2634H26.2599H26.2565H26.2531H26.2497H26.2463H26.2428H26.2394H26.236H26.2326H26.2291H26.2257H26.2223H26.2189H26.2155H26.212H26.2086H26.2052H26.2018H26.1983H26.1949H26.1915H26.1881H26.1846H26.1812H26.1778H26.1744H26.1709H26.1675H26.1641H26.1606H26.1572H26.1538H26.1504H26.1469H26.1435H26.1401H26.1367H26.1332H26.1298H26.1264H26.1229H26.1195H26.1161H26.1126H26.1092H26.1058H26.1024H26.0989H26.0955H26.0921H26.0886H26.0852H26.0818H26.0783H26.0749H26.0715H26.068H26.0646H26.0612H26.0577H26.0543H26.0509H26.0474H26.044H26.0406H26.0371H26.0337H26.0303H26.0268H26.0234H26.0199H26.0165H26.0131H26.0096H26.0062H26.0028H25.9993H25.9959H25.9924H25.989H25.9856H25.9821H25.9787H25.9752H25.9718H25.9684H25.9649H25.9615H25.958H25.9546H25.9512H25.9477H25.9443H25.9408H25.9374H25.9339H25.9305H25.9271H25.9236H25.9202H25.9167H25.9133H25.9098H25.9064H25.9029H25.8995H25.8961H25.8926H25.8892H25.8857H25.8823H25.8788H25.8754H25.8719H25.8685H25.865H25.8616H25.8581H25.8547H25.8512H25.8478H25.8443H25.8409H25.8374H25.834H25.8305H25.8271H25.8236H25.8202H25.8167H25.8133H25.8098H25.8064H25.8029H25.7995H25.796H25.7925H25.7891H25.7856H25.7822H25.7787H25.7753H25.7718H25.7684H25.7649H25.7614H25.758H25.7545H25.7511H25.7476H25.7441H25.7407H25.7372H25.7338H25.7303H25.7268H25.7234H25.7199H25.7165H25.713H25.7095H25.7061H25.7026H25.6991H25.6957H25.6922H25.6888H25.6853H25.6818H25.6784H25.6749H25.6714H25.668H25.6645H25.661H25.6576H25.6541H25.6506H25.6472H25.6437H25.6402H25.6368H25.6333H25.6298H25.6263H25.6229H25.6194H25.6159H25.6125H25.609H25.6055H25.602H25.5986H25.5951H25.5916H25.5882H25.5847H25.5812H25.5777H25.5743H25.5708H25.5673H25.5638H25.5604H25.5569H25.5534H25.5499H25.5464H25.543H25.5395H25.536H25.5325H25.529H25.5256H25.5221H25.5186H25.5151H25.5116H25.5082H25.5047H25.5012H25.4977H25.4942H25.4907H25.4873H25.4838H25.4803H25.4768H25.4733H25.4698H25.4663H25.4629H25.4594H25.4559H25.4524H25.4489H25.4454H25.4419H25.4384H25.435H25.4315H25.428H25.4245H25.421H25.4175H25.414H25.4105H25.407H25.4035H25.4H25.3965H25.393H25.3896H25.3861H25.3826H25.3791H25.3756H25.3721H25.3686H25.3651H25.3616H25.3581H25.3546H25.3511H25.3476H25.3441C24.9167 31.0527 24.4874 31.0752 24.0614 31.0976C23.9369 31.1041 23.8127 31.1106 23.6889 31.1165C23.1395 31.1428 22.5958 31.1579 22.0578 31.1145L22.0578 31.1144L22.0521 31.1142C21.5444 31.1026 21.0449 30.9839 20.5863 30.7659C20.526 30.7286 20.488 30.6601 20.4623 30.5583C20.4494 30.5074 20.4407 30.4523 20.4328 30.3946C20.4306 30.3782 20.4284 30.3612 20.4262 30.344C20.4209 30.3031 20.4155 30.2611 20.409 30.2227C20.3743 30.0144 20.322 29.6221 20.2868 29.3494C20.2274 28.7324 20.207 28.1121 20.2259 27.4925L20.2259 27.4925V27.4895C20.2259 27.1832 20.254 26.8736 20.2869 26.5599C20.2929 26.5028 20.299 26.4456 20.3052 26.3882C20.3328 26.1317 20.3606 25.8725 20.3751 25.6152C20.3931 25.2958 20.3705 24.9667 20.3453 24.642C20.3431 24.6136 20.3409 24.5852 20.3387 24.5569C20.3153 24.2592 20.2923 23.9659 20.2962 23.6782L20.2962 23.6782V23.6769C20.2962 23.467 20.3321 23.2289 20.4207 23.0262C20.509 22.8243 20.6457 22.6652 20.8449 22.5939C20.9825 22.5445 21.0766 22.4599 21.1252 22.3559C21.1732 22.2533 21.1723 22.1414 21.1382 22.0448C21.0705 21.8528 20.8591 21.7011 20.6075 21.8006L20.4658 21.8566Z" fill="white" stroke="white" stroke-width="0.2"/>
<path d="M21.851 21.6828V21.6499L21.7568 21.6445C21.397 21.6239 21.0372 21.6833 20.7033 21.8185L20.703 21.8178L20.6919 21.824C20.5135 21.9241 20.3568 22.0587 20.231 22.22C20.1057 22.3806 20.0135 22.5645 19.9598 22.7609C19.7058 23.5359 19.5654 24.3436 19.5427 25.1588L19.5426 25.1588L19.5427 25.1643C19.5457 25.275 19.5918 25.3802 19.6712 25.4574L19.7401 25.3866L19.6712 25.4574C19.7506 25.5347 19.857 25.5779 19.9678 25.5778L19.9678 25.578L19.9729 25.5777C20.0801 25.5722 20.1815 25.5271 20.2574 25.4512C20.3333 25.3753 20.3783 25.2739 20.3839 25.1667L20.3839 25.1667L20.3839 25.165C20.4066 24.4983 20.5086 23.8368 20.6878 23.1943L20.6879 23.1943L20.6892 23.1885C20.7396 22.955 20.8686 22.746 21.0545 22.5964C21.2735 22.5134 21.5086 22.4814 21.7419 22.5027L21.7419 22.5032H21.751C21.8614 22.5032 21.9673 22.4593 22.0454 22.3812C22.1234 22.3032 22.1673 22.1973 22.1673 22.0869C22.1673 21.9765 22.1234 21.8706 22.0454 21.7926C21.9914 21.7385 21.924 21.7009 21.851 21.6828Z" fill="white" stroke="white" stroke-width="0.2"/>
<path d="M12.4636 26.5441L12.4636 26.5442H12.4656C13.2042 26.5442 13.9468 26.5442 14.6887 26.6053L14.6887 26.6057H14.6969C14.7655 26.6057 14.8333 26.5922 14.8966 26.566C14.9599 26.5397 15.0174 26.5013 15.0658 26.4529C15.1143 26.4044 15.1527 26.3469 15.1789 26.2836C15.2051 26.2203 15.2186 26.1525 15.2186 26.084H15.2187L15.2185 26.0801C15.2132 25.9445 15.157 25.8159 15.061 25.7199C14.9653 25.6242 14.8371 25.568 14.7019 25.5624C13.9532 25.5184 13.2048 25.5008 12.4656 25.5008C12.3273 25.5008 12.1946 25.5558 12.0967 25.6536C11.9989 25.7515 11.9439 25.8841 11.9439 26.0225H11.9439L11.944 26.0245C11.9467 26.1615 12.0024 26.292 12.0992 26.3889C12.1961 26.4857 12.3266 26.5414 12.4636 26.5441Z" fill="white" stroke="white" stroke-width="0.2"/>
<path d="M14.0151 30.331L14.0151 30.331L17.7892 32.0137L17.7715 32.1121C17.7716 32.1121 17.7717 32.1121 17.7718 32.1122C18.1016 32.1715 18.3339 31.9488 18.4016 31.708C18.4356 31.587 18.4315 31.4525 18.3724 31.3369C18.3117 31.2183 18.1984 31.1304 18.0369 31.0986L18.0369 31.0986L18.0345 31.0981C16.8426 30.8946 15.7274 30.3744 14.8056 29.5919L14.8057 29.5918L14.8016 29.5887C14.2827 29.1927 13.8592 28.6855 13.5619 28.1044C13.2649 27.5237 13.1016 26.8839 13.0839 26.2319C13.0836 26.0894 13.0268 25.9528 12.926 25.852C12.8249 25.7509 12.6877 25.6941 12.5447 25.6941C12.4017 25.6941 12.2645 25.7509 12.1634 25.852C12.0623 25.9531 12.0055 26.0903 12.0055 26.2333V26.2848L12.0473 26.3147L12.0652 26.3274C12.0427 27.1372 12.2552 27.9366 12.6776 28.6287C13.0228 29.2684 13.4752 29.8442 14.0151 30.331Z" fill="white" stroke="white" stroke-width="0.2"/>
<path d="M17.4235 18.1358L17.4235 18.1358C17.4207 18.2727 17.3651 18.4033 17.2683 18.5001C17.1714 18.597 17.0408 18.6526 16.9039 18.6554M17.4235 18.1358L16.9019 18.5554M17.4235 18.1358V18.1337V16.4734H17.4236L17.4235 16.4714C17.4207 16.3345 17.3651 16.2039 17.2683 16.107C17.1714 16.0102 17.0408 15.9545 16.9039 15.9518L16.9039 15.9518H16.9019C16.7635 15.9518 16.6308 16.0067 16.533 16.1046C16.4352 16.2024 16.3802 16.3351 16.3802 16.4734V18.1327M17.4235 18.1358L16.4802 18.1337M16.9039 18.6554L16.9019 18.5554M16.9039 18.6554C16.9039 18.6554 16.904 18.6554 16.904 18.6554L16.9019 18.5554M16.9039 18.6554C16.8347 18.6569 16.766 18.6443 16.7018 18.6186C16.6376 18.5928 16.5793 18.5542 16.5303 18.5053C16.4814 18.4564 16.4429 18.398 16.4171 18.3338C16.3914 18.2699 16.3789 18.2015 16.3802 18.1327M16.9019 18.5554C16.8462 18.5566 16.7908 18.5465 16.7391 18.5258C16.6874 18.505 16.6404 18.474 16.601 18.4346C16.5616 18.3952 16.5306 18.3482 16.5099 18.2965C16.4891 18.2448 16.479 18.1895 16.4802 18.1337M16.3802 18.1327V18.1337H16.4802M16.3802 18.1327C16.3802 18.1324 16.3802 18.132 16.3802 18.1316L16.4802 18.1337" fill="white" stroke="white" stroke-width="0.2"/>
<path d="M14.5915 18.6642V18.6645L14.5987 18.664C16.1765 18.5501 17.7594 18.5237 19.3402 18.5851L19.3402 18.5852H19.344C19.5074 18.5852 19.6375 18.5229 19.7256 18.4225C19.812 18.3241 19.8525 18.1955 19.8525 18.069C19.8525 17.8163 19.6877 17.5448 19.3553 17.5073L19.3553 17.5071L19.3482 17.5068C17.7599 17.4407 16.1692 17.4672 14.584 17.586L14.584 17.586L14.5833 17.5861C14.2513 17.6133 14.0876 17.8884 14.0863 18.1409C14.0856 18.268 14.1249 18.3981 14.2103 18.4981C14.2975 18.6002 14.4274 18.6642 14.5915 18.6642Z" fill="white" stroke="white" stroke-width="0.2"/>
<path d="M19.3967 21.4807C19.5051 21.511 19.597 21.5831 19.6521 21.6811C19.7073 21.7791 19.7213 21.8951 19.691 22.0034C19.6608 22.1117 19.5887 22.2036 19.4906 22.2588C19.3926 22.314 19.2767 22.328 19.1683 22.2977C18.7833 22.1932 18.4073 22.0581 18.0439 21.8936L19.3967 21.4807ZM19.3967 21.4807C19.0971 21.4024 18.8035 21.3026 18.5183 21.182L19.3967 21.4807ZM18.0027 21.9847C18.3708 22.1514 18.7518 22.2883 19.1418 22.3941C19.2756 22.4314 19.4187 22.4141 19.5397 22.3459C19.6608 22.2777 19.7499 22.1642 19.7873 22.0303C19.8248 21.8964 19.8075 21.7532 19.7393 21.632C19.6711 21.5109 19.5576 21.4218 19.4237 21.3844L19.4237 21.3844L19.422 21.3839C19.1282 21.3072 18.8403 21.2094 18.5605 21.0913C18.2749 20.9454 18.0116 20.7592 17.7789 20.5384L17.7789 20.5384L17.7758 20.5356C17.4986 20.2942 17.2041 20.0979 16.8898 19.8883L16.8871 19.8865L16.8871 19.8865L16.8862 19.8859C16.6595 19.7383 16.4885 19.5194 16.4001 19.2638C16.3635 19.1314 16.2763 19.0186 16.1571 18.95C16.037 18.8807 15.8942 18.862 15.7602 18.898C15.6263 18.934 15.5121 19.0218 15.4429 19.142C15.3736 19.2621 15.3549 19.4049 15.391 19.5389L15.4109 19.6129H15.4212C15.5471 20.0139 15.7986 20.3019 16.0844 20.5484C16.2287 20.6728 16.3836 20.7882 16.536 20.9018C16.543 20.907 16.55 20.9122 16.557 20.9174C16.7166 21.0363 16.8731 21.1537 17.0183 21.2817C17.3078 21.5637 17.6383 21.8 17.9987 21.9828L17.9986 21.9829L18.0027 21.9847Z" fill="white" stroke="white" stroke-width="0.2"/>
<path d="M16.8738 20.1845L16.8738 20.1845L16.8714 20.1862C16.0882 20.7282 15.2524 21.19 14.3766 21.5644L14.3687 21.5678L14.3615 21.5724C14.2492 21.6451 14.169 21.7583 14.1377 21.8884C14.1064 22.0185 14.1263 22.1557 14.1933 22.2716C14.2604 22.3874 14.3693 22.4731 14.4977 22.5109C14.6248 22.5483 14.7613 22.5359 14.8795 22.4764C15.901 22.0492 16.8638 21.4934 17.7444 20.8223L17.7444 20.8223L17.7468 20.8204C18.1589 20.4862 18.474 20.0477 18.6594 19.5506C18.8449 19.0534 18.8939 18.5157 18.8013 17.9933L18.8015 17.9932L18.7999 17.9868C18.7604 17.8259 18.667 17.7147 18.5466 17.6552C18.4289 17.5969 18.2936 17.592 18.1722 17.6255C17.9318 17.6918 17.7145 17.9222 17.7871 18.2472C17.83 18.6222 17.7677 19.0017 17.6072 19.3434C17.4459 19.6866 17.1919 19.978 16.8738 20.1845Z" fill="white" stroke="white" stroke-width="0.2"/>
<path d="M14.4659 18.6459L14.4659 18.6461L14.4725 18.6464C16.0908 18.7256 17.7099 18.7345 19.3206 18.6466C19.4852 18.6458 19.6146 18.5778 19.7012 18.473C19.7864 18.37 19.8263 18.2366 19.8263 18.1073C19.8263 17.9781 19.7864 17.8447 19.7012 17.7416C19.6141 17.6363 19.4837 17.5681 19.3178 17.5681V17.568L19.3145 17.5681C17.7094 17.6208 16.0951 17.612 14.4801 17.5681L14.4801 17.5681H14.4773C14.314 17.5681 14.1842 17.6304 14.0967 17.7311C14.011 17.8298 13.9715 17.9585 13.9722 18.0848C13.9735 18.3363 14.1375 18.6082 14.4659 18.6459Z" fill="white" stroke="white" stroke-width="0.2"/>
<path d="M17.2588 19.801L17.1775 19.8959L17.1775 19.8959L17.177 19.8964C17.0446 20.0528 16.8965 20.1952 16.735 20.3214L16.7345 20.3208L16.7259 20.3295C16.6774 20.378 16.6389 20.4356 16.6126 20.499C16.5864 20.5624 16.5729 20.6303 16.5729 20.6989C16.5729 20.7675 16.5864 20.8354 16.6126 20.8988C16.6389 20.9622 16.6774 21.0198 16.7259 21.0683C16.7744 21.1168 16.832 21.1553 16.8953 21.1815C16.9587 21.2078 17.0266 21.2213 17.0953 21.2213C17.1639 21.2213 17.2318 21.2078 17.2952 21.1815C17.3569 21.156 17.4132 21.1188 17.4609 21.072C18.2066 20.4624 18.7073 19.6041 18.8711 18.6549C18.9032 18.5227 18.8832 18.383 18.8152 18.265C18.7465 18.1459 18.6343 18.058 18.5021 18.0201L18.5021 18.02L18.4988 18.0192C18.3654 17.9858 18.2242 18.0055 18.105 18.0741C18.0037 18.1325 17.9251 18.2224 17.8804 18.3292L17.8554 18.3348L17.789 18.3496L17.7783 18.4168C17.7471 18.6137 17.6987 18.8075 17.6337 18.9959L17.5814 19.1352L17.5753 19.1516H17.575V19.1516V19.1516V19.1516V19.1516V19.1516V19.1516V19.1516V19.1516V19.1517V19.1517V19.1517V19.1517V19.1517V19.1517V19.1517V19.1517V19.1517V19.1517V19.1517V19.1518V19.1518V19.1518V19.1518V19.1518V19.1518V19.1518V19.1519V19.1519V19.1519V19.1519V19.1519V19.1519V19.152V19.152V19.152V19.152V19.1521V19.1521V19.1521V19.1521V19.1522V19.1522V19.1522V19.1522V19.1522V19.1523V19.1523V19.1523V19.1523V19.1524V19.1524V19.1524V19.1525V19.1525V19.1525V19.1525V19.1526V19.1526V19.1527V19.1527V19.1527V19.1528V19.1528V19.1528V19.1529V19.1529V19.1529V19.153V19.1531V19.1531V19.1531V19.1532V19.1532V19.1533V19.1533V19.1534V19.1534V19.1535V19.1535V19.1535V19.1536V19.1536V19.1537V19.1537V19.1538V19.1538V19.1539V19.1539V19.154V19.154V19.1541V19.1541V19.1542V19.1542V19.1543V19.1543V19.1544V19.1545V19.1545V19.1546V19.1546V19.1547V19.1547V19.1548V19.1549V19.1549V19.155V19.155V19.1551V19.1551V19.1552V19.1553V19.1553V19.1554V19.1554V19.1555V19.1556V19.1556V19.1557V19.1557V19.1559V19.1559V19.156V19.156V19.1561V19.1562V19.1562V19.1563V19.1563V19.1565V19.1565V19.1566V19.1567V19.1567V19.1568V19.1569V19.157V19.157V19.1571V19.1572V19.1572V19.1573V19.1574V19.1575V19.1576V19.1576V19.1577V19.1578V19.1579V19.158V19.158V19.1582V19.1582V19.1583V19.1584V19.1584V19.1586V19.1586V19.1587V19.1588V19.1588V19.159V19.159V19.1591V19.1592V19.1593V19.1594V19.1594V19.1596V19.1596V19.1597V19.1599V19.1599V19.16V19.1601V19.1602V19.1603V19.1603V19.1605V19.1606V19.1606V19.1608V19.1608V19.1609V19.161V19.1611V19.1612V19.1613V19.1614V19.1615V19.1615V19.1617V19.1618V19.1618V19.162V19.162V19.1621V19.1623V19.1623V19.1625V19.1626V19.1626V19.1628V19.1628V19.1629V19.1631V19.1631V19.1633V19.1634V19.1634V19.1636V19.1636V19.1637V19.1639V19.1639V19.1641V19.1642V19.1642V19.1644V19.1645V19.1646V19.1647V19.1648V19.1649V19.1651V19.1651V19.1652V19.1654V19.1654V19.1656V19.1657V19.1657V19.1659V19.166V19.166V19.1662V19.1663V19.1664V19.1665V19.1666V19.1667V19.1669V19.1669V19.167V19.1672V19.1673V19.1674V19.1676V19.1676V19.1677V19.1679V19.1679V19.1681V19.1682V19.1683V19.1684V19.1686V19.1686V19.1687V19.1689V19.1689V19.1691V19.1692V19.1693V19.1694V19.1696V19.1696V19.1697V19.1699V19.17V19.1701V19.1702V19.1703V19.1704V19.1706V19.1707V19.1707V19.1709V19.171V19.1711V19.1712V19.1713V19.1714V19.1715V19.1716V19.1717V19.1718V19.1719V19.172V19.1721V19.1722V19.1724V19.1724V19.1725V19.1727V19.1727V19.1729V19.173V19.173V19.1732V19.1732V19.1733V19.1735V19.1735V19.1737V19.1738V19.1738V19.174V19.174V19.1741V19.1743V19.1743V19.1744V19.1746V19.1746V19.1748V19.1748V19.1749V19.1751V19.1751V19.1752V19.1753V19.1754V19.1755V19.1755V19.1757V19.1758V19.1758V19.176V19.176V19.1761V19.1762V19.1763V19.1764V19.1765V19.1766V19.1767V19.1767V19.1769V19.1769V19.177V19.1771V19.1772V19.1773V19.1773V19.1774V19.1776V19.1776V19.1777V19.1778V19.1779V19.178V19.178V19.1781V19.1782V19.1783V19.1784V19.1784V19.1785V19.1785V19.1787V19.1787V19.1788V19.1789V19.1789V19.1791V19.1791V19.1792V19.1793V19.1793V19.1794V19.1795V19.1796V19.1796V19.1797V19.1798V19.1798V19.1799V19.18V19.1801V19.1801V19.1802V19.1803V19.1803V19.1804V19.1805V19.1805V19.1806V19.1807V19.1808V19.1808V19.1809V19.1809V19.181V19.181V19.1811V19.1812V19.1812V19.1813V19.1813V19.1814V19.1815V19.1815V19.1816V19.1816V19.1817V19.1817V19.1818V19.1819V19.1819V19.182V19.182V19.1821V19.1821V19.1822V19.1823V19.1823V19.1824V19.1824V19.1825V19.1825V19.1826V19.1827V19.1827V19.1827V19.1828V19.1828V19.1829V19.1829V19.183V19.183V19.183V19.1831V19.1831V19.1831V19.1832V19.1832V19.1833V19.1833V19.1834V19.1834V19.1834V19.1835V19.1835V19.1836V19.1836V19.1836V19.1836V19.1837V19.1837V19.1838V19.1838V19.1838V19.1838V19.1839V19.1839V19.1839V19.184V19.184V19.184V19.184V19.1841V19.1841V19.1841V19.1841V19.1842V19.1842V19.1842V19.1842V19.1843V19.1843V19.1843V19.1843V19.1843V19.1844V19.1844V19.1844V19.1844V19.1844V19.1845V19.1845V19.1845V19.1845V19.1845V19.1845V19.1845V19.1846V19.1846V19.1846V19.1846V19.1846V19.1846V19.1846V19.1846V19.1846V19.1846V19.1846V19.1847V19.1847V19.1847V19.1847V19.1847V19.2112C17.5361 19.3003 17.4911 19.3866 17.4404 19.4696L17.4403 19.4695L17.4382 19.4733C17.3897 19.5609 17.3361 19.6456 17.2776 19.7269L17.2588 19.753V19.7853V19.801ZM17.2588 19.801V19.8059L17.2588 19.8059L17.2588 19.8059L17.2588 19.8059L17.2588 19.8059L17.2589 19.8058L17.2589 19.8058L17.2589 19.8058L17.2589 19.8057L17.259 19.8057L17.259 19.8057L17.259 19.8056L17.259 19.8056L17.259 19.8056L17.2591 19.8055L17.2591 19.8055L17.2591 19.8055L17.2591 19.8054L17.2592 19.8054L17.2592 19.8054L17.2592 19.8053L17.2593 19.8053L17.2593 19.8053L17.2593 19.8052L17.2593 19.8052L17.2594 19.8051L17.2594 19.8051L17.2594 19.8051L17.2594 19.805L17.2595 19.805L17.2595 19.805L17.2595 19.8049L17.2596 19.8049L17.2596 19.8049L17.2596 19.8048L17.2596 19.8048L17.2597 19.8047L17.2597 19.8047L17.2597 19.8046L17.2598 19.8046L17.2598 19.8046L17.2598 19.8045L17.2598 19.8045L17.2599 19.8044L17.2599 19.8044L17.2599 19.8043L17.26 19.8043L17.26 19.8043L17.26 19.8042L17.26 19.8042L17.2601 19.8041L17.2601 19.8041L17.2602 19.804L17.2602 19.804L17.2602 19.804L17.2603 19.8039L17.2603 19.8039L17.2603 19.8038L17.2603 19.8038L17.2604 19.8037L17.2604 19.8037L17.2605 19.8036L17.2605 19.8035L17.2605 19.8035L17.2606 19.8035L17.2606 19.8034L17.2606 19.8034L17.2607 19.8033L17.2607 19.8033L17.2608 19.8032L17.2608 19.8032L17.2608 19.8031L17.2608 19.8031L17.2609 19.803L17.2609 19.803L17.261 19.8029L17.261 19.8028L17.261 19.8028L17.2611 19.8027L17.2611 19.8027L17.2611 19.8026L17.2612 19.8026L17.2612 19.8026L17.2613 19.8025L17.2613 19.8024L17.2613 19.8024L17.2614 19.8023L17.2614 19.8023L17.2615 19.8022L17.2615 19.8022L17.2615 19.8021L17.2616 19.802L17.2616 19.802L17.2617 19.8019L17.2617 19.8019L17.2618 19.8018L17.2618 19.8018L17.2618 19.8017L17.2619 19.8016L17.2619 19.8016L17.262 19.8015L17.262 19.8015L17.262 19.8014L17.2621 19.8013L17.2621 19.8013L17.2622 19.8012L17.2622 19.8012L17.2623 19.8011L17.2623 19.801L17.2623 19.801L17.2624 19.8009L17.2624 19.8009L17.2625 19.8008L17.2625 19.8007L17.2626 19.8007L17.2626 19.8006L17.2626 19.8005L17.2627 19.8005L17.2628 19.8004L17.2628 19.8004L17.2629 19.8003L17.2629 19.8002L17.2629 19.8002L17.263 19.8001L17.263 19.8L17.2631 19.7999L17.2631 19.7999L17.2632 19.7998L17.2632 19.7997L17.2632 19.7997L17.2633 19.7996L17.2634 19.7995L17.2634 19.7995L17.2635 19.7994L17.2635 19.7994L17.2635 19.7993L17.2636 19.7992L17.2636 19.7992L17.2637 19.7991L17.2637 19.799L17.2638 19.799L17.2639 19.7988L17.2639 19.7988L17.2639 19.7987L17.264 19.7987L17.264 19.7986L17.2641 19.7985L17.2641 19.7985L17.2642 19.7984L17.2643 19.7983L17.2643 19.7983L17.2643 19.7982L17.2644 19.7981L17.2644 19.7981L17.2645 19.7979L17.2645 19.7979L17.2646 19.7978L17.2647 19.7977L17.2647 19.7977L17.2648 19.7976L17.2648 19.7975L17.2648 19.7975L17.2649 19.7974L17.265 19.7973L17.265 19.7972L17.2651 19.7971L17.2651 19.7971L17.2652 19.797L17.2652 19.7969L17.2653 19.7969L17.2653 19.7968L17.2654 19.7967L17.2654 19.7967L17.2655 19.7965L17.2655 19.7965L17.2656 19.7964L17.2657 19.7963L17.2657 19.7963L17.2658 19.7962L17.2658 19.7961L17.2658 19.7961L17.2659 19.796L17.266 19.7959L17.266 19.7958L17.2661 19.7957L17.2661 19.7957L17.2662 19.7956L17.2663 19.7955L17.2663 19.7954L17.2663 19.7954L17.2664 19.7952L17.2665 19.7952L17.2665 19.7951L17.2666 19.795L17.2666 19.795L17.2667 19.7949L17.2668 19.7948L17.2668 19.7948L17.2669 19.7946L17.2669 19.7945L17.2669 19.7945L17.267 19.7944L17.2671 19.7943L17.2671 19.7943L17.2672 19.7942L17.2673 19.7941L17.2673 19.794L17.2674 19.7939L17.2674 19.7938L17.2675 19.7938L17.2675 19.7937L17.2676 19.7936L17.2676 19.7936L17.2677 19.7934L17.2678 19.7934L17.2678 19.7933L17.2679 19.7932L17.268 19.7931L17.268 19.7931L17.2681 19.793L17.2681 19.7929L17.2681 19.7928L17.2682 19.7927L17.2683 19.7926L17.2683 19.7926L17.2684 19.7925L17.2685 19.7924L17.2685 19.7924L17.2686 19.7922L17.2687 19.7921L17.2687 19.7921L17.2687 19.792L17.2688 19.7919L17.2689 19.7919L17.2689 19.7918L17.269 19.7917L17.269 19.7916L17.2691 19.7915L17.2692 19.7914L17.2692 19.7913L17.2693 19.7913L17.2693 19.7912L17.2694 19.7911L17.2694 19.7911L17.2695 19.7909L17.2696 19.7908L17.2696 19.7908L17.2697 19.7907L17.2698 19.7906L17.2698 19.7905L17.2698 19.7905L17.2699 19.7904L17.27 19.7903L17.27 19.7902L17.2701 19.7901L17.2702 19.79L17.2702 19.79L17.2703 19.7899L17.2703 19.7898L17.2704 19.7897L17.2704 19.7897L17.2705 19.7895L17.2706 19.7894L17.2706 19.7894L17.2707 19.7893L17.2708 19.7892L17.2708 19.7892L17.2708 19.7891L17.2709 19.789L17.271 19.7889L17.271 19.7889L17.2711 19.7887L17.2712 19.7886L17.2712 19.7886L17.2712 19.7885L17.2713 19.7884L17.2714 19.7883L17.2714 19.7883L17.2715 19.7882L17.2716 19.7881L17.2716 19.788L17.2716 19.788L17.2717 19.7878L17.2718 19.7877L17.2718 19.7877L17.2719 19.7876L17.272 19.7875L17.272 19.7874L17.272 19.7874L17.2721 19.7873L17.2722 19.7872L17.2722 19.7871L17.2723 19.7871L17.2723 19.787L17.2724 19.7869L17.2725 19.7868L17.2725 19.7868L17.2726 19.7867L17.2726 19.7865L17.2727 19.7865L17.2727 19.7864L17.2728 19.7863L17.2729 19.7862L17.2729 19.7862L17.2729 19.7861L17.273 19.786L17.2731 19.7859L17.2731 19.7859L17.2732 19.7858L17.2732 19.7857L17.2733 19.7856L17.2733 19.7856L17.2734 19.7855L17.2734 19.7854L17.2735 19.7853L17.2736 19.7853L17.2736 19.7853L17.2736 19.7852L17.2737 19.7851L17.2737 19.785L17.2738 19.785L17.2738 19.7849L17.2739 19.7848L17.2739 19.7847L17.274 19.7847L17.274 19.7846L17.2741 19.7846L17.2741 19.7845L17.2742 19.7844L17.2742 19.7843L17.2743 19.7843L17.2743 19.7842L17.2744 19.7841L17.2745 19.784L17.2745 19.784L17.2745 19.7839L17.2746 19.7838L17.2746 19.7838L17.2747 19.7837L17.2747 19.7837L17.2748 19.7836L17.2748 19.7835L17.2749 19.7834L17.2749 19.7833L17.2749 19.7833L17.275 19.7832L17.2751 19.7832L17.2751 19.7831L17.2752 19.783L17.2752 19.783L17.2752 19.7829L17.2753 19.7828L17.2754 19.7828L17.2754 19.7827L17.2754 19.7827L17.2755 19.7826L17.2755 19.7825L17.2756 19.7825L17.2756 19.7824L17.2757 19.7823L17.2757 19.7823L17.2757 19.7822L17.2758 19.7822L17.2758 19.7821L17.2759 19.782L17.2759 19.782L17.2759 19.782L17.276 19.7819L17.276 19.7818L17.2761 19.7818L17.2761 19.7817L17.2762 19.7816L17.2762 19.7816L17.2762 19.7816L17.2762 19.7815L17.2763 19.7815L17.2763 19.7814L17.2764 19.7813L17.2764 19.7813L17.2764 19.7813L17.2765 19.7812L17.2765 19.7812L17.2765 19.7811L17.2766 19.7811L17.2766 19.781L17.2766 19.781L17.2767 19.7809L17.2767 19.7809L17.2767 19.7809L17.2767 19.7808L17.2768 19.7808L17.2768 19.7807L17.2768 19.7807L17.2769 19.7806L17.2769 19.7806L17.2769 19.7806L17.2769 19.7805L17.277 19.7805L17.277 19.7805L17.277 19.7804L17.277 19.7804L17.2771 19.7803L17.2771 19.7803L17.2771 19.7803L17.2771 19.7802L17.2772 19.7802L17.2772 19.7802L17.2772 19.7802L17.2772 19.7802L17.2772 19.7801L17.2772 19.7801L17.2773 19.7801L17.2773 19.7801L17.2773 19.78L17.2773 19.78L17.2773 19.78L17.2773 19.78L17.2774 19.78L17.2774 19.7799L17.2774 19.7799L17.2774 19.7799L17.2774 19.7799L17.2774 19.7799L17.2774 19.7799L17.2774 19.7799L17.2774 19.7799L17.2774 19.7799L17.2774 19.7799L17.2774 19.7799L17.285 19.7853H17.285L17.3197 19.8101L17.2588 19.801Z" fill="white" stroke="white" stroke-width="0.2"/>
<path d="M23.6771 28.2444L23.6772 28.2444L23.6789 28.2405L24.1884 27.0545L24.1886 27.0541C24.5451 26.2127 24.9044 25.38 25.2667 24.5561C25.3325 24.4374 25.3504 24.2979 25.3166 24.1664C25.2822 24.033 25.1974 23.9183 25.08 23.8463L25.08 23.8463L25.0772 23.8447C24.9575 23.7766 24.816 23.7578 24.6827 23.7921C24.5493 23.8265 24.4346 23.9113 24.3627 24.0287L24.3589 24.0348L24.3561 24.0415C23.9782 24.9202 23.6092 25.7988 23.2404 26.677C23.1586 26.864 23.0801 27.0537 23.0024 27.2417C22.9014 27.4861 22.8015 27.7277 22.6968 27.957C22.5081 28.3614 22.3673 28.7864 22.2774 29.2235C22.2424 29.3566 22.2614 29.4981 22.3301 29.6173C22.3993 29.7375 22.5135 29.8253 22.6475 29.8613C22.7814 29.8973 22.9242 29.8786 23.0444 29.8094C23.1645 29.7401 23.2523 29.6259 23.2883 29.492L23.2917 29.4792V29.466V29.4054C23.3701 29.0035 23.4996 28.6133 23.6771 28.2444Z" fill="white" stroke="white" stroke-width="0.2"/>
<path d="M24.2452 24.3794C24.2574 24.2581 24.3111 24.1441 24.3979 24.0572C24.4948 23.9604 24.6254 23.9047 24.7623 23.902L24.7683 23.9019L24.7682 23.902C24.9038 23.9074 25.0324 23.9636 25.1284 24.0596C25.2223 24.1535 25.2782 24.2787 25.2855 24.4111C25.3714 24.8263 25.5098 25.229 25.6973 25.6093L25.7011 25.6169L25.7008 25.6171C25.8579 26.0186 26.0326 26.4118 26.2084 26.8073C26.2421 26.8819 26.2758 26.9562 26.3094 27.0305C26.6437 27.7684 26.9745 28.4987 27.2396 29.3019M24.2452 24.3794L27.145 29.3343M24.2452 24.3794C24.2452 24.3795 24.2452 24.3796 24.2452 24.3797C24.2438 24.3936 24.243 24.4076 24.2427 24.4216L24.2491 24.4217C24.2492 24.4224 24.2493 24.423 24.2494 24.4236C24.2494 24.4236 24.2494 24.4237 24.2495 24.4237M24.2452 24.3794L24.2427 24.3797V24.4236L24.2495 24.4237M27.2396 29.3019C27.2397 29.3023 27.2398 29.3026 27.24 29.303L27.145 29.3343M27.2396 29.3019C27.2395 29.3015 27.2393 29.3012 27.2392 29.3008L27.145 29.3343M27.2396 29.3019C27.2946 29.4575 27.2767 29.6002 27.2059 29.7134C27.1366 29.824 27.0229 29.897 26.9013 29.9304C26.6596 29.9966 26.3482 29.9122 26.234 29.5968L26.2334 29.5952L26.2334 29.5952C26.008 28.9387 25.7376 28.3236 25.4545 27.6793C25.3651 27.4759 25.2744 27.2696 25.1835 27.0582M27.145 29.3343C27.3295 29.8526 26.5125 30.0722 26.328 29.5627C26.1011 28.9019 25.8284 28.2816 25.5449 27.6364C25.4553 27.4325 25.3646 27.2261 25.2738 27.0151M25.1835 27.0582C25.1841 27.0593 25.1847 27.0605 25.1853 27.0616L25.2738 27.0151M25.1835 27.0582C24.7482 26.229 24.4336 25.3419 24.2495 24.4237M25.1835 27.0582C25.183 27.057 25.1825 27.0558 25.182 27.0546L25.2738 27.0151M25.2738 27.0151C24.8453 26.1996 24.5348 25.3274 24.3517 24.4247L24.2495 24.4237" fill="white" stroke="white" stroke-width="0.2"/>
<path d="M26.4632 27.7024L26.4634 27.7024L26.4631 27.6964C26.4576 27.559 26.3999 27.4289 26.3017 27.3326C26.2034 27.2364 26.0722 27.1813 25.9347 27.1787L25.9347 27.1785L25.928 27.1788C25 27.2226 24.0719 27.2226 23.1439 27.1788L23.1439 27.1787H23.1392C22.9962 27.1787 22.859 27.2355 22.7579 27.3366C22.6568 27.4378 22.6 27.5749 22.6 27.7179C22.6 27.8609 22.6568 27.9981 22.7579 28.0992C22.859 28.2004 22.9962 28.2572 23.1392 28.2572H23.2392V28.222H23.2429H23.2483H23.2538H23.2592H23.2647H23.2701H23.2756H23.2811H23.2865H23.292H23.2974H23.3029H23.3083H23.3138H23.3192H23.3247H23.3302H23.3356H23.3411H23.3465H23.352H23.3574H23.3629H23.3683H23.3738H23.3793H23.3847H23.3902H23.3956H23.4011H23.4065H23.412H23.4175H23.4229H23.4284H23.4338H23.4393H23.4447H23.4502H23.4556H23.4611H23.4666H23.472H23.4775H23.4829H23.4884H23.4938H23.4993H23.5048H23.5102H23.5157H23.5211H23.5266H23.532H23.5375H23.5429H23.5484H23.5539H23.5593H23.5648H23.5702H23.5757H23.5811H23.5866H23.5921H23.5975H23.603H23.6084H23.6139H23.6193H23.6248H23.6302H23.6357H23.6412H23.6466H23.6521H23.6575H23.663H23.6684H23.6739H23.6794H23.6848H23.6903H23.6957H23.7012H23.7066H23.7121H23.7175H23.723H23.7285H23.7339H23.7394H23.7448H23.7503H23.7557H23.7612H23.7666H23.7721H23.7776H23.783H23.7885H23.7939H23.7994H23.8048H23.8103H23.8158H23.8212H23.8267H23.8321H23.8376H23.843H23.8485H23.8539H23.8594H23.8649H23.8703H23.8758H23.8812H23.8867H23.8921H23.8976H23.9031H23.9085H23.914H23.9194H23.9249H23.9303H23.9358H23.9412H23.9467H23.9522H23.9576H23.9631H23.9685H23.974H23.9794H23.9849H23.9904H23.9958H24.0013H24.0067H24.0122H24.0176H24.0231H24.0285H24.034H24.0395H24.0449H24.0504H24.0558H24.0613H24.0667H24.0722H24.0777H24.0831H24.0886H24.094H24.0995H24.1049H24.1104H24.1158H24.1213H24.1268H24.1322H24.1377H24.1431H24.1486H24.154H24.1595H24.1649H24.1704H24.1759H24.1813H24.1868H24.1922H24.1977H24.2031H24.2086H24.2141H24.2195H24.225H24.2304H24.2359H24.2413H24.2468H24.2522H24.2577H24.2632H24.2686H24.2741H24.2795H24.285H24.2904H24.2959H24.3014H24.3068H24.3123H24.3177H24.3232H24.3286H24.3341H24.3395H24.345H24.3505H24.3559H24.3614H24.3668H24.3723H24.3777H24.3832H24.3887H24.3941H24.3996H24.405H24.4105H24.4159H24.4214H24.4268H24.4323H24.4378H24.4432H24.4487H24.4541H24.4596H24.465H24.4705H24.476H24.4814H24.4869H24.4923H24.4978H24.5032H24.5087H24.5141H24.5196H24.5251H24.5305H24.536H24.5414H24.5469H24.5523H24.5578H24.5632H24.5687H24.5742H24.5796H24.5851H24.5905H24.596H24.6014H24.6069H24.6124H24.6178H24.6233H24.6287H24.6342H24.6396H24.6451H24.6505H24.656H24.6615H24.6669H24.6724H24.6778H24.6833H24.6887H24.6942H24.6997H24.7051H24.7106H24.716H24.7215H24.7269H24.7324H24.7378H24.7433H24.7488H24.7542H24.7597H24.7651H24.7706H24.776H24.7815H24.787H24.7924H24.7979H24.8033H24.8088H24.8142H24.8197H24.8251H24.8306H24.8361H24.8415H24.847H24.8524H24.8579H24.8633H24.8688H24.8743H24.8797H24.8852H24.8906H24.8961H24.9015H24.907H24.9124H24.9179H24.9234H24.9288H24.9343H24.9397H24.9452H24.9506H24.9561H24.9616H24.967H24.9725H24.9779H24.9834H24.9888H24.9943H24.9997H25.0052H25.0107H25.0161H25.0216H25.027H25.0325H25.0379H25.0434H25.0488H25.0543H25.0598H25.0652H25.0707H25.0761H25.0816H25.087H25.0925H25.098H25.1034H25.1089H25.1143H25.1198H25.1252H25.1307H25.1361H25.1416H25.1471H25.1525H25.158H25.1634H25.1689H25.1743H25.1798H25.1853H25.1907H25.1962H25.2016H25.2071H25.2125H25.218H25.2234H25.2289H25.2344H25.2398H25.2453H25.2507H25.2562H25.2616H25.2671H25.2726H25.278H25.2835H25.2889H25.2944H25.2998H25.3053H25.3107H25.3162H25.3217H25.3271H25.3326H25.338H25.3435H25.3489H25.3544H25.3599H25.3653H25.3708H25.3762H25.3817H25.3871H25.3926H25.398H25.4035H25.409H25.4144H25.4199H25.4253H25.4308H25.4362H25.4417H25.4471H25.4526H25.4581H25.4635H25.469H25.4744H25.4799H25.4853H25.4908H25.4963H25.5017H25.5072H25.5126H25.5181H25.5235H25.529H25.5344H25.5399H25.5454H25.5508H25.5563H25.5617H25.5672H25.5726H25.5781H25.5836H25.589H25.5945H25.5999H25.6054H25.6108H25.6163H25.6217H25.6272H25.6327H25.6381H25.6436H25.649H25.6545H25.6599H25.6654H25.6709H25.6763H25.6818H25.6872H25.6927H25.6981H25.7036H25.709H25.7145H25.72H25.7254H25.7309H25.7363H25.7418H25.7472H25.7527H25.7582H25.7636H25.7691H25.7745H25.78H25.7854H25.7909H25.7963H25.8018H25.8073H25.8127H25.8182H25.8236H25.8291H25.8345H25.84H25.8454H25.8509H25.8564H25.8618H25.8673H25.8727H25.8782H25.8836H25.8891H25.8946H25.9H25.9055H25.9109H25.9164H25.9218H25.9273H25.9327C25.9327 28.222 25.9327 28.222 25.9327 28.222C26.0716 28.222 26.2049 28.1677 26.304 28.0705C26.4032 27.9734 26.4603 27.8412 26.4632 27.7024Z" fill="white" stroke="white" stroke-width="0.2"/>
<path d="M24.3483 15.0698L24.3196 15.0316C24.9475 15.1253 25.5619 15.2953 26.1492 15.538L26.1497 15.5382C26.7234 15.7713 27.2293 16.1448 27.6209 16.6245L27.6205 16.6248L27.6277 16.6319C28.0667 17.0708 28.4119 17.5943 28.6425 18.1707C28.873 18.7471 28.984 19.3643 28.9688 19.9848L28.9688 19.9848V19.9873C28.9688 20.1499 29.0295 20.2795 29.1287 20.3673C29.2261 20.4535 29.3534 20.4931 29.4789 20.4925C29.7293 20.4912 29.9983 20.3269 30.0462 20.0019L30.0472 20.002L30.0473 19.9881C30.0533 19.2263 29.9059 18.4712 29.614 17.7676C29.3228 17.0655 28.8935 16.429 28.3517 15.8959C27.8678 15.3189 27.2538 14.865 26.5602 14.5716L26.5602 14.5716L26.5591 14.5712C25.7836 14.2534 24.967 14.0471 24.1336 13.9581L24.1336 13.9581L24.131 13.9579C23.9667 13.9446 23.8336 13.9989 23.743 14.0975C23.6547 14.1936 23.6145 14.3232 23.6145 14.4507C23.6145 14.7041 23.7765 14.9868 24.1086 15.035L24.3483 15.0698Z" fill="white" stroke="white" stroke-width="0.2"/>
<path d="M27.8422 20.7175V20.586C28.4173 20.6666 28.9971 20.7084 29.5778 20.7111L29.5803 20.711C29.7172 20.7083 29.8478 20.6526 29.9447 20.5558C30.0415 20.4589 30.0971 20.3283 30.0999 20.1914L30.0999 20.1914V20.1894C30.0999 20.051 30.045 19.9183 29.9471 19.8205C29.8493 19.7227 29.7166 19.6677 29.5783 19.6677H29.5766H29.575H29.5733H29.5717H29.57H29.5684H29.5667H29.5651H29.5634H29.5618H29.5601H29.5585H29.5569H29.5552H29.5536H29.5519H29.5503H29.5486H29.547H29.5453H29.5437H29.542H29.5404H29.5387H29.5371H29.5354H29.5338H29.5321H29.5305H29.5288H29.5272H29.5255H29.5239H29.5223H29.5206H29.519H29.5173H29.5157H29.514H29.5124H29.5107H29.5091H29.5074H29.5058H29.5041H29.5025H29.5008H29.4992H29.4975H29.4959H29.4942H29.4926H29.4909H29.4893H29.4876H29.486H29.4843H29.4827H29.481H29.4794H29.4777H29.4761H29.4744H29.4728H29.4711H29.4695H29.4678H29.4662H29.4645H29.4629H29.4612H29.4596H29.4579H29.4563H29.4546H29.453H29.4513H29.4497H29.448H29.4464H29.4447H29.4431H29.4414H29.4397H29.4381H29.4364H29.4348H29.4331H29.4315H29.4298H29.4282H29.4265H29.4249H29.4232H29.4216H29.4199H29.4183H29.4166H29.4149H29.4133H29.4116H29.41H29.4083H29.4067H29.405H29.4034H29.4017H29.4H29.3984H29.3967H29.3951H29.3934H29.3918H29.3901H29.3884H29.3868H29.3851H29.3835H29.3818H29.3802H29.3785H29.3768H29.3752H29.3735H29.3719H29.3702H29.3685H29.3669H29.3652H29.3636H29.3619H29.3602H29.3586H29.3569H29.3553H29.3536H29.3519H29.3503H29.3486H29.3469H29.3453H29.3436H29.342H29.3403H29.3386H29.337H29.3353H29.3336H29.332H29.3303H29.3286H29.327H29.3253H29.3236H29.322H29.3203H29.3186H29.317H29.3153H29.3136H29.312H29.3103H29.3086H29.307H29.3053H29.3036H29.302H29.3003H29.2986H29.297H29.2953H29.2936H29.292H29.2903H29.2886H29.2869H29.2853H29.2836H29.2819H29.2803H29.2786H29.2769H29.2752H29.2736H29.2719H29.2702H29.2685H29.2669H29.2652H29.2635H29.2618H29.2602H29.2585H29.2568H29.2551H29.2535H29.2518H29.2501H29.2484H29.2467H29.2451H29.2434H29.2417H29.24H29.2383H29.2367H29.235H29.2333H29.2316H29.2299H29.2283H29.2266H29.2249H29.2232H29.2215H29.2198H29.2182H29.2165H29.2148H29.2131H29.2114H29.2097H29.208H29.2064H29.2047H29.203H29.2013H29.1996H29.1979H29.1962H29.1945H29.1929H29.1912H29.1895H29.1878H29.1861H29.1844H29.1827H29.181H29.1793H29.1776H29.1759H29.1743H29.1726H29.1709H29.1692H29.1675H29.1658H29.1641H29.1624H29.1607H29.159H29.1573H29.1556H29.1539H29.1522H29.1505H29.1488H29.1471H29.1454H29.1437H29.142H29.1403H29.1386H29.1369H29.1352H29.1335H29.1318H29.1301H29.1284H29.1267H29.125H29.1233H29.1216H29.1199H29.1181H29.1164H29.1147H29.113H29.1113H29.1096H29.1079H29.1062H29.1045H29.1028H29.1011H29.0993H29.0976H29.0959H29.0942H29.0925H29.0908H29.0891H29.0874H29.0856H29.0839H29.0822H29.0805H29.0788H29.0771H29.0753H29.0736H29.0719H29.0702H29.0685H29.0667H29.065H29.0633H29.0616H29.0598H29.0581H29.0564H29.0547H29.053H29.0512H29.0495H29.0478H29.0461H29.0443H29.0426H29.0409H29.0391H29.0374H29.0357H29.034H29.0322H29.0305H29.0288H29.027H29.0253H29.0236H29.0218H29.0201H29.0184H29.0166H29.0149H29.0132H29.0114H29.0097H29.0079H29.0062H29.0045H29.0027H29.001H28.9992H28.9975H28.9958H28.994H28.9923H28.9905H28.9888H28.9871H28.9853H28.9836H28.9818H28.9801H28.9783H28.9766H28.9748H28.9731H28.9713H28.9696H28.9678H28.9661H28.9643H28.9626H28.9608H28.9591H28.9573H28.9556H28.9538H28.952H28.9503H28.9485H28.9468H28.945H28.9433H28.9415H28.9397H28.938H28.9362H28.9345H28.9327H28.9309H28.9292H28.9274H28.9256H28.9239H28.9221H28.9203H28.9186H28.9168H28.915H28.9133H28.9115H28.9097H28.908H28.9062H28.9044H28.9027H28.9009H28.8991H28.8973H28.8956H28.8938H28.892H28.8902H28.8884H28.8867H28.8849H28.8831H28.8813H28.8796H28.8778H28.876H28.8742H28.8724H28.8706H28.8689H28.8671H28.8653H28.8635H28.8617H28.8599H28.8581H28.8563H28.8546H28.8528H28.851H28.8492H28.8474H28.8456H28.8438H28.842H28.8402H28.8384H28.8366H28.8348H28.833H28.8312H28.8294H28.8276H28.8258H28.824H28.8222H28.8204H28.8186H28.8168H28.815H28.8132H28.8114H28.8096H28.8078H28.806H28.8042H28.8023H28.8005H28.7987H28.7969H28.7951H28.7933H28.7915H28.7897H28.7878H28.786H28.7842H28.7824H28.7806H28.7787H28.7769H28.7751H28.7733H28.7715H28.7696H28.7678H28.766H28.7642H28.7623H28.7605H28.7587H28.7569H28.755H28.7532H28.7514H28.7495H28.7477H28.7459H28.744H28.7422H28.7404H28.7385H28.7367H28.7349H28.733H28.7312H28.7293H28.7275H28.7257H28.7238H28.722H28.7201H28.7183H28.7164H28.7146H28.7127H28.7109H28.709H28.7072H28.7053H28.7035H28.7016H28.6998H28.2869H28.0849H27.9818C27.8512 19.6398 27.7148 19.6596 27.5975 19.7239L27.5975 19.7239L27.5952 19.7253C27.4767 19.7946 27.3885 19.9058 27.348 20.0369L27.3479 20.0369L27.3466 20.0421C27.3131 20.1755 27.3328 20.3167 27.4015 20.4358C27.4702 20.555 27.5824 20.6428 27.7146 20.6808L27.8422 20.7175Z" fill="white" stroke="white" stroke-width="0.2"/>
</g>
<defs>
<clipPath id="clip0_22_1141">
<rect width="42" height="42" fill="white"/>
</clipPath>
</defs>
</svg>
