<svg width="42" height="42" viewBox="0 0 42 42" fill="none" xmlns="http://www.w3.org/2000/svg">
<g clip-path="url(#clip0_22_1051)">
<path d="M42 24.5653C42 35.9848 31.1159 42 21.0293 42C10.9428 42 0 35.9848 0 24.5653C0 13.1457 10.9428 0 21.0293 0C31.1159 0 42 13.159 42 24.5653Z" fill="#F9B143"/>
<path d="M11.0985 20.829C11.3316 22.5191 11.392 24.074 11.159 25.7737C11.0209 26.8264 12.0996 27.2707 12.2464 26.218C12.5139 24.1995 12.4621 22.4032 12.1859 20.3944C12.0392 19.3321 10.9518 19.5542 11.0985 20.6069V20.829Z" fill="white"/>
<path d="M11.6855 20.9449C13.6963 20.8483 14.9909 19.5638 16.5443 18.6271C18.2876 17.584 20.0913 16.9853 21.9727 16.3575C22.8875 16.0581 22.7667 14.7447 21.8433 15.0441C20.1259 15.6139 18.4343 16.1354 16.8205 17.0335C15.0858 17.9896 13.4806 19.1969 11.556 19.6218C10.6153 19.8536 11.0123 21.4567 11.6855 20.9449Z" fill="white"/>
<path d="M11.5042 26.9906C13.2389 28.0046 15.1807 28.0143 17.0189 28.6517C18.1495 29.0477 19.3405 29.5209 20.4106 30.0907C21.0752 30.448 21.2564 30.6219 21.9813 30.844C22.9134 31.1144 23.3018 29.5112 22.3783 29.2408C21.7138 29.0477 21.5498 29.2119 20.9371 28.8738C20.0654 28.4006 19.1161 28.0819 18.2099 27.7149C16.2854 26.9423 14.076 26.952 12.2637 25.8896C11.4007 25.3971 10.6498 26.4884 11.5042 26.9906Z" fill="white"/>
<path d="M21.9815 16.9079C22.2749 21.3891 21.9901 25.5902 21.9815 30.0713C21.9815 31.1433 22.9739 31.1433 22.9739 30.0713C22.9826 25.5805 23.2674 20.2978 22.9739 15.8166C22.9049 14.7543 21.9124 14.7446 21.9815 15.8166V16.9079Z" fill="white"/>
<path d="M19.3404 19.2741C19.7202 21.6113 19.4009 23.9871 19.375 26.3339C19.3663 27.4059 20.8507 27.4059 20.8594 26.3339C20.8853 23.8132 21.1701 21.3312 20.7731 18.8299C20.6091 17.7772 19.1765 18.2311 19.3404 19.2741Z" fill="white"/>
<path d="M22.6632 20.742C23.345 21.2442 24.0354 21.7464 24.8208 22.0072C25.7442 22.3162 25.9945 20.8386 25.071 20.5296C24.4151 20.3074 23.8369 19.8535 23.2673 19.4383C22.4647 18.8395 21.8692 20.1529 22.6632 20.742Z" fill="white"/>
<path d="M23.1722 27.4155C24.018 27.1837 24.8638 26.9519 25.6405 26.498C26.4949 26.0055 25.7441 24.7597 24.8897 25.2619C24.2338 25.6482 23.4916 25.8123 22.7753 26.0055C21.8432 26.2662 22.2402 27.6763 23.1722 27.4155Z" fill="white"/>
<path d="M24.303 21.4374C24.6828 22.9344 24.0528 24.75 24.8122 26.1407C25.3128 27.0582 26.3398 26.3532 25.8478 25.426C25.5458 24.8756 25.6666 23.9581 25.658 23.34C25.658 22.5964 25.7098 22.0169 25.5285 21.3022C25.2696 20.2785 24.0441 20.4041 24.303 21.4374Z" fill="white"/>
<path d="M27.1595 21.138C27.5479 20.4813 28.1002 19.9501 28.6526 19.4673C29.2912 18.9168 29.9471 18.3856 30.5944 17.8448C30.7929 17.6806 30.8878 17.4102 30.7584 17.1591C30.6462 16.9466 30.3441 16.8211 30.1456 16.9756C29.4466 17.555 28.7302 18.1345 28.0398 18.7333C27.4098 19.2838 26.8316 19.8825 26.3828 20.6262C26.2447 20.8483 26.3397 21.1863 26.5468 21.3119C26.7625 21.4567 27.0215 21.3602 27.1595 21.138Z" fill="white"/>
<path d="M26.6244 26.7492C27.8672 27.29 29.0668 27.9371 30.2319 28.6517C30.7411 28.9608 31.1898 28.1012 30.6806 27.7825C29.4465 27.0196 28.1692 26.3532 26.8574 25.7737C26.6331 25.6772 26.3655 25.88 26.3051 26.1214C26.2447 26.4111 26.4 26.6429 26.6244 26.7492Z" fill="white"/>
<path d="M26.7625 23.9388C27.9276 23.8808 29.0927 23.8229 30.2577 23.7553C30.4994 23.7456 30.7065 23.5331 30.7065 23.2531C30.7065 22.9923 30.4994 22.7412 30.2577 22.7509C29.0927 22.8088 27.9276 22.8668 26.7625 22.9344C26.5208 22.944 26.3137 23.1565 26.3137 23.4366C26.3137 23.6973 26.5208 23.9581 26.7625 23.9388Z" fill="white"/>
</g>
<defs>
<clipPath id="clip0_22_1051">
<rect width="42" height="42" fill="white"/>
</clipPath>
</defs>
</svg>
